<?xml version="1.0" encoding="UTF-8"?>
<svg xmlns="http://www.w3.org/2000/svg" id="Layer_1" data-name="Layer 1" viewBox="0 0 134 49">
  <defs>
    <style>
      .cls-1 {
        fill: #084924;
      }

      .cls-2 {
        fill: #faa819;
      }
    </style>
  </defs>
  <g>
    <path class="cls-1" d="M33.73,12.11v24.33c0,6.17-5,11.17-11.17,11.17h-11.32C5.08,47.61.08,42.61.08,36.44V.94h22.49c6.17,0,11.17,5,11.17,11.17Z"></path>
    <path class="cls-2" d="M31.8,11.84c0-1.28-1.02-2.31-2.27-2.31s-2.27,1.04-2.27,2.31c0,.81.41,1.52,1.02,1.93,0,0,0,0,0,0-.67,5.93-5.61,10.53-11.6,10.53s-10.94-4.6-11.6-10.53c0,0,0,0,0,0,.61-.41,1.02-1.12,1.02-1.93,0-1.28-1.02-2.31-2.27-2.31s-2.27,1.04-2.27,2.31c0,1.02.65,1.89,1.56,2.2,0,0,0,0,0,0,.36,3.19,1.79,6.05,3.91,8.21,2.47,2.52,5.89,4.08,9.66,4.08,7,0,12.77-5.37,13.56-12.29,0,0,0,0,0,0,.9-.31,1.56-1.17,1.56-2.2Z"></path>
    <circle class="cls-2" cx="16.66" cy="40.8" r="3.15"></circle>
  </g>
  <g>
    <path class="cls-1" d="M62.59,1.82c-.09,2.14-.13,4.44-.13,6.89s.04,4.75.13,6.89h-4.46v-5.16h-6.99v5.16h-4.46c.1-2.45.15-4.75.15-6.89s-.05-4.44-.15-6.89h4.46v5.16h6.99V1.82h4.46Z"></path>
    <path class="cls-1" d="M76.62,15.6c-.24-.72-.56-1.63-.97-2.71h-6.06l-.95,2.71h-4.76l5.31-13.78h6.99l5.35,13.78h-4.92ZM74.57,9.93c-.48-1.33-.97-2.66-1.48-3.99l-.46-1.23c-.44,1.15-1.09,2.89-1.96,5.22h3.89Z"></path>
    <path class="cls-1" d="M91.69,1.84c2.52,0,4.27.45,5.26,1.34.99.89,1.48,2.15,1.48,3.77,0,1.11-.2,2.06-.59,2.84-.39.78-1.08,1.39-2.07,1.82-.99.44-2.35.65-4.08.65h-3.95v3.34h-4.67c.1-2.45.15-4.75.15-6.89s-.05-4.44-.15-6.89h4.67v.02h3.95ZM90.36,8.6c1.05,0,1.84-.04,2.36-.12.52-.08.89-.23,1.1-.45.21-.22.31-.53.31-.95s-.1-.73-.29-.94c-.2-.21-.56-.35-1.08-.43-.53-.08-1.33-.11-2.4-.11h-2.62v3h2.62Z"></path>
    <path class="cls-1" d="M109.1,1.84c2.52,0,4.27.45,5.26,1.34.99.89,1.48,2.15,1.48,3.77,0,1.11-.2,2.06-.59,2.84-.39.78-1.08,1.39-2.07,1.82-.99.44-2.35.65-4.08.65h-3.95v3.34h-4.67c.1-2.45.15-4.75.15-6.89s-.05-4.44-.15-6.89h4.67v.02h3.95ZM107.77,8.6c1.05,0,1.84-.04,2.36-.12.52-.08.89-.23,1.1-.45.21-.22.31-.53.31-.95s-.1-.73-.29-.94c-.2-.21-.56-.35-1.08-.43-.53-.08-1.33-.11-2.4-.11h-2.62v3h2.62Z"></path>
    <path class="cls-1" d="M133.83,1.82l-.36.55c-1.35,2.1-2.52,3.96-3.48,5.57s-1.77,3.1-2.42,4.45v3.21h-4.95v-3.53c-.47-.95-1.02-1.93-1.65-2.93s-1.53-2.39-2.7-4.15c-.91-1.34-1.61-2.4-2.09-3.17h5.31c.38.77,1,1.92,1.86,3.44.86,1.54,1.45,2.63,1.77,3.26.44-.92,1.04-2.06,1.78-3.4.87-1.57,1.46-2.67,1.77-3.3h5.16Z"></path>
  </g>
  <g>
    <path class="cls-1" d="M46.6,40.09h2.7c.66,0,1.24.13,1.76.38.51.26.91.62,1.19,1.09s.42,1.01.42,1.62-.14,1.15-.42,1.62-.68.83-1.19,1.09c-.51.26-1.1.38-1.76.38h-2.7v-6.18ZM49.25,45.3c.45,0,.85-.09,1.2-.26.34-.17.61-.42.79-.74.19-.32.28-.69.28-1.12s-.09-.8-.28-1.12c-.19-.32-.45-.57-.79-.74-.34-.17-.74-.26-1.2-.26h-1.5v4.24h1.5Z"></path>
    <path class="cls-1" d="M53.84,40.59c-.14-.13-.2-.28-.2-.47s.07-.35.2-.47c.14-.13.3-.19.5-.19s.37.06.5.18c.14.12.2.27.2.45,0,.19-.07.36-.2.49-.13.13-.3.2-.51.2s-.37-.06-.5-.19ZM53.79,41.55h1.1v4.71h-1.1v-4.71Z"></path>
    <path class="cls-1" d="M63.39,39.72v6.55h-1.06v-.61c-.18.22-.41.39-.68.5-.27.11-.56.17-.89.17-.45,0-.86-.1-1.22-.3-.36-.2-.65-.48-.85-.85-.21-.37-.31-.79-.31-1.27s.1-.9.31-1.26c.21-.36.49-.65.85-.85.36-.2.77-.3,1.22-.3.31,0,.6.05.86.16.26.11.48.26.66.48v-2.42h1.1ZM61.62,45.2c.21-.12.38-.29.5-.52.12-.22.19-.48.19-.78s-.06-.55-.19-.78c-.12-.22-.29-.4-.5-.52-.21-.12-.45-.18-.72-.18s-.5.06-.71.18c-.21.12-.38.29-.5.52-.12.22-.19.48-.19.78s.06.55.19.78c.12.22.29.4.5.52.21.12.45.18.71.18s.5-.06.72-.18ZM60.55,40.28h3.57v.72h-3.57v-.72Z"></path>
    <path class="cls-1" d="M65.67,46.02c-.38-.21-.68-.49-.9-.86-.21-.37-.32-.78-.32-1.25s.11-.88.32-1.24c.21-.36.51-.65.9-.86.38-.21.81-.31,1.29-.31s.91.1,1.3.31c.38.21.68.49.9.86.21.36.32.78.32,1.24s-.11.88-.32,1.25c-.21.37-.51.65-.9.86-.38.21-.82.31-1.3.31s-.91-.1-1.29-.31ZM67.73,40.91l-.78-.65-.78.65h-.91l1.18-1.21h1.01l1.18,1.21h-.91ZM67.96,44.98c.26-.27.4-.63.4-1.07s-.13-.8-.4-1.07c-.26-.27-.6-.41-1.01-.41s-.74.14-1,.41c-.26.27-.39.63-.39,1.07s.13.8.39,1.07c.26.27.6.41,1,.41s.74-.14,1.01-.41ZM66.57,47.92c-.1-.09-.15-.22-.15-.38s.05-.28.15-.38.23-.15.38-.15.28.05.38.15.15.23.15.38-.05.29-.15.38c-.1.09-.23.14-.38.14s-.28-.05-.38-.14Z"></path>
    <path class="cls-1" d="M74.64,42.02c.36.35.54.86.54,1.54v2.7h-1.1v-2.56c0-.41-.1-.72-.29-.93-.19-.21-.47-.31-.83-.31-.41,0-.73.12-.96.37-.24.24-.35.6-.35,1.05v2.38h-1.1v-4.71h1.05v.61c.18-.22.41-.38.69-.49.28-.11.59-.17.94-.17.59,0,1.07.17,1.43.52Z"></path>
    <path class="cls-1" d="M81.3,41.55v4c0,1.66-.85,2.49-2.54,2.49-.45,0-.88-.06-1.29-.17s-.74-.28-1.01-.5l.49-.83c.21.17.47.31.78.41.31.1.63.15.96.15.52,0,.9-.12,1.14-.35.24-.24.36-.59.36-1.08v-.25c-.19.21-.42.36-.69.47-.27.11-.57.16-.89.16-.45,0-.85-.1-1.21-.29-.36-.19-.65-.46-.86-.81s-.31-.74-.31-1.19.1-.84.31-1.19c.21-.34.49-.61.86-.8.36-.19.77-.28,1.21-.28.34,0,.65.06.93.17.28.11.51.28.7.51v-.63h1.05ZM79.81,44.74c.27-.25.4-.58.4-.98s-.13-.71-.4-.96-.61-.37-1.03-.37-.77.12-1.04.37-.4.57-.4.96.13.73.4.98c.27.25.61.38,1.04.38s.76-.12,1.03-.38Z"></path>
    <path class="cls-1" d="M89.29,42.02c.36.35.54.86.54,1.54v2.7h-1.1v-2.56c0-.41-.1-.72-.29-.93-.19-.21-.47-.31-.83-.31-.41,0-.73.12-.96.37-.24.24-.35.6-.35,1.05v2.38h-1.1v-6.55h1.1v2.38c.18-.19.41-.34.68-.45.27-.1.57-.15.9-.15.59,0,1.07.17,1.43.52Z"></path>
    <path class="cls-1" d="M94.62,42c.37.33.55.83.55,1.5v2.76h-1.04v-.57c-.14.21-.33.36-.58.47s-.55.16-.9.16-.66-.06-.93-.18-.47-.29-.61-.5c-.14-.21-.22-.46-.22-.73,0-.42.16-.76.47-1.02.31-.26.81-.38,1.49-.38h1.22v-.07c0-.33-.1-.58-.3-.76-.2-.18-.49-.26-.88-.26-.26,0-.53.04-.78.12-.26.08-.47.2-.65.34l-.43-.8c.25-.19.54-.33.89-.43.35-.1.72-.15,1.1-.15.69,0,1.23.17,1.59.5ZM93.62,45.34c.21-.13.37-.31.45-.54v-.55h-1.14c-.64,0-.95.21-.95.63,0,.2.08.36.24.48.16.12.38.18.66.18s.52-.06.74-.19ZM92.7,47.92c-.1-.09-.15-.22-.15-.38s.05-.28.15-.38.23-.15.38-.15.28.05.38.15.15.23.15.38-.05.29-.15.38c-.1.09-.23.14-.38.14s-.28-.05-.38-.14Z"></path>
    <path class="cls-1" d="M100.69,42.02c.36.35.54.86.54,1.54v2.7h-1.1v-2.56c0-.41-.1-.72-.29-.93-.19-.21-.47-.31-.83-.31-.41,0-.73.12-.96.37-.24.24-.35.6-.35,1.05v2.38h-1.1v-4.71h1.05v.61c.18-.22.41-.38.69-.49.28-.11.59-.17.94-.17.59,0,1.07.17,1.43.52Z"></path>
    <path class="cls-1" d="M106.74,42.02c.36.35.54.86.54,1.54v2.7h-1.1v-2.56c0-.41-.1-.72-.29-.93-.19-.21-.47-.31-.83-.31-.41,0-.73.12-.96.37-.24.24-.35.6-.35,1.05v2.38h-1.1v-6.55h1.1v2.38c.18-.19.41-.34.68-.45.27-.1.57-.15.9-.15.59,0,1.07.17,1.43.52Z"></path>
    <path class="cls-1" d="M114.96,41.8c.36.2.65.48.85.85.21.36.31.79.31,1.26s-.1.9-.31,1.27-.49.65-.85.85c-.36.2-.77.3-1.23.3-.64,0-1.14-.21-1.51-.64v2.29h-1.1v-6.43h1.05v.62c.18-.22.41-.39.68-.5.27-.11.56-.17.89-.17.46,0,.87.1,1.23.3ZM114.61,44.98c.26-.27.39-.63.39-1.07s-.13-.8-.39-1.07c-.26-.27-.6-.41-1-.41-.26,0-.5.06-.72.18-.21.12-.38.29-.5.52-.12.22-.19.48-.19.78s.06.55.19.78c.12.22.29.4.5.52.21.12.45.18.72.18.41,0,.74-.14,1-.41Z"></path>
    <path class="cls-1" d="M121.27,42.02c.36.35.54.86.54,1.54v2.7h-1.1v-2.56c0-.41-.1-.72-.29-.93-.19-.21-.47-.31-.83-.31-.41,0-.73.12-.96.37-.24.24-.35.6-.35,1.05v2.38h-1.1v-6.55h1.1v2.38c.18-.19.41-.34.68-.45.27-.1.57-.15.9-.15.59,0,1.07.17,1.43.52Z"></path>
    <path class="cls-1" d="M127.78,41.55v4.71h-1.05v-.6c-.18.21-.4.38-.66.49-.26.11-.55.17-.86.17-.63,0-1.13-.18-1.49-.53-.36-.35-.54-.87-.54-1.56v-2.69h1.1v2.54c0,.42.1.74.29.95.19.21.46.31.82.31.39,0,.71-.12.94-.37.23-.24.35-.6.35-1.05v-2.38h1.1ZM125.93,39.7h1.3l-1.54,1.21h-.95l1.19-1.21Z"></path>
    <path class="cls-1" d="M130.07,46.02c-.39-.21-.69-.49-.91-.86-.22-.37-.33-.78-.33-1.25s.11-.88.33-1.24c.22-.36.52-.65.9-.86.39-.21.83-.31,1.32-.31.46,0,.87.09,1.22.28.35.19.61.46.79.81l-.85.49c-.14-.22-.3-.38-.51-.49-.2-.11-.43-.16-.67-.16-.41,0-.75.13-1.02.4-.27.27-.41.63-.41,1.07s.13.8.4,1.07c.27.27.61.4,1.03.4.24,0,.46-.05.67-.16.2-.11.37-.27.51-.49l.85.49c-.18.35-.45.63-.8.82-.35.19-.75.29-1.21.29-.49,0-.93-.1-1.32-.31Z"></path>
  </g>
  <g>
    <path class="cls-2" d="M55.3,20.97c2.52,0,4.27.45,5.26,1.34.99.89,1.48,2.15,1.48,3.77,0,1.11-.2,2.06-.59,2.84-.39.78-1.08,1.39-2.07,1.82-.99.44-2.35.65-4.08.65h-3.95v3.34h-4.67c.1-2.45.15-4.75.15-6.89s-.05-4.44-.15-6.89h4.67v.02h3.95ZM53.97,27.73c1.05,0,1.84-.04,2.36-.12.52-.08.89-.23,1.1-.45.21-.22.31-.53.31-.95s-.1-.73-.29-.94c-.2-.21-.56-.35-1.08-.43-.53-.08-1.33-.11-2.4-.11h-2.62v3h2.62Z"></path>
    <path class="cls-2" d="M80,20.95c-.09,2.14-.13,4.44-.13,6.89s.04,4.75.13,6.89h-4.46v-5.16h-6.99v5.16h-4.46c.1-2.45.15-4.75.15-6.89s-.05-4.44-.15-6.89h4.46v5.16h6.99v-5.16h4.46Z"></path>
    <path class="cls-2" d="M84.1,33.03c-1.37-1.26-2.05-3.03-2.05-5.31s.68-4.01,2.04-5.28c1.36-1.27,3.5-1.9,6.41-1.9s5.07.63,6.43,1.9c1.36,1.27,2.04,3.02,2.04,5.28s-.68,4.06-2.03,5.31c-1.35,1.25-3.5,1.88-6.44,1.88s-5.03-.63-6.4-1.89ZM93.53,30.24c.62-.54.93-1.38.93-2.52s-.31-1.94-.93-2.49c-.62-.54-1.63-.82-3.04-.82s-2.4.27-3.02.82c-.62.54-.93,1.37-.93,2.49s.31,1.96.93,2.51c.62.54,1.63.82,3.02.82s2.42-.27,3.04-.81Z"></path>
    <path class="cls-2" d="M116.93,20.97c-.09,2.14-.13,4.43-.13,6.87s.04,4.75.13,6.89h-6.8l-4.59-10.36.34,10.36h-4.88c.1-2.45.15-4.75.15-6.89s-.05-4.42-.15-6.87h6.99l4.61,10.65-.32-10.65h4.65Z"></path>
    <path class="cls-2" d="M123.46,31.26c4.81-.03,8.3-.1,10.46-.21-.09.52-.14,1.05-.16,1.6-.02.55-.03,1.24-.03,2.08h-14.75c.1-2.45.15-4.75.15-6.89s-.05-4.44-.15-6.89h14.75v3.44h-10.27v1.82c.61.01,1.51.02,2.7.02,2.01,0,4.09-.04,6.25-.11v3.26c-2.15-.08-4.23-.11-6.25-.11-1.19,0-2.09,0-2.7.02v1.97Z"></path>
  </g>
</svg>
