<svg width="166" height="127" viewBox="0 0 166 127" fill="none" xmlns="http://www.w3.org/2000/svg">
<g clip-path="url(#clip0_2086_977)">
<path d="M75.512 49.0235C75.512 42.2514 81.0167 36.7637 87.8097 36.7637C94.6027 36.7637 100.107 42.2514 100.107 49.0235C100.107 55.7956 94.6027 61.2833 87.8097 61.2833C81.0167 61.2833 75.512 55.7956 75.512 49.0235Z" fill="#00ADEE"/>
<path d="M49.1441 0L44.4358 75.0768C53.1457 75.68 63.1245 74.9483 73.7356 72.8389V0H49.1441Z" fill="#F6921E"/>
<path d="M95.5358 68.3318C64.5299 80.4281 34.5468 81.8837 18.4465 73.5315C24.3846 79.5407 33.1882 83.5573 43.8384 85.4099L43.0459 98.0667H73.7864V85.3165C81.4891 84.1255 89.4689 82.0744 97.4683 79.1204C129.38 67.3276 151.633 44.8124 153.706 24.5C145.437 40.3132 123.785 57.3135 95.5397 68.3356L95.5358 68.3318Z" fill="#F6921E"/>
<path d="M99.6545 79.5488L98.3271 98.067H122.919V68.873C116.766 72.5276 109.989 75.7775 102.711 78.4668C101.692 78.8444 100.673 79.2024 99.6545 79.5488Z" fill="#F6921E"/>
<path d="M104.476 12.2598L100.705 64.8836C108.696 61.7583 116.153 58.1504 122.919 54.2234V12.2598H104.472H104.476Z" fill="#F6921E"/>
<path d="M9.56882 126.685V120.138H4.19295V126.685H0V110.307H4.19295V116.464H9.56882V110.307H13.7618V126.685H9.56882Z" fill="#00ADEE"/>
<path d="M17.2832 126.685V110.307H21.4761V123.011H26.3406V126.685H17.2832Z" fill="#00ADEE"/>
<path d="M40.3521 118.173C40.0359 118.994 39.6026 119.648 39.0521 120.138C38.3962 120.707 37.6466 121.096 36.8073 121.306C36.1631 121.473 35.3159 121.555 34.2618 121.555H32.4426V126.685H28.4214V110.307H33.7973C34.3165 110.307 34.7537 110.319 35.109 110.338C35.6009 110.366 36.0499 110.416 36.452 110.49C37.4475 110.661 38.2518 111 38.8569 111.506C40.1413 112.592 40.7855 114.04 40.7855 115.838C40.7855 116.636 40.641 117.414 40.3521 118.173ZM35.9015 114.304C35.4838 114.09 34.8474 113.981 33.9925 113.981H32.4426V117.881H34.1447C34.9529 117.881 35.5658 117.76 35.9757 117.515C36.5028 117.208 36.7682 116.674 36.7682 115.915C36.7682 115.157 36.4793 114.608 35.9015 114.304Z" fill="#00ADEE"/>
<path d="M65.2874 126.685H61.602L59.1425 116.087H59.0995L56.6283 126.685H52.8375L48.6016 110.307H52.8609L55.0589 120.96H55.1018L57.5184 110.307H60.7353L63.109 121.002H63.1519L65.3968 110.307H69.6444L65.2874 126.685Z" fill="#00ADEE"/>
<path d="M71.9517 126.685V110.307H76.1446V126.685H71.9517Z" fill="#00ADEE"/>
<path d="M89.7657 126.685L83.5114 116.725L83.4568 116.748L83.5778 126.689H79.5566V110.311H83.1757L89.5237 120.605L89.5666 120.563L89.3831 110.311H93.4043V126.689H89.7618L89.7657 126.685Z" fill="#00ADEE"/>
<path d="M102.356 126.685H96.6133V110.307H102.052C102.86 110.307 103.57 110.346 104.175 110.428C104.882 110.521 105.522 110.673 106.092 110.883C107.373 111.342 108.439 112.171 109.301 113.366C110.313 114.763 110.82 116.46 110.82 118.453C110.82 123.941 107.997 126.685 102.356 126.685ZM105.675 115.277C104.98 114.413 103.965 113.981 102.629 113.981H100.81V123.015H102.61C103.984 123.015 105.007 122.598 105.686 121.761C106.315 120.998 106.631 119.916 106.631 118.519C106.631 117.122 106.315 116.063 105.678 115.277H105.675Z" fill="#00ADEE"/>
<path d="M127.822 124.567C126.14 126.186 124.086 127 121.666 127C119.245 127 117.293 126.206 115.607 124.614C113.885 122.999 113.026 121.029 113.026 118.706C113.026 117.468 113.241 116.301 113.666 115.207C113.889 114.623 114.248 114.012 114.74 113.37C116.446 111.132 118.761 110.011 121.685 110.011C124.098 110.011 126.144 110.825 127.819 112.452C129.509 114.086 130.356 116.102 130.356 118.5C130.356 120.897 129.513 122.929 127.819 124.571L127.822 124.567ZM124.953 115.149C124.094 114.168 123.013 113.681 121.713 113.681C120.413 113.681 119.316 114.156 118.461 115.106C117.637 116.02 117.227 117.137 117.227 118.453C117.227 119.768 117.641 120.936 118.472 121.866C119.331 122.839 120.428 123.326 121.756 123.326C123.083 123.326 124.098 122.835 124.953 121.855C125.761 120.924 126.167 119.811 126.167 118.515C126.167 117.219 125.761 116.075 124.953 115.145V115.149Z" fill="#00ADEE"/>
<path d="M148.619 126.685H144.934L142.474 116.087H142.431L139.96 126.685H136.165L131.929 110.307H136.189L138.387 120.96H138.43L140.846 110.307H144.063L146.437 121.002H146.48L148.725 110.307H152.972L148.615 126.685H148.619Z" fill="#00ADEE"/>
<path d="M164.353 125.766C163.341 126.587 161.983 126.996 160.277 126.996C158.571 126.996 157.134 126.564 156.072 125.7C154.924 124.777 154.35 123.474 154.35 121.788V121.259H158.524C158.524 121.862 158.657 122.372 158.926 122.781C159.23 123.256 159.668 123.493 160.238 123.493C161.3 123.493 161.83 122.972 161.83 121.925C161.83 121.45 161.647 121.064 161.276 120.769C161.132 120.652 160.944 120.539 160.714 120.422L160.402 120.27L158.614 119.504C158.02 119.259 157.513 119.009 157.087 118.757C156.58 118.461 156.154 118.142 155.81 117.795C155.01 116.982 154.608 115.989 154.608 114.814C154.608 113.366 155.213 112.183 156.427 111.261C157.54 110.42 158.848 109.996 160.351 109.996C161.194 109.996 162.006 110.147 162.779 110.451C163.619 110.782 164.29 111.249 164.794 111.856C165.473 112.693 165.832 113.767 165.879 115.086H161.729C161.569 114.02 161.069 113.487 160.222 113.487C159.262 113.487 158.781 113.915 158.781 114.771C158.781 115.075 158.832 115.304 158.934 115.464C159.098 115.744 159.601 116.09 160.441 116.499L162.174 117.278C162.779 117.55 163.287 117.815 163.693 118.068C164.185 118.371 164.587 118.69 164.907 119.029C165.645 119.807 166.012 120.788 166.012 121.967C166.012 123.61 165.461 124.875 164.364 125.758L164.353 125.766Z" fill="#00ADEE"/>
</g>
<defs>
<clipPath id="clip0_2086_977">
<rect width="166" height="127" fill="white"/>
</clipPath>
</defs>
</svg>
