<svg width="110" height="50" viewBox="0 0 110 50" fill="none" xmlns="http://www.w3.org/2000/svg">
<g clip-path="url(#clip0_2542_31521)">
<path d="M35.2249 6.93735C35.4395 4.31355 33.4807 2.00412 30.8569 1.7895C28.8769 1.62626 27.0753 2.70541 26.2169 4.374C29.4452 4.88788 32.4469 6.08492 35.0677 7.81095C35.1463 7.52982 35.2007 7.23963 35.2249 6.93735Z" fill="#E79C31"/>
<path d="M40.3183 12.6021C40.5692 12.324 40.7385 11.9673 40.7929 11.5683C40.9289 10.5164 40.1853 9.55209 39.1334 9.41304C38.5953 9.34351 38.0814 9.50675 37.6884 9.82112C38.6406 10.6736 39.5203 11.6016 40.3183 12.6021Z" fill="#E79C31"/>
<path d="M40.3183 12.6021C39.9103 13.0586 39.2906 13.3125 38.6376 13.2309C37.5857 13.0948 36.8421 12.1275 36.9781 11.0756C37.0446 10.5617 37.3106 10.1234 37.6855 9.82113C36.8633 9.08961 35.9897 8.41854 35.0677 7.81095C34.4722 9.98134 32.3986 11.4958 30.077 11.3053C27.4532 11.0907 25.4944 8.78128 25.7091 6.15747C25.7604 5.51361 25.9418 4.91207 26.2199 4.37401C25.0531 4.18962 23.8561 4.08987 22.6379 4.08987C10.1355 4.08684 0 14.2224 0 26.7247C0 39.2271 10.1355 49.3596 22.6349 49.3596C35.1372 49.3596 45.2697 39.2241 45.2697 26.7247C45.2697 21.3804 43.4137 16.4743 40.3183 12.6021ZM32.6766 17.4205C31.1985 22.1875 30.5788 24.4244 27.4411 33.916C26.6492 36.2496 26.0627 37.8819 25.6788 38.813C25.4521 39.3661 24.9141 39.7259 24.3155 39.7259H13.4425C13.2278 39.7259 13.0797 39.5112 13.1493 39.3087C15.7368 31.9814 18.0432 24.9957 20.0413 18.6357C20.7275 16.4471 18.7112 14.9146 17.9616 14.4339C17.886 14.3856 17.9223 14.2737 18.013 14.2737H29.9319C33.2933 14.2737 33.0122 16.3413 32.6766 17.4205Z" fill="#0A5C9D"/>
<path d="M57.3879 14.661H62.309C62.4874 14.661 62.6325 14.8061 62.6325 14.9845V39.0128C62.6325 39.1912 62.4874 39.3363 62.309 39.3363H57.3879C57.2096 39.3363 57.0645 39.1912 57.0645 39.0128V14.9845C57.0645 14.8061 57.2096 14.661 57.3879 14.661Z" fill="#0A5C9D"/>
<path d="M65.9915 14.661H85.9663C86.1446 14.661 86.2897 14.8061 86.2897 14.9845V19.0592C86.2897 19.2376 86.1446 19.3827 85.9663 19.3827H79.0712C78.8929 19.3827 78.7478 19.5278 78.7478 19.7061V39.0098C78.7478 39.1882 78.6027 39.3332 78.4243 39.3332H73.5032C73.3249 39.3332 73.1798 39.1882 73.1798 39.0098V19.7091C73.1798 19.5308 73.0347 19.3857 72.8563 19.3857H65.9945C65.8162 19.3857 65.6711 19.2406 65.6711 19.0622V14.9845C65.665 14.8061 65.8101 14.661 65.9915 14.661Z" fill="#0A5C9D"/>
<path d="M104.837 26.8937H109.018C109.196 26.8937 109.341 27.0388 109.341 27.2171V36.3128C109.341 36.4186 109.29 36.5183 109.205 36.5788C107.918 37.4977 106.388 38.2444 104.617 38.8247C102.785 39.4233 101.023 39.7225 99.3297 39.7225C96.8631 39.7225 94.6293 39.1633 92.6312 38.0479C90.6331 36.9324 89.0582 35.4029 87.9065 33.4653C86.7548 31.5277 86.1805 29.3573 86.1805 26.9602C86.1805 24.5873 86.7669 22.429 87.9428 20.4914C89.1187 18.5537 90.7328 17.0302 92.7884 15.9269C94.8439 14.8236 97.1291 14.2704 99.6441 14.2704C101.476 14.2704 103.268 14.5999 105.019 15.2589C106.663 15.8755 108.093 16.7007 109.314 17.7345C109.447 17.8464 109.465 18.0489 109.356 18.1849L106.627 21.6521C106.512 21.8002 106.297 21.8153 106.158 21.6884C105.303 20.9297 104.329 20.3251 103.241 19.8777C102.044 19.385 100.844 19.1371 99.6471 19.1371C98.2143 19.1371 96.9024 19.4848 95.7175 20.177C94.5295 20.8692 93.5954 21.8093 92.9153 22.9973C92.2322 24.1852 91.8936 25.5062 91.8936 26.9632C91.8936 28.4202 92.2412 29.7533 92.9335 30.9654C93.6257 32.1776 94.5658 33.1267 95.7537 33.822C96.9387 34.5142 98.2506 34.8618 99.6834 34.8618C100.412 34.8618 101.198 34.7379 102.044 34.493C102.827 34.2633 103.589 33.961 104.332 33.5801C104.441 33.5257 104.511 33.4109 104.511 33.2869V27.2171C104.514 27.0388 104.659 26.8937 104.837 26.8937Z" fill="#0A5C9D"/>
<path d="M41.7572 0.0302514C39.7077 -0.235756 37.8245 1.21822 37.5585 3.26769C37.2925 5.31716 38.7465 7.20339 40.7959 7.46638C42.8454 7.73239 44.7316 6.27841 44.9946 4.22894C45.2606 2.17947 43.8097 0.296259 41.7572 0.0302514Z" fill="#E79C31"/>
</g>
<defs>
<clipPath id="clip0_2542_31521">
<rect width="109.432" height="49.3596" fill="white"/>
</clipPath>
</defs>
</svg>
