<?xml version="1.0" encoding="UTF-8"?>
<svg xmlns="http://www.w3.org/2000/svg" width="92" height="84" viewBox="0 0 92 84" fill="none">
  <path d="M71.0166 40.9627C71.5497 36.6765 72.8405 32.5193 74.8288 28.685C70.713 29.0189 66.799 30.6089 63.6164 33.2401C61.9496 34.5799 60.4021 36.0618 58.9913 37.669C60.1737 35.1722 61.6411 32.8207 63.3641 30.6612C63.2277 26.9228 63.7691 23.1906 64.9619 19.645C60.6246 21.4149 56.8436 24.3196 54.0158 28.0544C58.739 40.8505 54.0158 47.5219 54.0158 47.5219C56.1461 40.3319 52.6142 30.1006 52.6142 30.1006C50.665 25.0518 48.3219 20.164 45.6065 15.4824C42.8899 20.1585 40.5467 25.0417 38.5987 30.0866C38.5987 30.0866 35.0107 40.3179 37.1271 47.5079C37.1271 47.5079 32.4739 40.8365 37.2252 28.0403C34.3992 24.3095 30.6239 21.4054 26.2931 19.631C27.4773 23.1784 28.0137 26.9099 27.8768 30.6472C29.5887 32.809 31.0465 35.1604 32.2216 37.655C30.8149 36.0444 29.2722 34.558 27.6105 33.2121C24.4081 30.5666 20.4688 28.9712 16.328 28.643C18.3131 32.4775 19.5993 36.635 20.1262 40.9206C16.4958 40.8414 12.9257 41.8573 9.88086 43.8358C9.88086 43.8358 17.0568 45.7139 19.6917 48.8674C21.229 50.7233 23.0223 52.3514 25.0176 53.7028C25.0176 53.7028 22.4668 51.222 21.0232 44.4245C21.0232 44.4245 23.9945 53.1982 35.8797 58.0476H36.146C30.4051 54.0901 26.4214 48.0618 25.0316 41.229C25.0316 41.229 29.7549 53.927 42.8034 58.7343C44.4432 54.3475 45.6065 41.7195 45.6065 41.7195C45.6065 41.7195 46.6857 54.3335 48.3115 58.7343C61.3739 53.955 66.1112 41.271 66.1112 41.271C64.6818 48.0944 60.6627 54.0979 54.8988 58.0195H55.1651C67.0642 53.1842 70.0495 44.4245 70.0495 44.4245C68.648 51.208 66.0411 53.6747 66.0271 53.6887C68.0313 52.3489 69.83 50.7248 71.367 48.8674C74.044 45.7139 81.1779 43.8498 81.1779 43.8498C78.1566 41.8911 74.6165 40.8852 71.0166 40.9627Z" fill="url(#paint0_linear_2160_2142)"></path>
  <path d="M79.6784 38.9446L78.7393 38.8185C78.6636 38.8098 78.5905 38.7862 78.524 38.749C78.4575 38.7118 78.3991 38.6617 78.3521 38.6017C78.3052 38.5417 78.2706 38.473 78.2505 38.3995C78.2303 38.326 78.225 38.2493 78.2348 38.1738C78.4016 36.8817 78.4859 35.5803 78.4871 34.2774C78.4871 16.8001 63.7147 2.5883 45.5646 2.5883C27.4144 2.5883 12.6561 16.8001 12.6561 34.2774C12.6573 35.5803 12.7415 36.8817 12.9084 38.1738C12.9181 38.2493 12.9128 38.326 12.8927 38.3995C12.8725 38.473 12.838 38.5417 12.791 38.6017C12.7441 38.6617 12.6857 38.7118 12.6192 38.749C12.5527 38.7862 12.4795 38.8098 12.4038 38.8185L11.4648 38.9446C11.3882 38.9586 11.3095 38.9568 11.2336 38.9394C11.1577 38.9221 11.0861 38.8895 11.0232 38.8436C10.9603 38.7977 10.9074 38.7395 10.8676 38.6726C10.8279 38.6056 10.8022 38.5313 10.792 38.4541C10.6077 37.06 10.5141 35.6555 10.5117 34.2494C10.5117 15.6368 26.2371 0.5 45.5506 0.5C64.864 0.5 80.5894 15.6368 80.5894 34.2494C80.587 35.6555 80.4934 37.06 80.3091 38.4541C80.2881 38.6017 80.2106 38.7354 80.0929 38.8269C79.9753 38.9184 79.8266 38.9606 79.6784 38.9446Z" fill="url(#paint1_linear_2160_2142)"></path>
  <path d="M45.5643 68.0408C39.346 68.0908 33.2252 66.4936 27.8242 63.4115C22.4232 60.3295 17.9344 55.8724 14.8142 50.4933C14.7778 50.4244 14.7555 50.3489 14.7485 50.2713C14.7415 50.1937 14.7499 50.1155 14.7734 50.0411C14.7969 49.9668 14.8349 49.8979 14.8852 49.8384C14.9355 49.7788 14.9971 49.7299 15.0665 49.6944L15.9074 49.2739C16.0462 49.2065 16.2053 49.1935 16.3532 49.2376C16.5011 49.2817 16.6271 49.3797 16.7063 49.5122C19.6706 54.5303 23.8919 58.6888 28.9537 61.5777C34.0156 64.4666 39.7431 65.986 45.5713 65.986C51.3995 65.986 57.127 64.4666 62.1889 61.5777C67.2507 58.6888 71.472 54.5303 74.4363 49.5122C74.5131 49.3772 74.6391 49.2771 74.7879 49.2327C74.9368 49.1883 75.097 49.2031 75.2352 49.2739L76.0761 49.6944C76.1455 49.7299 76.2071 49.7788 76.2574 49.8384C76.3078 49.8979 76.3457 49.9668 76.3692 50.0411C76.3927 50.1155 76.4011 50.1937 76.3941 50.2713C76.3871 50.3489 76.3648 50.4244 76.3284 50.4933C73.2048 55.8725 68.7134 60.3294 63.3102 63.4113C57.907 66.4932 51.7845 68.0904 45.5643 68.0408Z" fill="url(#paint2_linear_2160_2142)"></path>
  <path d="M45.5642 13.0578C46.9657 11.9085 47.4983 11.6563 47.6525 10.6471C48.0589 8.1804 45.5642 5.7417 45.5642 5.7417C45.5642 5.7417 43.0554 8.19442 43.5039 10.6892C43.7001 11.5581 44.2607 11.8665 45.5642 13.0578Z" fill="url(#paint3_linear_2160_2142)"></path>
  <path d="M53.0629 22.182C54.1281 21.6074 54.5626 21.4672 54.8149 20.8645C54.9482 20.2579 54.9561 19.6304 54.838 19.0206C54.7199 18.4108 54.4783 17.8316 54.1281 17.3186C54.1281 17.3186 52.0959 18.608 52.0258 20.3319C52.0118 20.9766 52.3622 21.257 53.0629 22.182Z" fill="url(#paint4_linear_2160_2142)"></path>
  <path d="M38.0941 22.182C37.043 21.6074 36.6085 21.4672 36.3562 20.8645C36.2228 20.2579 36.215 19.6304 36.3331 19.0206C36.4512 18.4108 36.6928 17.8316 37.043 17.3186C37.043 17.3186 39.0752 18.608 39.1313 20.3319C39.1313 20.9766 38.7809 21.257 38.0941 22.182Z" fill="url(#paint5_linear_2160_2142)"></path>
  <path d="M2.81711 78.3283L4.91945 76.2119L5.42401 75.6793L5.67627 75.413L5.87249 75.1608C5.96028 75.0513 6.01824 74.9209 6.04069 74.7824C6.04892 74.7286 6.036 74.6738 6.00464 74.6293C5.97327 74.5849 5.9259 74.5543 5.87249 74.5441C5.76037 74.5441 5.70431 74.502 5.70431 74.4179C5.70431 74.4179 5.77439 74.3198 5.90053 74.3198H6.51722H6.88161H7.52634H8.3112H8.66159C8.80175 74.3198 8.87181 74.3198 8.87181 74.4179C8.87181 74.5161 8.87183 74.53 8.68963 74.53C8.4459 74.5309 8.20412 74.5736 7.97482 74.6562C7.4503 74.8609 6.9733 75.171 6.57327 75.5672L5.17171 76.8426L4.35881 77.6135L3.81221 78.1601C3.92433 78.3003 4.13457 78.5385 4.45693 78.8889L5.48006 79.9681L6.51722 81.0473L7.61043 82.0844C7.74764 82.2147 7.89274 82.3364 8.0449 82.4489C8.32412 82.68 8.63579 82.8689 8.96993 83.0095L9.44646 83.1496H9.7548C9.86692 83.1496 9.90897 83.1496 9.90897 83.2477C9.91641 83.263 9.92026 83.2798 9.92026 83.2968C9.92026 83.3138 9.91641 83.3305 9.90897 83.3458H9.67071H8.66159H7.80664C7.51677 83.3286 7.23434 83.2472 6.97973 83.1076C6.72666 82.9456 6.48755 82.7628 6.26492 82.561L5.55014 81.8602L4.51298 80.7249C3.65804 79.7719 3.11143 79.1832 2.98529 78.973L2.85916 78.7908V81.3837C2.85916 81.8602 2.85916 82.2246 2.85916 82.4489C2.85916 82.6731 3.02734 83.0655 3.30765 83.1076H3.92433C4.02244 83.1076 4.0785 83.1076 4.0785 83.2057C4.0785 83.3038 4.07851 83.3318 3.84024 83.3318H1.75194H1.5557H0.476523C0.308337 83.3318 0.224232 83.2898 0.224232 83.2057C0.224232 83.2057 0.294309 83.1076 0.420449 83.1076C0.569627 83.1214 0.719778 83.1214 0.868956 83.1076C1.05116 83.1076 1.17729 82.8553 1.23335 82.4489C1.28941 82.0424 1.23335 81.8602 1.23335 81.3837C1.23335 81.2015 1.23335 80.9632 1.23335 80.6829V75.9877V75.2589C1.24306 75.0993 1.19437 74.9416 1.09638 74.8152C0.99838 74.6888 0.857783 74.6025 0.700777 74.5721C0.537822 74.553 0.373179 74.553 0.210224 74.5721C0.0700691 74.5721 0 74.5721 0 74.46C0 74.3479 0.0840752 74.3619 0.266277 74.3619H2.31255H3.5319C3.70009 74.3619 3.78419 74.3619 3.78419 74.46C3.78419 74.5581 3.78418 74.5721 3.61599 74.5721H3.2656C2.98529 74.5721 2.83114 74.8384 2.80311 75.2589V75.9877L2.81711 78.3283Z" fill="url(#paint6_linear_2160_2142)"></path>
  <path d="M10.8761 75.9876V75.2588C10.8761 74.8524 10.7079 74.6281 10.4416 74.5721C10.2973 74.5554 10.1515 74.5554 10.0071 74.5721C9.86697 74.5721 9.79688 74.53 9.79688 74.4459C9.79688 74.4459 9.89499 74.3618 10.1052 74.3618H12.0253H13.2447C13.4129 74.3618 13.511 74.3618 13.511 74.4459C13.511 74.53 13.4409 74.5721 13.3008 74.5721H12.9364C12.642 74.5721 12.4879 74.8384 12.4738 75.2588V75.9876V80.7389C12.4738 81.0332 12.4738 81.2715 12.4738 81.4677C12.4738 81.9582 12.4738 82.3086 12.4738 82.5469C12.4738 82.7851 12.6841 83.0935 12.9784 83.1356H13.6231C13.7492 83.1356 13.8193 83.1356 13.8193 83.2337C13.8193 83.3318 13.7352 83.3598 13.5811 83.3598H12.0674H11.9553H10.0632C9.89499 83.3598 9.8109 83.3178 9.8109 83.2337C9.8109 83.2337 9.88098 83.1356 10.0071 83.1356H10.4696C10.6658 83.1356 10.778 82.8973 10.82 82.5329C10.862 82.1685 10.82 81.9582 10.82 81.4677C10.82 81.2715 10.82 81.0332 10.82 80.7389L10.8761 75.9876Z" fill="url(#paint7_linear_2160_2142)"></path>
  <path d="M16.9725 74.3618C16.9725 74.1516 17.0846 74.0535 17.1827 74.0535C17.2808 74.0535 17.393 74.1796 17.5191 74.4179L20.9249 81.2014L24.3166 74.3338C24.4147 74.1516 24.5128 74.0535 24.5829 74.0535C24.653 74.0535 24.7791 74.1796 24.8212 74.4179L25.9424 81.8461C26.0546 82.5749 26.2648 82.9674 26.5591 83.0655L27.0216 83.1636H27.344C27.4701 83.1636 27.5402 83.1636 27.5402 83.2477C27.5402 83.3317 27.4281 83.3878 27.2038 83.3878H26.0125H24.681C24.5835 83.4026 24.4843 83.4026 24.3867 83.3878C24.3669 83.3845 24.349 83.3742 24.3361 83.3587C24.3233 83.3433 24.3163 83.3238 24.3166 83.3037C24.3166 83.3037 24.3166 83.2196 24.4568 83.1776C24.5969 83.1355 24.5689 82.9674 24.4568 82.659L23.714 77.3752L20.995 82.8272C20.9065 83.0145 20.8083 83.1969 20.7006 83.3738C20.6446 83.4579 20.5885 83.5 20.5324 83.5C20.4624 83.5 20.3222 83.3037 20.098 82.8973C19.9999 82.7431 19.9017 82.5329 19.7756 82.2806L18.9066 80.6688C18.7805 80.4165 18.6964 80.2484 18.6684 80.1643L17.3649 77.5013L16.7202 82.2806C16.7202 82.5049 16.7202 82.687 16.7202 82.8552C16.7202 83.0234 16.8463 83.1776 17.0846 83.2337C17.2616 83.2529 17.4402 83.2529 17.6172 83.2337C17.7433 83.2337 17.7994 83.2337 17.7994 83.3178C17.7994 83.4019 17.7013 83.4579 17.5051 83.4579H15.9494H15.669H14.8141C14.6599 83.4579 14.5898 83.4579 14.5898 83.3178C14.5898 83.1776 14.5898 83.2337 14.7861 83.2337H15.1645C15.2484 83.2079 15.3251 83.1627 15.3884 83.1019C15.4517 83.041 15.4998 82.9661 15.5289 82.8833C15.5289 82.7992 15.5569 82.701 15.613 82.5889C15.6221 82.4863 15.6221 82.3832 15.613 82.2806L16.9725 74.3618Z" fill="url(#paint8_linear_2160_2142)"></path>
  <path d="M34.2959 74.9926H32.4318C31.7871 74.9926 31.3806 75.1327 31.2265 75.343C31.1332 75.4703 31.0621 75.6124 31.0162 75.7634C31.0162 75.8615 31.0162 75.9036 30.8761 75.9036C30.7359 75.9036 30.764 75.9036 30.764 75.7214C30.7558 75.6234 30.7558 75.525 30.764 75.4271C30.764 75.3149 30.764 75.1608 30.848 74.9785C30.9321 74.7963 30.9602 74.432 30.9882 74.3338C31.0162 74.2357 31.0723 74.0956 31.1424 74.0956H31.2265H31.3246C31.3752 74.108 31.4281 74.108 31.4787 74.0956C31.5439 74.1035 31.6098 74.1035 31.675 74.0956C32.0905 74.1172 32.5068 74.1172 32.9223 74.0956H37.8558C38.0284 74.1099 38.2018 74.1099 38.3744 74.0956H38.5566L39.0611 74.0115C39.1312 74.0115 39.1592 74.0956 39.1592 74.2638V75.6653C39.1592 75.7915 39.1592 75.8615 39.0471 75.8615C38.935 75.8615 38.921 75.7775 38.921 75.6233V75.4831C38.9083 75.3894 38.872 75.3004 38.8157 75.2244C38.7593 75.1484 38.6847 75.088 38.5986 75.0487C38.2403 74.8779 37.846 74.7962 37.4493 74.8104H35.8796V80.5287C35.8796 80.809 35.8796 81.0473 35.8796 81.2295C35.86 81.5843 35.86 81.9399 35.8796 82.2947C35.8796 82.7011 36.0899 82.9254 36.3702 82.9534H37.0009C37.141 82.9534 37.1971 82.9534 37.1971 83.0515C37.1971 83.1496 37.1971 83.1776 36.9588 83.1776H35.4591H35.347H33.4269C33.2587 83.1776 33.1746 83.1356 33.1746 83.0515C33.1746 83.0515 33.1746 82.9534 33.3849 82.9534C33.534 82.9672 33.6842 82.9672 33.8334 82.9534C34.0296 82.9534 34.1557 82.6871 34.1978 82.2947C34.2398 81.9022 34.1978 81.706 34.1978 81.2295V74.8104L34.2959 74.9926Z" fill="url(#paint9_linear_2160_2142)"></path>
  <path d="M42.005 80.3325C42.005 80.3325 41.9209 80.3325 41.8929 80.4306L41.2201 82.1405C41.1093 82.3738 41.0428 82.6257 41.0239 82.8833C41.0239 83.1216 41.1921 83.2477 41.5285 83.2477H41.7107C41.8368 83.2477 41.8929 83.2477 41.8929 83.3458C41.8929 83.4439 41.8929 83.4719 41.6967 83.4719H40.169H39.8186H38.8936C38.7394 83.4719 38.6553 83.4719 38.6553 83.3458C38.6553 83.2197 38.6553 83.2477 38.8094 83.2477H39.1879C39.4437 83.218 39.679 83.0928 39.8466 82.8973C40.0189 82.6717 40.156 82.4212 40.253 82.1545L43.3925 74.6142C43.5327 74.2918 43.6448 74.1376 43.7429 74.1376C43.841 74.1376 43.9391 74.2638 44.0513 74.516C44.1634 74.7683 44.2755 75.0486 44.5558 75.6933L46.3778 80.0802C46.7002 80.8931 46.9665 81.4817 47.1487 81.9022C47.2895 82.2825 47.4985 82.634 47.7654 82.9393C47.8404 83.0252 47.9307 83.0965 48.0317 83.1496L48.2419 83.2197C48.4145 83.2341 48.5879 83.2341 48.7605 83.2197C48.8726 83.2197 48.9287 83.2197 48.9287 83.3178C48.9287 83.4159 48.7325 83.4439 48.354 83.4439H45.9153H45.7191C45.649 83.4439 45.621 83.4439 45.621 83.4439C45.621 83.4439 45.621 83.3458 45.7892 83.3318C45.8402 83.3204 45.8852 83.2904 45.9153 83.2477C45.9291 83.1877 45.9291 83.1255 45.9153 83.0655L44.9062 80.5147C44.9062 80.5147 44.9062 80.4306 44.7941 80.4306L42.005 80.3325ZM44.1213 71.769L44.3736 71.9512L44.8361 72.3016L45.607 72.8622C45.7191 72.937 45.7752 72.993 45.7752 73.0304C45.7838 73.0478 45.7883 73.067 45.7883 73.0864C45.7883 73.1059 45.7838 73.1251 45.7752 73.1425L45.4108 73.4929C45.372 73.5395 45.3168 73.5696 45.2566 73.577C45.2566 73.577 45.1585 73.577 45.0604 73.4508C44.879 73.266 44.6821 73.0972 44.4717 72.9463C44.2195 72.7361 44.0513 72.6099 43.9672 72.5539C43.9167 72.5402 43.8635 72.5402 43.813 72.5539C43.7483 72.5403 43.6815 72.5403 43.6168 72.5539C43.394 72.6713 43.1787 72.8024 42.9721 72.9463C42.7385 73.0966 42.5138 73.2603 42.2993 73.4368C42.2323 73.5092 42.1439 73.5584 42.0471 73.577C42.0318 73.5794 42.0162 73.5781 42.0015 73.5733C41.9868 73.5685 41.9734 73.5604 41.9625 73.5494C41.9515 73.5385 41.9433 73.5252 41.9386 73.5105C41.9338 73.4958 41.9325 73.4801 41.9349 73.4649C41.9349 73.4649 41.9349 73.3668 42.0471 73.2827L42.8599 72.5258L43.3785 72.0633L43.6869 71.783C43.7568 71.707 43.8509 71.6575 43.9531 71.6428C44.0112 71.6549 44.0677 71.6737 44.1213 71.6989V71.769ZM44.5558 79.7298L43.4346 76.7585C43.4346 76.6884 43.4346 76.6604 43.4346 76.6604C43.4346 76.6604 43.4346 76.6604 43.3645 76.7585L42.2152 79.7158V79.7999L44.5558 79.7298Z" fill="url(#paint10_linear_2160_2142)"></path>
  <path d="M50.7087 74.3618C50.7087 74.1516 50.8208 74.0535 50.9189 74.0535C51.017 74.0535 51.1291 74.1796 51.2553 74.4179L54.661 81.2014L58.0528 74.3338C58.1509 74.1516 58.249 74.0535 58.3331 74.0535C58.4172 74.0535 58.5153 74.1796 58.5574 74.4179L59.6926 81.8461C59.7907 82.5749 60.0009 82.9674 60.2953 83.0655L60.7578 83.1636H61.0801C61.2063 83.1636 61.2764 83.1636 61.2764 83.2477C61.2764 83.3317 61.1642 83.3878 60.954 83.3878H59.7487H58.4172C58.3196 83.4026 58.2204 83.4026 58.1229 83.3878C58.1031 83.3845 58.0851 83.3742 58.0723 83.3587C58.0594 83.3433 58.0525 83.3238 58.0528 83.3037C58.0528 83.3037 58.0528 83.2196 58.1929 83.1776C58.3331 83.1355 58.3051 82.9674 58.1929 82.659L57.4501 77.3752L54.7311 82.8272C54.6487 83.0174 54.5502 83.2003 54.4368 83.3738C54.4368 83.4579 54.3387 83.5 54.2826 83.5C54.2266 83.5 54.0584 83.3037 53.8341 82.8973L53.5118 82.2806L52.6428 80.6688C52.5167 80.4165 52.4326 80.2484 52.4045 80.1643L51.1011 77.5013L50.4424 82.2806C50.4424 82.5049 50.4424 82.687 50.4424 82.8552C50.4424 83.0234 50.5685 83.1776 50.8068 83.2337C50.9838 83.2529 51.1623 83.2529 51.3393 83.2337C51.4655 83.2337 51.5216 83.2337 51.5216 83.3178C51.5216 83.4019 51.4234 83.4579 51.2272 83.4579H49.6855H49.5314H48.6764C48.5222 83.4579 48.4521 83.4579 48.4521 83.3178C48.4521 83.1776 48.4521 83.2337 48.6624 83.2337H49.0268C49.1107 83.2079 49.1874 83.1627 49.2507 83.1019C49.314 83.041 49.3621 82.9661 49.3912 82.8833C49.3912 82.7992 49.4192 82.701 49.4753 82.5889C49.4753 82.5048 49.4753 82.3927 49.5454 82.2806L50.7087 74.3618Z" fill="url(#paint11_linear_2160_2142)"></path>
  <path d="M68.4663 83.2617C67.7618 83.0657 67.1071 82.7217 66.5461 82.2526C66.0013 81.7922 65.5778 81.205 65.3128 80.5427C65.0995 79.9545 64.995 79.3323 65.0044 78.7067C64.9842 78.4735 64.9842 78.2391 65.0044 78.0059C65.0577 77.7157 65.1326 77.43 65.2287 77.151C65.3412 76.8393 65.4919 76.5427 65.6772 76.268C65.8772 75.9491 66.1228 75.661 66.406 75.413C66.8806 75.0065 67.4273 74.6927 68.0178 74.488C68.7739 74.2454 69.5643 74.1271 70.3583 74.1376C70.7087 74.1376 71.0311 74.1376 71.3394 74.1376L72.1664 74.2217H72.4887L73.1194 74.3338H73.4138C73.5259 74.3338 73.5959 74.3339 73.5959 74.474V74.6842V75.1327V76.1839C73.5959 76.296 73.5959 76.3801 73.5959 76.4362C73.5959 76.4922 73.5259 76.7025 73.4418 76.7025C73.3577 76.7025 73.3156 76.6184 73.3156 76.4502C73.3053 76.0307 73.1288 75.6325 72.8251 75.343C72.1041 74.8585 71.2551 74.5998 70.3864 74.5998C69.5177 74.5998 68.6687 74.8585 67.9477 75.343C67.5275 75.7232 67.2136 76.2062 67.0367 76.7445C66.8743 77.2947 66.7986 77.8669 66.8124 78.4404C66.8003 79.0806 66.9245 79.716 67.1768 80.3045C67.4002 80.8327 67.7293 81.3097 68.1439 81.706C68.8359 82.3861 69.7665 82.7684 70.7368 82.7712C71.1433 82.8185 71.5551 82.7833 71.9476 82.6677C72.3402 82.5521 72.7054 82.3585 73.0213 82.0985C73.2283 81.8731 73.3732 81.5978 73.4418 81.2996C73.4418 81.1454 73.5259 81.0613 73.61 81.0613C73.6941 81.0613 73.7221 81.1314 73.7221 81.2435C73.7221 81.3556 73.7221 81.5658 73.624 81.9443C73.5875 82.2477 73.5266 82.5477 73.4418 82.8413C73.4189 82.9207 73.3779 82.9937 73.3219 83.0545C73.266 83.1153 73.1966 83.1623 73.1194 83.1917C72.7909 83.2952 72.4528 83.3656 72.1103 83.4019C71.7007 83.447 71.289 83.4704 70.877 83.472C70.0674 83.5232 69.2547 83.4523 68.4663 83.2617Z" fill="url(#paint12_linear_2160_2142)"></path>
  <path d="M76.8468 80.3325C76.8468 80.3325 76.7627 80.3325 76.7347 80.4306L76.0619 82.1405C75.9511 82.3738 75.8846 82.6257 75.8657 82.8833C75.8657 83.1216 76.0339 83.2477 76.3702 83.2477H76.5665C76.6786 83.2477 76.7486 83.2477 76.7486 83.3458C76.7486 83.4439 76.6786 83.4719 76.5384 83.4719H75.0107H74.6603H73.7353C73.5811 83.4719 73.4971 83.4719 73.4971 83.3458C73.4971 83.2196 73.497 83.2477 73.6512 83.2477H74.0437C74.2945 83.2146 74.5242 83.0898 74.6884 82.8973C74.8607 82.6717 74.9977 82.4212 75.0948 82.1545L78.2343 74.6141C78.3745 74.2918 78.4866 74.1376 78.5847 74.1376C78.6828 74.1376 78.7809 74.2637 78.893 74.516C79.0051 74.7683 79.1313 75.0486 79.3976 75.6933L81.2196 80.0802C81.542 80.8931 81.8083 81.4817 81.9905 81.9022C82.1313 82.2825 82.3403 82.634 82.6072 82.9393C82.6852 83.022 82.7749 83.0929 82.8735 83.1496L83.0837 83.2197C83.2609 83.2347 83.4391 83.2347 83.6163 83.2197C83.7144 83.2197 83.7704 83.2197 83.7704 83.3178C83.7704 83.4159 83.5742 83.4439 83.1958 83.4439H80.7711H80.5609H80.4628C80.4628 83.4439 80.4628 83.3458 80.631 83.3318C80.682 83.3204 80.727 83.2904 80.7571 83.2477C80.7709 83.1877 80.7709 83.1255 80.7571 83.0655L79.748 80.5147C79.7416 80.49 79.727 80.4682 79.7067 80.4529C79.6863 80.4377 79.6613 80.4298 79.6359 80.4306L76.8468 80.3325ZM79.3976 79.7298L78.2764 76.7585C78.2764 76.6884 78.2764 76.6604 78.2764 76.6604C78.2764 76.6604 78.2763 76.6604 78.2063 76.7585L77.057 79.7158V79.7999L79.3976 79.7298ZM80.7992 72.4698C80.8174 72.5195 80.8174 72.5741 80.7992 72.6239H80.701H80.2806C79.8887 72.684 79.5038 72.7826 79.1313 72.9182C78.7948 73.0352 78.467 73.1757 78.1502 73.3387H78.0661C78.0545 73.3414 78.0424 73.3411 78.031 73.3378C78.0196 73.3345 78.0092 73.3284 78.0007 73.32C77.9923 73.3116 77.9862 73.3011 77.9829 73.2897C77.9796 73.2783 77.9793 73.2662 77.982 73.2546C77.982 73.2546 77.982 73.1705 78.0942 73.1004L78.5987 72.694L79.2154 72.2174C79.6779 71.8811 79.9722 71.6709 80.1124 71.5868L80.2666 71.5027H80.3647C80.3647 71.5027 80.4768 71.5027 80.5329 71.6428C80.6157 71.8914 80.6858 72.144 80.7431 72.3997L80.7992 72.4698Z" fill="url(#paint13_linear_2160_2142)"></path>
  <path d="M86.7415 74.9926H84.8634C84.2187 74.9926 83.8123 75.1327 83.6581 75.343C83.5713 75.4741 83.5007 75.6153 83.4479 75.7634C83.4479 75.8615 83.3778 75.9036 83.3077 75.9036C83.2377 75.9036 83.1956 75.9036 83.1956 75.7214C83.1874 75.6234 83.1874 75.525 83.1956 75.4271C83.1956 75.3149 83.1956 75.1608 83.2797 74.9785C83.3638 74.7963 83.3918 74.432 83.4198 74.3338C83.4479 74.2357 83.504 74.0956 83.574 74.0956H83.6581H83.7562C83.8068 74.108 83.8598 74.108 83.9104 74.0956H84.1066C84.5221 74.1172 84.9385 74.1172 85.354 74.0956H90.2875C90.46 74.1099 90.6335 74.1099 90.806 74.0956H90.9882L91.4928 74.0115C91.5629 74.0115 91.5909 74.0956 91.5909 74.2638V75.6653C91.5909 75.7915 91.5909 75.8615 91.4928 75.8615C91.3947 75.8615 91.3526 75.7775 91.3526 75.6233V75.4831C91.3426 75.3885 91.3075 75.2983 91.2508 75.2219C91.1941 75.1455 91.1179 75.0857 91.0303 75.0487C90.6719 74.8779 90.2777 74.7962 89.881 74.8104H88.3113V80.5287C88.3113 80.809 88.3113 81.0473 88.3113 81.2295C88.2917 81.5843 88.2917 81.9399 88.3113 82.2947C88.3113 82.7011 88.5215 82.9254 88.8018 82.9534H89.4325C89.5727 82.9534 89.6287 82.9534 89.6287 83.0515C89.6287 83.1496 89.5586 83.1776 89.4045 83.1776H87.8908H87.7787H85.8585C85.6904 83.1776 85.6203 83.1777 85.6203 83.0515C85.6203 82.9254 85.6203 82.9534 85.8165 82.9534C85.9657 82.9672 86.1158 82.9672 86.265 82.9534C86.4612 82.9534 86.5874 82.6871 86.6294 82.2947C86.6715 81.9022 86.6294 81.706 86.6294 81.2295C86.6294 81.0473 86.6294 80.809 86.6294 80.5287L86.7415 74.9926Z" fill="url(#paint14_linear_2160_2142)"></path>
  <defs>
    <linearGradient id="paint0_linear_2160_2142" x1="56.8942" y1="81.1921" x2="-13.1015" y2="77.0388" gradientUnits="userSpaceOnUse">
      <stop stop-color="#F9DF7B"></stop>
      <stop offset="1" stop-color="#B57E10"></stop>
    </linearGradient>
    <linearGradient id="paint1_linear_2160_2142" x1="56.721" y1="58.9204" x2="-12.024" y2="54.4109" gradientUnits="userSpaceOnUse">
      <stop stop-color="#F9DF7B"></stop>
      <stop offset="1" stop-color="#B57E10"></stop>
    </linearGradient>
    <linearGradient id="paint2_linear_2160_2142" x1="55.3984" y1="77.8213" x2="-4.50813" y2="70.7629" gradientUnits="userSpaceOnUse">
      <stop stop-color="#F9DF7B"></stop>
      <stop offset="1" stop-color="#B57E10"></stop>
    </linearGradient>
    <linearGradient id="paint3_linear_2160_2142" x1="46.2507" y1="16.8566" x2="42.0683" y2="16.7692" gradientUnits="userSpaceOnUse">
      <stop stop-color="#F9DF7B"></stop>
      <stop offset="1" stop-color="#B57E10"></stop>
    </linearGradient>
    <linearGradient id="paint4_linear_2160_2142" x1="53.9348" y1="24.7072" x2="51.0833" y2="24.6461" gradientUnits="userSpaceOnUse">
      <stop stop-color="#F9DF7B"></stop>
      <stop offset="1" stop-color="#B57E10"></stop>
    </linearGradient>
    <linearGradient id="paint5_linear_2160_2142" x1="38.1499" y1="24.7072" x2="35.3126" y2="24.6467" gradientUnits="userSpaceOnUse">
      <stop stop-color="#F9DF7B"></stop>
      <stop offset="1" stop-color="#B57E10"></stop>
    </linearGradient>
    <linearGradient id="paint6_linear_2160_2142" x1="6.54143" y1="88.0324" x2="-3.21678" y2="87.6464" gradientUnits="userSpaceOnUse">
      <stop stop-color="#F9DF7B"></stop>
      <stop offset="1" stop-color="#B57E10"></stop>
    </linearGradient>
    <linearGradient id="paint7_linear_2160_2142" x1="12.4493" y1="88.0318" x2="8.48738" y2="87.9681" gradientUnits="userSpaceOnUse">
      <stop stop-color="#F9DF7B"></stop>
      <stop offset="1" stop-color="#B57E10"></stop>
    </linearGradient>
    <linearGradient id="paint8_linear_2160_2142" x1="23.1293" y1="88.4049" x2="10.4016" y2="87.7768" gradientUnits="userSpaceOnUse">
      <stop stop-color="#F9DF7B"></stop>
      <stop offset="1" stop-color="#B57E10"></stop>
    </linearGradient>
    <linearGradient id="paint9_linear_2160_2142" x1="36.2977" y1="87.937" x2="28.0296" y2="87.6642" gradientUnits="userSpaceOnUse">
      <stop stop-color="#F9DF7B"></stop>
      <stop offset="1" stop-color="#B57E10"></stop>
    </linearGradient>
    <linearGradient id="paint10_linear_2160_2142" x1="45.4296" y1="89.614" x2="35.3181" y2="89.2979" gradientUnits="userSpaceOnUse">
      <stop stop-color="#F9DF7B"></stop>
      <stop offset="1" stop-color="#B57E10"></stop>
    </linearGradient>
    <linearGradient id="paint11_linear_2160_2142" x1="56.9085" y1="88.4049" x2="44.3041" y2="87.789" gradientUnits="userSpaceOnUse">
      <stop stop-color="#F9DF7B"></stop>
      <stop offset="1" stop-color="#B57E10"></stop>
    </linearGradient>
    <linearGradient id="paint12_linear_2160_2142" x1="70.7477" y1="88.3435" x2="62.1538" y2="88.0546" gradientUnits="userSpaceOnUse">
      <stop stop-color="#F9DF7B"></stop>
      <stop offset="1" stop-color="#B57E10"></stop>
    </linearGradient>
    <linearGradient id="paint13_linear_2160_2142" x1="80.2713" y1="89.6867" x2="70.1596" y2="89.3743" gradientUnits="userSpaceOnUse">
      <stop stop-color="#F9DF7B"></stop>
      <stop offset="1" stop-color="#B57E10"></stop>
    </linearGradient>
    <linearGradient id="paint14_linear_2160_2142" x1="88.7294" y1="87.937" x2="80.4612" y2="87.6642" gradientUnits="userSpaceOnUse">
      <stop stop-color="#F9DF7B"></stop>
      <stop offset="1" stop-color="#B57E10"></stop>
    </linearGradient>
  </defs>
</svg>
