<?xml version="1.0" encoding="UTF-8"?>
<svg xmlns="http://www.w3.org/2000/svg" width="128" height="89" viewBox="0 0 128 89" fill="none">
  <path d="M112.843 26.9927C110.547 24.0664 106.821 22.5023 102.994 22.5023C96.1042 22.5023 91.4602 27.4972 91.4602 33.8543C91.4602 40.2115 96.1553 45.0046 103.147 45.0046C110.139 45.0046 110.496 43.3396 112.843 40.6656V53.4303C109.118 54.5403 106.413 55.3475 102.943 55.3475C96.9208 55.3475 91.205 53.178 86.714 49.2931C81.9679 45.2064 79.7734 39.9088 79.7734 33.8039C79.7734 27.699 82.0189 22.805 86.1527 18.8192C90.3885 14.682 96.5125 12.2098 102.586 12.2098C108.659 12.2098 109.526 12.9666 112.843 14.2784V27.0431V26.9927Z" fill="#202970"></path>
  <path d="M76.3033 14.5811V15.1865H43.1313V28.6576H52.3684V53.6321H66.3006V28.6576H75.6909V14.5811H76.3033V15.1865V14.5811H76.9667V29.9189H67.5765V54.8934H51.0926V29.9189H41.8555V13.9252H76.9667V14.5811H76.3033Z" fill="#B63D32"></path>
  <path d="M45.7336 54.9943H13.5312V11.4025H31.6993V41.5737L45.7336 41.4223V54.9943ZM15.0623 53.4807H44.2025V42.9359L30.1683 43.0873V12.9161H15.0623V53.4807Z" fill="#202970"></path>
  <path d="M9.70337 62.0074H117.078L121.518 34.3589L117.078 5.49945H9.70337L5.67171 34.3589L9.70337 62.0074ZM118.711 63.9246H8.01926L3.73242 34.4093L8.01926 3.58221H118.711L123.458 34.3589V34.5102L118.711 63.8742V63.9246Z" fill="#202970"></path>
  <path d="M6.64238 65.1859H120.039L124.735 34.3588L120.039 2.11905H6.64238L2.40658 34.3588L6.64238 65.1859ZM121.775 67.305H4.90724L0.365234 34.3588L4.8562 0H121.724L126.725 34.3588V34.5102L121.724 67.305H121.775Z" fill="#202970"></path>
  <path d="M6.43632 75.7307C6.43632 76.7902 6.48735 77.3452 6.58942 77.4461C6.64045 77.4966 6.74252 77.547 6.89562 77.5975C7.04872 77.5975 7.25286 77.5975 7.55906 77.5975C7.86526 77.5975 8.01836 77.5975 8.12043 77.5975C8.27353 77.5975 8.42664 77.4966 8.5287 77.3956C8.63077 77.2443 8.73284 77.0929 8.73284 76.9416C8.73284 76.8407 8.73284 76.8407 8.83491 76.8407C8.93697 76.8407 8.88594 76.8407 8.88594 76.992C8.88594 77.1434 8.88594 77.1938 8.88594 77.3956V77.6984C8.8349 77.7993 8.83491 77.9002 8.78387 77.9506C8.78387 78.0515 8.73284 78.102 8.6818 78.102C8.63077 78.102 8.47767 78.102 8.27354 78.102C8.0694 78.102 7.7632 78.102 7.50803 78.102H6.89562C6.53838 78.102 6.23219 78.102 5.92598 78.102H5.72185C5.61978 78.102 5.51771 78.102 5.46668 78.102H4.90531C4.80324 78.102 4.7522 78.102 4.7522 78.0515C4.7522 78.0011 4.75221 78.0011 4.90531 78.0011C5.05841 78.0011 5.10944 78.0011 5.21151 78.0011C5.31358 78.0011 5.41564 77.8497 5.46668 77.547C5.46668 77.3956 5.46668 77.1434 5.46668 76.8407C5.46668 76.6893 5.46668 76.5379 5.46668 76.3866V72.8044C5.46668 72.5521 5.31357 72.4007 5.10944 72.3503C5.05841 72.3503 4.95634 72.3503 4.85427 72.3503C4.7522 72.3503 4.70117 72.3503 4.70117 72.2998C4.70117 72.2494 4.7522 72.2494 4.85427 72.2494H6.18115C6.18115 72.2494 6.28322 72.2494 6.33425 72.2494H7.09976C7.20182 72.2494 7.25286 72.2494 7.25286 72.2998C7.25286 72.3503 7.25286 72.3503 7.09976 72.3503C6.94666 72.3503 6.89562 72.3503 6.79356 72.3503C6.58942 72.3503 6.53839 72.5521 6.48735 72.8044V73.3089V75.882L6.43632 75.7307Z" fill="#202970"></path>
  <path d="M11.0811 77.9002C10.6728 77.7489 10.3666 77.4966 10.0604 77.1434C9.80526 76.8407 9.60113 76.538 9.49906 76.1344C9.39699 75.7812 9.29492 75.428 9.29492 75.0748C9.29492 74.7217 9.34595 74.3685 9.44802 74.0153C9.60112 73.6117 9.75423 73.309 10.0094 73.0062C10.3156 72.7035 10.6218 72.4512 11.0301 72.2494C11.4894 72.0476 11.9997 71.9467 12.5611 71.9467C13.5818 71.9467 14.3473 72.199 14.9086 72.754C15.47 73.309 15.7762 74.0153 15.7762 74.9235C15.7762 75.8316 15.47 76.6389 14.8576 77.2443C14.2452 77.9002 13.4287 78.2029 12.408 78.2029C11.3873 78.2029 11.3873 78.102 10.928 77.9002H11.0811ZM13.4287 77.6984C13.6838 77.648 13.8369 77.4966 14.0411 77.3452C14.2452 77.1434 14.4493 76.8912 14.5514 76.5884C14.7045 76.2353 14.7555 75.7812 14.7555 75.2262C14.7555 74.3685 14.5514 73.6621 14.0921 73.1071C13.6328 72.6026 13.0714 72.3503 12.408 72.3503C11.7445 72.3503 11.9487 72.3503 11.6935 72.4513C11.4383 72.5522 11.2342 72.6531 11.0811 72.8549C10.928 73.0567 10.7239 73.309 10.6218 73.6117C10.5197 73.9649 10.4687 74.3685 10.4687 74.8226C10.4687 75.6803 10.6728 76.3866 11.1321 76.9416C11.5914 77.4966 12.2038 77.7993 12.9183 77.7993C13.6328 77.7993 13.2756 77.7993 13.4287 77.6984Z" fill="#202970"></path>
  <path d="M17.5613 76.9921C17.5613 77.4966 17.6633 77.7993 17.8675 77.8498C17.9695 77.8498 18.1226 77.9002 18.2757 77.9002C18.4288 77.9002 18.4288 77.9002 18.4288 77.9507C18.4288 78.0011 18.3778 78.0516 18.2247 78.0516H17.4082H16.9488C16.7447 78.0516 16.5406 78.0516 16.3875 78.0516C16.2344 78.0516 16.2344 78.0516 16.2344 77.9507C16.2344 77.8498 16.2344 77.9002 16.3875 77.9002C16.5406 77.9002 16.6426 77.9002 16.7447 77.9002C16.8978 77.9002 16.9999 77.547 16.9999 76.8912V72.199C17.0509 71.9972 17.102 71.9467 17.153 71.9467C17.204 71.9467 17.2551 71.9467 17.3061 71.9972C17.3061 71.9972 17.3061 71.9972 17.4082 72.0981L18.3268 73.0567L21.0315 75.7812L21.1846 75.9325C21.1846 75.9325 21.2357 75.9325 21.2357 75.983L21.695 76.4875L21.5929 72.9053C21.5929 72.5017 21.4909 72.2494 21.3378 72.199C21.2867 72.199 21.2357 72.199 21.1336 72.199C21.1336 72.199 21.0826 72.199 21.0315 72.199H20.9295C20.8274 72.199 20.8274 72.199 20.8274 72.1485C20.8274 72.0981 20.8784 72.0981 21.0315 72.0981C21.1846 72.0981 21.3888 72.0981 21.5929 72.0981C21.5929 72.0981 21.5929 72.0981 21.644 72.0981H22.0522C22.0522 72.0981 22.1033 72.0981 22.1543 72.0981C22.3584 72.0981 22.5115 72.0981 22.6646 72.0981C22.8177 72.0981 22.8688 72.0981 22.8688 72.1485C22.8688 72.199 22.8688 72.199 22.7157 72.199C22.5626 72.199 22.5626 72.199 22.4605 72.199C22.2564 72.2494 22.1543 72.4512 22.1543 72.8549L22.0522 77.8498C22.0522 78.0011 22.0522 78.102 21.9502 78.102C21.8481 78.102 21.7971 78.0516 21.695 77.9507C21.5929 77.8498 21.4398 77.6984 21.2357 77.4966L19.3474 75.6298C19.1433 75.428 18.9392 75.2262 18.684 74.9739L17.4082 73.6117L17.5102 76.9416L17.5613 76.9921Z" fill="#202970"></path>
  <path d="M29.6574 77.547C29.6574 77.6984 29.6574 77.7993 29.5554 77.8497C29.3002 78.0011 28.994 78.0516 28.6368 78.102C28.3306 78.1525 27.9733 78.2029 27.6161 78.2029C26.5444 78.2029 25.6768 77.9506 25.0134 77.4461C24.6561 77.1938 24.401 76.8911 24.1968 76.4875C23.9927 76.0839 23.8906 75.5793 23.8906 75.0748C23.8906 74.5703 24.0437 73.9144 24.2989 73.4603C24.5541 73.0567 24.8603 72.7035 25.2685 72.4512C25.6258 72.2494 25.983 72.098 26.3913 72.0476C26.5444 72.0476 26.7485 71.9971 26.9016 71.9971C27.0547 71.9971 27.2078 71.9971 27.412 71.9971C27.6161 71.9971 27.9223 71.9971 28.2795 71.9971C28.5347 71.9971 28.7388 72.0476 28.8409 72.098C28.943 72.098 29.045 72.098 29.1471 72.1485C29.3002 72.1485 29.4023 72.1485 29.4533 72.1485C29.4533 72.1485 29.5043 72.1485 29.5554 72.1485C29.5554 72.1485 29.5554 72.1485 29.5554 72.199V72.4008V72.5017C29.5554 72.6026 29.5554 72.7539 29.5554 72.9053C29.5554 73.1071 29.5554 73.3089 29.5554 73.5107C29.5554 73.7126 29.5554 73.6621 29.4533 73.6621C29.3512 73.6621 29.4023 73.6621 29.3512 73.5612V73.4098C29.3512 73.3594 29.3512 73.3089 29.3002 73.2585C29.3002 73.1071 29.1981 73.0062 29.0961 72.9053C28.943 72.7539 28.7388 72.6026 28.4326 72.5017C28.0754 72.3503 27.7182 72.2999 27.3099 72.2999C26.9016 72.2999 27.0547 72.2999 26.9527 72.2999C26.7995 72.2999 26.6975 72.2999 26.5444 72.3503C26.2382 72.4008 25.932 72.5521 25.6768 72.7539C25.4216 72.9557 25.2685 73.208 25.1154 73.5107C24.9623 73.8639 24.9113 74.2171 24.9113 74.7216C24.9113 75.5793 25.1665 76.2857 25.6768 76.8407C26.1871 77.3957 26.8506 77.6984 27.7182 77.6984H27.8713C27.9223 77.6984 27.9733 77.6984 28.0244 77.6984C28.1775 77.6984 28.2795 77.6984 28.3816 77.5975C28.4837 77.5975 28.5347 77.4461 28.5347 77.2948V76.0334C28.5347 75.8821 28.5347 75.7307 28.5347 75.6298C28.5347 75.3775 28.4326 75.2262 28.1775 75.1757C28.1264 75.1757 28.0244 75.1757 27.8713 75.1757C27.7182 75.1757 27.7692 75.1757 27.7692 75.1252C27.7692 75.0748 27.8202 75.0243 27.9223 75.0243H29.3002C29.3002 75.0243 29.4533 75.0243 29.5554 75.0243H30.0147C30.1167 75.0243 30.1678 75.0243 30.1678 75.0748C30.1678 75.1253 30.1678 75.1252 30.0657 75.1252C29.9636 75.1252 29.9636 75.1252 29.8616 75.1252C29.6574 75.1252 29.5554 75.3271 29.5554 75.5793C29.5554 75.6802 29.5554 75.8316 29.5554 75.983V77.3957L29.6574 77.547Z" fill="#202970"></path>
  <path d="M35.1687 72.5017H33.9438C33.5356 72.5017 33.2804 72.6026 33.1783 72.754C33.1273 72.8549 33.0763 72.9558 33.0252 73.0567C33.0252 73.1071 33.0252 73.1576 32.9232 73.1576C32.8211 73.1576 32.8721 73.1576 32.8721 73.0567C32.8721 72.9558 32.8721 72.9558 32.8721 72.8549C32.8721 72.8044 32.8721 72.7035 32.9232 72.5522C32.9232 72.3503 32.9742 72.199 33.0252 72.0981C33.0252 71.9972 33.0763 71.9467 33.1273 71.9467C33.1783 71.9467 33.1273 71.9467 33.1783 71.9467H33.2294C33.2294 71.9467 33.2804 71.9972 33.3314 71.9972C33.3314 71.9972 33.4335 71.9972 33.4845 71.9972C33.7397 71.9972 33.9949 71.9972 34.3011 71.9972H37.4652C37.5672 71.9972 37.6693 71.9972 37.7714 71.9972H37.8734H38.1796C38.1796 71.9467 38.2307 71.9972 38.2307 72.0981V73.0062C38.2307 73.1071 38.1796 73.1576 38.1286 73.1576C38.0776 73.1576 38.0265 73.1071 38.0265 73.0062V72.9053C38.0265 72.8044 37.9245 72.7035 37.8224 72.6026C37.6693 72.5017 37.4141 72.4513 37.1079 72.4513H36.0873V76.1848C36.0873 76.3866 36.0873 76.538 36.0873 76.6389C36.0873 76.9416 36.0873 77.1939 36.0873 77.3452C36.0873 77.5975 36.2404 77.7489 36.3935 77.7993C36.5466 77.7993 36.6997 77.7993 36.8017 77.7993C36.9038 77.7993 36.9548 77.7993 36.9548 77.8498C36.9548 77.9002 36.9038 77.9507 36.8017 77.9507H35.8321C35.8321 77.9507 35.8321 77.9507 35.7811 77.9507H34.5562C34.4542 77.9507 34.4031 77.9507 34.4031 77.9002C34.4031 77.8498 34.4031 77.8498 34.5562 77.8498C34.7093 77.8498 34.7604 77.8498 34.8624 77.8498C35.0156 77.8498 35.0666 77.6984 35.1176 77.3957C35.1176 77.2443 35.1176 76.9921 35.1176 76.6893C35.1176 76.538 35.1176 76.3866 35.1176 76.2353V72.4513L35.1687 72.5017Z" fill="#202970"></path>
  <path d="M39.8634 73.1576V72.6531C39.8634 72.4008 39.7103 72.2495 39.5062 72.199C39.4551 72.199 39.3531 72.199 39.2 72.199C39.0469 72.199 39.0469 72.199 39.0469 72.1485C39.0469 72.0981 39.0979 72.0981 39.2 72.0981H40.0676C40.0676 72.0981 40.0676 72.0981 40.1186 72.0981H41.4455C41.7517 72.0981 42.0068 72.0981 42.211 72.0981C42.4661 72.1485 42.7213 72.2494 42.9254 72.4008C43.0785 72.5017 43.1806 72.6026 43.2827 72.8044C43.3847 73.0063 43.4868 73.2585 43.4868 73.5108C43.4868 73.7631 43.4358 74.1162 43.2827 74.3685C43.1296 74.6712 42.8234 74.9739 42.4661 75.2767L43.4358 76.4875C43.742 76.8912 43.9972 77.1939 44.2013 77.3957C44.4054 77.5975 44.5585 77.7489 44.7627 77.8498C44.7627 77.8498 44.8137 77.8498 44.8647 77.8498C44.8647 77.8498 44.9158 77.8498 44.9668 77.8498C44.9668 77.8498 44.9668 77.8498 45.0178 77.8498H45.0689C45.1709 77.8498 45.222 77.8498 45.273 77.8498C45.324 77.8498 45.3751 77.8498 45.3751 77.9002C45.3751 77.9507 45.324 78.0012 45.222 78.0012H44.4565C44.0482 78.0012 43.793 77.9507 43.5889 77.8498C43.4358 77.7489 43.2827 77.648 43.0785 77.4462C42.9254 77.2948 42.7213 77.0425 42.5172 76.6894L41.7006 75.5794C41.7006 75.5794 41.5986 75.5289 41.5475 75.5289H40.8331C40.8331 75.5289 40.782 75.5289 40.782 75.5794V76.2353C40.782 76.4371 40.782 76.5884 40.782 76.6894C40.782 76.9921 40.782 77.2443 40.782 77.3957C40.782 77.648 40.9351 77.7993 41.0882 77.8498C41.2413 77.8498 41.3944 77.8498 41.4965 77.8498C41.5986 77.8498 41.5986 77.8498 41.5986 77.9002C41.5986 77.9507 41.5475 78.0012 41.4455 78.0012H40.4758C40.4758 78.0012 40.4758 78.0012 40.4248 78.0012H39.251C39.1489 78.0012 39.0979 78.0011 39.0979 77.9507C39.0979 77.9002 39.0979 77.9002 39.2 77.9002C39.302 77.9002 39.4041 77.9002 39.5062 77.9002C39.6083 77.9002 39.7103 77.7489 39.7614 77.4462C39.7614 77.2948 39.7614 77.0425 39.7614 76.7398C39.7614 76.5885 39.7614 76.4371 39.7614 76.2857V73.1576H39.8634ZM40.8331 74.9739C40.8331 75.0244 40.8331 75.0748 40.8841 75.1253C41.0372 75.1757 41.2413 75.2262 41.4965 75.2262C41.7517 75.2262 41.9558 75.2262 42.0579 75.0748C42.211 74.9739 42.313 74.8226 42.3641 74.6712C42.4661 74.4694 42.5172 74.2171 42.5172 73.9144C42.5172 73.6117 42.5172 73.4099 42.3641 73.2081C42.313 73.0567 42.211 72.9053 42.0579 72.754C41.8027 72.5522 41.5475 72.4513 41.2413 72.4513C40.9351 72.4513 40.8841 72.4513 40.8331 72.4513C40.8331 72.4513 40.782 72.5017 40.782 72.5522V74.9739H40.8331Z" fill="#202970"></path>
  <path d="M45.6818 73.1576V72.653C45.6818 72.4008 45.5287 72.2494 45.3245 72.199C45.2735 72.199 45.1714 72.199 45.0183 72.199C44.8652 72.199 44.8652 72.199 44.8652 72.1485C44.8652 72.0981 44.9163 72.0981 45.0183 72.0981H46.3962C46.3962 72.0981 46.4983 72.0981 46.5493 72.0981H47.2128C47.3149 72.0981 47.3659 72.0981 47.3659 72.1485C47.3659 72.199 47.3659 72.199 47.2128 72.199C47.0597 72.199 47.0597 72.199 46.9576 72.199C46.7535 72.199 46.6514 72.4008 46.6514 72.653V73.1576V75.4784C46.6514 76.0334 46.7024 76.4371 46.8045 76.7902C46.9066 77.0425 47.0597 77.2948 47.2638 77.4461C47.4169 77.5975 47.6211 77.6479 47.8252 77.6984C47.9783 77.6984 48.1314 77.7489 48.2845 77.7489C48.4376 77.7489 48.6928 77.7488 48.8459 77.6479C49.05 77.5975 49.2541 77.4461 49.4072 77.2948C49.6114 77.093 49.7645 76.8407 49.8155 76.4371C49.8155 76.2857 49.8155 76.0839 49.8665 75.8821C49.8665 75.7307 49.8665 75.5289 49.8665 75.2766V72.6026C49.8665 72.3503 49.7134 72.199 49.5093 72.1485C49.4583 72.1485 49.3562 72.1485 49.2031 72.1485C49.05 72.1485 49.05 72.1485 49.05 72.0981C49.05 72.0476 49.101 72.0476 49.2031 72.0476C49.3562 72.0476 49.5603 72.0476 49.8155 72.0476C49.8155 72.0476 49.9176 72.0476 49.9686 72.0476H50.2748C50.2748 72.0476 50.2748 72.0476 50.3258 72.0476H51.0403C51.1424 72.0476 51.1934 72.0476 51.1934 72.0981C51.1934 72.1485 51.1934 72.1485 51.0403 72.1485C50.8872 72.1485 50.8872 72.1485 50.7851 72.1485C50.581 72.1485 50.53 72.3503 50.4789 72.6026V73.1071V75.1757C50.4789 75.428 50.4789 75.6298 50.4789 75.8316C50.4789 76.0839 50.4279 76.2857 50.3769 76.4875C50.2748 76.9416 50.0196 77.2948 49.7645 77.547C49.5093 77.7489 49.2031 77.9507 48.8969 78.0011C48.6417 78.0516 48.3866 78.102 48.0804 78.102H47.7231C47.57 78.102 47.4169 78.102 47.2638 78.0011C46.9066 77.9002 46.5493 77.7489 46.2942 77.547C46.09 77.3452 45.8859 77.093 45.7838 76.7902C45.6307 76.4371 45.5797 75.983 45.5797 75.428V73.0567L45.6818 73.1576Z" fill="#202970"></path>
  <path d="M53.6417 77.9002C53.2334 77.7489 52.9272 77.4966 52.621 77.1434C52.3658 76.8407 52.1617 76.538 52.0596 76.1344C51.9575 75.7812 51.8555 75.428 51.8555 75.0748C51.8555 74.7217 51.9065 74.3685 52.0086 74.0153C52.1617 73.6117 52.3148 73.309 52.5699 73.0062C52.8761 72.7035 53.1823 72.4512 53.5906 72.2494C54.0499 72.0476 54.5603 71.9467 55.1216 71.9467C56.1423 71.9467 56.9078 72.199 57.4692 72.754C58.0306 73.309 58.3368 74.0153 58.3368 74.9235C58.3368 75.8316 58.0306 76.6389 57.4181 77.2443C56.8057 77.9002 55.9892 78.2029 54.9685 78.2029C53.9478 78.2029 53.9479 78.102 53.4885 77.9002H53.6417ZM55.9892 77.6984C56.2444 77.648 56.3975 77.4966 56.6016 77.3452C56.8057 77.1434 57.0099 76.8912 57.1119 76.5884C57.265 76.2353 57.3161 75.7812 57.3161 75.2262C57.3161 74.3685 57.1119 73.6621 56.6526 73.1071C56.1933 72.6026 55.632 72.3503 54.9685 72.3503C54.3051 72.3503 54.5092 72.3503 54.2541 72.4513C53.9989 72.5522 53.7948 72.6531 53.6417 72.8549C53.4885 73.0567 53.2844 73.309 53.1823 73.6117C53.0803 73.9649 53.0292 74.3685 53.0292 74.8226C53.0292 75.6803 53.2334 76.3866 53.6927 76.9416C54.152 77.4966 54.7644 77.7993 55.4789 77.7993C56.1933 77.7993 55.8361 77.7993 55.9892 77.6984Z" fill="#202970"></path>
  <path d="M60.1238 76.9921C60.1238 77.4966 60.2258 77.7993 60.43 77.8498C60.532 77.8498 60.6851 77.9002 60.8382 77.9002C60.9913 77.9002 60.9913 77.9002 60.9913 77.9507C60.9913 78.0011 60.9403 78.0516 60.7872 78.0516H59.9707H59.5114C59.3072 78.0516 59.1031 78.0516 58.95 78.0516C58.7969 78.0516 58.7969 78.0516 58.7969 77.9507C58.7969 77.8498 58.7969 77.9002 58.95 77.9002C59.1031 77.9002 59.2051 77.9002 59.3072 77.9002C59.4603 77.9002 59.5624 77.547 59.5624 76.8912V72.199C59.6134 71.9972 59.6645 71.9467 59.7155 71.9467C59.7665 71.9467 59.8176 71.9467 59.8686 71.9972C59.8686 71.9972 59.8686 71.9972 59.9707 72.0981L60.8893 73.0567L63.5941 75.7812L63.7472 75.9325C63.7472 75.9325 63.7982 75.9325 63.7982 75.983L64.2575 76.4875L64.1554 72.9053C64.1554 72.5017 64.0534 72.2494 63.9003 72.199C63.8492 72.199 63.7982 72.199 63.6961 72.199C63.6961 72.199 63.6451 72.199 63.5941 72.199H63.492C63.3899 72.199 63.3899 72.199 63.3899 72.1485C63.3899 72.0981 63.441 72.0981 63.5941 72.0981C63.7472 72.0981 63.9513 72.0981 64.1554 72.0981C64.1554 72.0981 64.1554 72.0981 64.2065 72.0981H64.6147C64.6147 72.0981 64.6658 72.0981 64.7168 72.0981C64.9209 72.0981 65.074 72.0981 65.2271 72.0981C65.3802 72.0981 65.4313 72.0981 65.4313 72.1485C65.4313 72.199 65.4313 72.199 65.2782 72.199C65.1251 72.199 65.1251 72.199 65.023 72.199C64.8189 72.2494 64.7168 72.4512 64.7168 72.8549L64.6147 77.8498C64.6147 78.0011 64.6147 78.102 64.5127 78.102C64.4106 78.102 64.3596 78.0516 64.2575 77.9507C64.1554 77.8498 64.0023 77.6984 63.7982 77.4966L61.9099 75.6298C61.7058 75.428 61.5017 75.2262 61.2465 74.9739L59.9707 73.6117L60.0727 76.9416L60.1238 76.9921Z" fill="#202970"></path>
  <path d="M72.2707 77.547C72.2707 77.6984 72.2707 77.7993 72.1687 77.8497C71.9135 78.0011 71.6073 78.0516 71.25 78.102C70.9438 78.1525 70.5866 78.2029 70.2294 78.2029C69.1577 78.2029 68.2901 77.9506 67.6266 77.4461C67.2694 77.1938 67.0142 76.8911 66.8101 76.4875C66.606 76.0839 66.5039 75.5793 66.5039 75.0748C66.5039 74.5703 66.657 73.9144 66.9122 73.4603C67.1673 73.0567 67.4735 72.7035 67.8818 72.4512C68.2391 72.2494 68.5963 72.098 69.0046 72.0476C69.1577 72.0476 69.3618 71.9971 69.5149 71.9971C69.668 71.9971 69.8211 71.9971 70.0252 71.9971C70.2294 71.9971 70.5356 71.9971 70.8928 71.9971C71.148 71.9971 71.3521 72.0476 71.4542 72.098C71.5562 72.098 71.6583 72.098 71.7604 72.1485C71.9135 72.1485 72.0155 72.1485 72.0666 72.1485C72.0666 72.1485 72.1176 72.1485 72.1687 72.1485C72.1687 72.1485 72.1687 72.1485 72.1687 72.199V72.4008V72.5017C72.1687 72.6026 72.1687 72.7539 72.1687 72.9053C72.1687 73.1071 72.1687 73.3089 72.1687 73.5107C72.1687 73.7126 72.1687 73.6621 72.0666 73.6621C71.9645 73.6621 72.0156 73.6621 71.9645 73.5612V73.4098C71.9645 73.3594 71.9645 73.3089 71.9135 73.2585C71.9135 73.1071 71.8114 73.0062 71.7093 72.9053C71.5562 72.7539 71.3521 72.6026 71.0459 72.5017C70.6887 72.3503 70.3314 72.2999 69.9232 72.2999C69.5149 72.2999 69.668 72.2999 69.5659 72.2999C69.4128 72.2999 69.3108 72.2999 69.1577 72.3503C68.8515 72.4008 68.5453 72.5521 68.2901 72.7539C68.0349 72.9557 67.8818 73.208 67.7287 73.5107C67.5756 73.8639 67.5246 74.2171 67.5246 74.7216C67.5246 75.5793 67.7798 76.2857 68.2901 76.8407C68.8004 77.3957 69.4639 77.6984 70.3314 77.6984H70.4845C70.5356 77.6984 70.5866 77.6984 70.6376 77.6984C70.7907 77.6984 70.8928 77.6984 70.9949 77.5975C71.0969 77.5975 71.148 77.4461 71.148 77.2948V76.0334C71.148 75.8821 71.148 75.7307 71.148 75.6298C71.148 75.3775 71.0459 75.2262 70.7907 75.1757C70.7397 75.1757 70.6376 75.1757 70.4845 75.1757C70.3314 75.1757 70.3825 75.1757 70.3825 75.1252C70.3825 75.0748 70.4335 75.0243 70.5356 75.0243H71.9135C71.9135 75.0243 72.0666 75.0243 72.1687 75.0243H72.628C72.73 75.0243 72.7811 75.0243 72.7811 75.0748C72.7811 75.1253 72.7811 75.1252 72.679 75.1252C72.5769 75.1252 72.5769 75.1252 72.4749 75.1252C72.2707 75.1252 72.1687 75.3271 72.1687 75.5793C72.1687 75.6802 72.1687 75.8316 72.1687 75.983V77.3957L72.2707 77.547Z" fill="#202970"></path>
  <path d="M78.0365 77.9507C77.5772 77.7993 77.1689 77.5975 76.8117 77.2948C76.4545 76.9921 76.1993 76.5884 75.9951 76.1344C75.842 75.7812 75.791 75.3776 75.791 74.9235C75.791 74.4694 75.791 74.6208 75.791 74.4694C75.791 74.2676 75.8931 74.0658 75.9441 73.9144C75.9951 73.7126 76.0972 73.5108 76.2503 73.309C76.4034 73.1071 76.5565 72.9053 76.7096 72.754C77.0158 72.5017 77.3731 72.2494 77.7303 72.1485C78.1386 71.9972 78.6489 71.9467 79.2103 71.9467C79.7716 71.9467 79.6696 71.9467 79.8227 71.9467C79.9758 71.9467 80.1289 71.9467 80.333 71.9972H80.5371L80.9454 72.0981H81.1496C81.2516 72.0981 81.2516 72.1485 81.2516 72.199V72.3503C81.2516 72.4512 81.2516 72.5522 81.2516 72.6531C81.2516 72.7035 81.2516 72.8044 81.2516 72.8549V73.309C81.2516 73.3594 81.2516 73.4603 81.2516 73.4603C81.2516 73.5612 81.2516 73.6621 81.1496 73.6621C81.0475 73.6621 81.0475 73.6117 81.0475 73.5108C81.0475 73.208 80.9454 73.0062 80.7413 72.8044C80.4351 72.4512 79.8737 72.2999 79.1082 72.2999C78.3427 72.2999 77.9344 72.4512 77.5772 72.8044C77.322 73.0567 77.1179 73.3594 77.0158 73.763C76.9138 74.0658 76.8627 74.4694 76.8627 74.873C76.8627 75.2766 76.9648 75.7307 77.1179 76.1344C77.271 76.4875 77.4751 76.7902 77.7303 77.0425C78.2406 77.4966 78.802 77.7489 79.4144 77.7489C80.0268 77.7489 80.6392 77.5975 80.8944 77.2948C81.0475 77.1434 81.0985 76.9921 81.1496 76.7902C81.1496 76.6893 81.2006 76.6389 81.2516 76.6389C81.3027 76.6389 81.3027 76.6389 81.3027 76.7398C81.3027 76.8407 81.3027 76.9416 81.2516 77.1939C81.2516 77.4461 81.1496 77.648 81.1496 77.7993C81.1496 77.9002 81.0475 78.0011 80.9454 78.0516C80.7923 78.102 80.5882 78.1525 80.282 78.2029C80.0268 78.2029 79.7716 78.2029 79.4654 78.2029C78.9041 78.2029 78.3937 78.1525 77.9344 78.0011L78.0365 77.9507Z" fill="#202970"></path>
  <path d="M83.1915 73.1576V72.653C83.1915 72.4008 83.0384 72.2494 82.8343 72.199C82.7833 72.199 82.6812 72.199 82.5281 72.199C82.375 72.199 82.375 72.199 82.375 72.1485C82.375 72.0981 82.426 72.0981 82.5281 72.0981H83.7019H85.386H85.7432C85.8963 72.0981 86.0494 72.0981 86.1005 72.0476H86.2025V72.3503C86.2025 72.4008 86.1515 72.5017 86.1515 72.6026V73.0062C86.1515 73.0567 86.1515 73.1071 86.1515 73.1071C86.1515 73.1071 86.1515 73.1071 86.1515 73.1576C86.1515 73.1576 86.1515 73.1576 86.1005 73.1576C86.1005 73.1576 86.0494 73.1576 86.0494 73.0567C86.0494 72.9558 86.0494 72.9558 86.0494 72.9053C86.0494 72.8549 86.0494 72.8044 86.0494 72.754C86.0494 72.653 85.9474 72.6026 85.8963 72.5521C85.7943 72.5521 85.6922 72.4512 85.4881 72.4512C85.4881 72.4512 85.386 72.4512 85.2839 72.4512H84.9267H84.3653C84.3653 72.4512 84.3143 72.4512 84.3143 72.5521V74.5703C84.3143 74.6207 84.3143 74.6712 84.3653 74.6712H85.0287C85.1818 74.6712 85.335 74.6712 85.437 74.6712C85.5901 74.6712 85.6412 74.6712 85.6922 74.6712C85.8963 74.6712 85.9984 74.6207 86.1005 74.5703C86.1515 74.5198 86.2025 74.4694 86.2536 74.4694C86.3046 74.4694 86.3046 74.4694 86.3046 74.5198V74.8226C86.3046 74.9235 86.2536 74.9739 86.2536 75.0748V75.6298C86.2536 75.7307 86.2025 75.7812 86.1515 75.7812C86.1005 75.7812 86.1005 75.7812 86.1005 75.7307V75.5794C86.1005 75.5289 86.1005 75.4784 86.1005 75.428C86.1005 75.2262 85.8963 75.1253 85.6412 75.1253C85.6412 75.1253 85.5391 75.1253 85.437 75.1253C85.335 75.1253 85.2329 75.1253 85.0798 75.1253H84.4674C84.4674 75.1253 84.4674 75.1253 84.4674 75.1757V77.0425C84.4674 77.3452 84.5184 77.4966 84.6715 77.5975C84.7736 77.6984 85.0288 77.7489 85.437 77.7489H85.7943C85.9474 77.7489 86.1005 77.6984 86.1515 77.6479C86.3556 77.547 86.4577 77.3452 86.5087 77.0425C86.5087 76.9416 86.5087 76.9416 86.6108 76.9416C86.7129 76.9416 86.6618 76.9416 86.6618 77.093C86.6618 77.3957 86.6618 77.6984 86.5598 77.9507C86.5598 78.102 86.3556 78.1525 86.1005 78.1525C85.8453 78.1525 85.5901 78.1525 85.335 78.1525H84.7226C84.3653 78.1525 84.1101 78.1525 83.906 78.1525H83.7019C83.5998 78.1525 83.4977 78.1525 83.4467 78.1525H82.8853C82.7833 78.1525 82.7322 78.1525 82.7322 78.102C82.7322 78.0516 82.7322 78.0516 82.8343 78.0516C82.9364 78.0516 83.0384 78.0516 83.1405 78.0516C83.2426 78.0516 83.3446 77.9002 83.3957 77.5975C83.3957 77.4461 83.3957 77.1939 83.3957 76.8911C83.3957 76.7398 83.3957 76.5884 83.3957 76.4371V73.3089L83.1915 73.1576Z" fill="#202970"></path>
  <path d="M88.3458 73.1576V72.6531C88.3458 72.4008 88.1927 72.2495 87.9886 72.199C87.9376 72.199 87.8355 72.199 87.6824 72.199C87.5293 72.199 87.5293 72.199 87.5293 72.1485C87.5293 72.0981 87.5803 72.0981 87.6824 72.0981H88.55C88.55 72.0981 88.55 72.0981 88.601 72.0981H89.9279C90.2341 72.0981 90.4892 72.0981 90.6934 72.0981C90.9485 72.1485 91.2037 72.2494 91.4079 72.4008C91.561 72.5017 91.663 72.6026 91.7651 72.8044C91.8672 73.0063 91.9692 73.2585 91.9692 73.5108C91.9692 73.7631 91.9182 74.1162 91.7651 74.3685C91.612 74.6712 91.3058 74.9739 90.9485 75.2767L91.9182 76.4875C92.2244 76.8912 92.4796 77.1939 92.6837 77.3957C92.8878 77.5975 93.0409 77.7489 93.2451 77.8498C93.2451 77.8498 93.2961 77.8498 93.3471 77.8498C93.3471 77.8498 93.3982 77.8498 93.4492 77.8498C93.4492 77.8498 93.4492 77.8498 93.5002 77.8498H93.5513C93.6533 77.8498 93.7044 77.8498 93.7554 77.8498C93.8064 77.8498 93.8575 77.8498 93.8575 77.9002C93.8575 77.9507 93.8064 78.0012 93.7044 78.0012H92.9389C92.5306 78.0012 92.2754 77.9507 92.0713 77.8498C91.9182 77.7489 91.7651 77.648 91.561 77.4462C91.4079 77.2948 91.2037 77.0425 90.9996 76.6894L90.183 75.5794C90.183 75.5794 90.081 75.5289 90.0299 75.5289H89.3155C89.3155 75.5289 89.2644 75.5289 89.2644 75.5794V76.2353C89.2644 76.4371 89.2644 76.5884 89.2644 76.6894C89.2644 76.9921 89.2644 77.2443 89.2644 77.3957C89.2644 77.648 89.4175 77.7993 89.5706 77.8498C89.7237 77.8498 89.8768 77.8498 89.9789 77.8498C90.081 77.8498 90.081 77.8498 90.081 77.9002C90.081 77.9507 90.0299 78.0012 89.9279 78.0012H88.9582C88.9582 78.0012 88.9582 78.0012 88.9072 78.0012H87.7334C87.6314 78.0012 87.5803 78.0011 87.5803 77.9507C87.5803 77.9002 87.5803 77.9002 87.6824 77.9002C87.7845 77.9002 87.8865 77.9002 87.9886 77.9002C88.0907 77.9002 88.1927 77.7489 88.2438 77.4462C88.2438 77.2948 88.2438 77.0425 88.2438 76.7398C88.2438 76.5885 88.2438 76.4371 88.2438 76.2857V73.1576H88.3458ZM89.3155 74.9739C89.3155 75.0244 89.3155 75.0748 89.3665 75.1253C89.5196 75.1757 89.7237 75.2262 89.9789 75.2262C90.2341 75.2262 90.4382 75.2262 90.5403 75.0748C90.6934 74.9739 90.7955 74.8226 90.8465 74.6712C90.9486 74.4694 90.9996 74.2171 90.9996 73.9144C90.9996 73.6117 90.9996 73.4099 90.8465 73.2081C90.7955 73.0567 90.6934 72.9053 90.5403 72.754C90.2851 72.5522 90.0299 72.4513 89.7237 72.4513C89.4175 72.4513 89.3665 72.4513 89.3155 72.4513C89.3155 72.4513 89.2644 72.5017 89.2644 72.5522V74.9739H89.3155Z" fill="#202970"></path>
  <path d="M94.8268 75.983C94.8268 75.983 94.7758 75.983 94.7758 76.0334L94.3675 77.1939C94.2655 77.3957 94.2655 77.547 94.2655 77.6984C94.2655 77.8498 94.3675 77.9507 94.5717 77.9507H94.6737C94.7758 77.9507 94.7758 77.9507 94.7758 78.0011C94.7758 78.0516 94.7758 78.102 94.6227 78.102H93.6531H93.4489C93.1937 78.102 93.0406 78.102 92.8365 78.102C92.6324 78.102 92.6834 78.102 92.6834 78.0011C92.6834 77.9002 92.6834 77.9507 92.7855 77.9507C92.8875 77.9507 92.9386 77.9507 93.0406 77.9507C93.1937 77.9507 93.3468 77.8498 93.4489 77.6984C93.551 77.5975 93.602 77.4461 93.7041 77.1939L95.7454 72.199C95.8475 71.9972 95.8985 71.8962 95.9496 71.8962C96.0006 71.8962 96.0516 71.9971 96.1537 72.1485C96.1537 72.2494 96.3068 72.5017 96.4599 72.9053L97.6337 75.8316C97.8378 76.3866 97.9909 76.7902 98.144 77.0425C98.2971 77.3452 98.3992 77.5975 98.5523 77.7489C98.6033 77.7993 98.6544 77.8498 98.7054 77.9002C98.7054 77.9002 98.8075 77.9002 98.8585 77.9002C98.9606 77.9002 99.0626 77.9002 99.2157 77.9002C99.3688 77.9002 99.3178 77.9002 99.3178 77.9507C99.3178 78.0011 99.2157 78.0516 98.9606 78.0516H97.3785H97.2254H97.1744C97.1744 78.0516 97.1744 78.0011 97.2764 78.0011C97.2764 78.0011 97.3275 78.0011 97.3275 77.9507V77.8498L96.664 76.1848C96.664 76.1848 96.664 76.1343 96.562 76.1343H94.7758L94.8268 75.983ZM96.4599 75.5793L95.7454 73.6117V73.5612C95.7454 73.5612 95.7454 73.5612 95.7454 73.6117L95.031 75.5793V75.6298H96.5109L96.4599 75.5793Z" fill="#202970"></path>
  <path d="M100.491 72.0981C100.491 71.9467 100.542 71.8962 100.644 71.8962C100.746 71.8962 100.797 71.9971 100.848 72.1485L103.043 76.6389L105.237 72.0981C105.288 71.9467 105.339 71.8962 105.39 71.8962C105.441 71.8962 105.493 71.9971 105.544 72.1485L106.258 77.0425C106.309 77.4966 106.462 77.7993 106.666 77.8498C106.768 77.8498 106.87 77.9002 106.972 77.9002H107.075H107.177C107.279 77.9002 107.33 77.9002 107.33 77.9507C107.33 78.0011 107.279 78.0516 107.126 78.0516C106.972 78.0516 106.717 78.0516 106.36 78.0516C105.952 78.0516 105.646 78.0516 105.493 78.0516C105.39 78.0516 105.339 78.0516 105.288 78.0516C105.288 78.0516 105.288 78.0516 105.288 78.0011C105.288 77.9507 105.288 77.9507 105.39 77.9002C105.441 77.9002 105.441 77.7488 105.39 77.547L104.931 74.0657L103.196 77.6479C103.094 77.8498 103.043 77.9507 102.992 78.0011C102.992 78.0516 102.941 78.102 102.89 78.102C102.839 78.102 102.737 77.9507 102.584 77.6984C102.533 77.5975 102.43 77.4461 102.379 77.2948L101.818 76.2352C101.716 76.0839 101.665 75.983 101.665 75.9325L100.848 74.1666L100.44 77.3452C100.44 77.4966 100.44 77.5975 100.44 77.6984C100.44 77.7993 100.542 77.9002 100.695 77.9507C100.797 77.9507 100.951 77.9507 101.053 77.9507C101.155 77.9507 101.155 77.9507 101.155 78.0011C101.155 78.0516 101.104 78.102 100.95 78.102H99.9298C99.9298 78.102 99.8788 78.102 99.8278 78.102H99.2664C99.1643 78.102 99.1133 78.102 99.1133 78.0516C99.1133 78.0011 99.1133 78.0011 99.2664 78.0011C99.4195 78.0011 99.4195 78.0011 99.5216 78.0011C99.6236 78.0011 99.7257 77.9002 99.7767 77.7489C99.7767 77.6984 99.7767 77.6479 99.8278 77.547C99.8278 77.4966 99.8278 77.3957 99.8278 77.3452L100.644 72.1485L100.491 72.0981Z" fill="#202970"></path>
  <path d="M108.656 73.1576V72.653C108.656 72.4008 108.554 72.2494 108.35 72.199C108.248 72.199 108.197 72.199 108.044 72.199C107.891 72.199 107.891 72.1989 107.891 72.098C107.891 71.9971 107.942 72.0476 108.095 72.0476H109.32C109.32 72.0476 109.371 72.0476 109.422 72.0476H110.085C110.187 72.0476 110.238 72.0476 110.238 72.0476C110.238 72.0476 110.238 72.1485 110.085 72.1485C109.932 72.1485 109.932 72.1485 109.83 72.1485C109.626 72.1485 109.524 72.3503 109.524 72.6026V73.1071V76.2352C109.524 76.437 109.524 76.5884 109.524 76.7398C109.524 77.0425 109.524 77.2948 109.524 77.4461C109.524 77.6984 109.677 77.7993 109.83 77.8497C109.983 77.8497 110.136 77.8497 110.238 77.8497C110.341 77.8497 110.392 77.8497 110.392 77.9002C110.392 77.9506 110.341 78.0011 110.238 78.0011H109.269H109.218H107.993C107.891 78.0011 107.84 78.0011 107.84 77.9506C107.84 77.9002 107.84 77.9002 107.993 77.9002C108.146 77.9002 108.197 77.9002 108.299 77.9002C108.452 77.9002 108.503 77.7488 108.554 77.4966C108.554 77.3452 108.554 77.0929 108.554 76.7902C108.554 76.6389 108.554 76.4875 108.554 76.2857V73.1576H108.656Z" fill="#202970"></path>
  <path d="M113.761 77.9507C113.302 77.7993 112.894 77.5975 112.536 77.2948C112.179 76.9921 111.924 76.5884 111.72 76.1344C111.567 75.7812 111.516 75.3776 111.516 74.9235C111.516 74.4694 111.516 74.6208 111.516 74.4694C111.516 74.2676 111.618 74.0658 111.669 73.9144C111.72 73.7126 111.822 73.5108 111.975 73.309C112.128 73.1071 112.281 72.9053 112.434 72.754C112.74 72.5017 113.098 72.2494 113.455 72.1485C113.863 71.9972 114.374 71.9467 114.935 71.9467C115.496 71.9467 115.394 71.9467 115.547 71.9467C115.7 71.9467 115.853 71.9467 116.058 71.9972H116.262L116.67 72.0981H116.874C116.976 72.0981 116.976 72.1485 116.976 72.199V72.3503C116.976 72.4512 116.976 72.5522 116.976 72.6531C116.976 72.7035 116.976 72.8044 116.976 72.8549V73.309C116.976 73.3594 116.976 73.4603 116.976 73.4603C116.976 73.5612 116.976 73.6621 116.874 73.6621C116.772 73.6621 116.772 73.6117 116.772 73.5108C116.772 73.208 116.67 73.0062 116.466 72.8044C116.16 72.4512 115.598 72.2999 114.833 72.2999C114.067 72.2999 113.659 72.4512 113.302 72.8044C113.047 73.0567 112.842 73.3594 112.74 73.763C112.638 74.0658 112.587 74.4694 112.587 74.873C112.587 75.2766 112.689 75.7307 112.842 76.1344C112.996 76.4875 113.2 76.7902 113.455 77.0425C113.965 77.4966 114.527 77.7489 115.139 77.7489C115.751 77.7489 116.364 77.5975 116.619 77.2948C116.772 77.1434 116.823 76.9921 116.874 76.7902C116.874 76.6893 116.925 76.6389 116.976 76.6389C117.027 76.6389 117.027 76.6389 117.027 76.7398C117.027 76.8407 117.027 76.9416 116.976 77.1939C116.976 77.4461 116.874 77.648 116.874 77.7993C116.874 77.9002 116.772 78.0011 116.67 78.0516C116.517 78.102 116.313 78.1525 116.007 78.2029C115.751 78.2029 115.496 78.2029 115.19 78.2029C114.629 78.2029 114.118 78.1525 113.659 78.0011L113.761 77.9507Z" fill="#202970"></path>
  <path d="M118.456 77.9507C118.354 77.9507 118.303 77.7993 118.303 77.6984C118.303 77.5975 118.303 77.2948 118.303 77.0425V76.6389C118.303 76.4875 118.354 76.4371 118.405 76.4371C118.456 76.4371 118.507 76.4371 118.507 76.5884C118.507 76.7398 118.507 76.8407 118.558 76.9921C118.66 77.2443 118.813 77.4966 119.017 77.5975C119.221 77.6984 119.425 77.7993 119.732 77.7993C120.038 77.7993 120.344 77.6984 120.548 77.4966C120.701 77.3452 120.803 77.093 120.803 76.8912C120.803 76.6893 120.803 76.4875 120.65 76.2857C120.548 76.0839 120.293 75.8316 119.987 75.5794L119.63 75.2766C119.221 74.9235 118.915 74.6208 118.711 74.318C118.558 74.0153 118.456 73.7126 118.456 73.4099C118.456 73.1071 118.609 72.6026 118.966 72.3503C119.323 72.0476 119.783 71.9467 120.293 71.9467C120.803 71.9467 120.752 71.9467 120.956 71.9467C121.059 71.9467 121.11 71.9467 121.212 71.9467H121.416C121.467 71.9972 121.518 72.0476 121.518 72.0981V72.4008C121.518 72.5017 121.518 72.5522 121.518 72.6531C121.518 72.754 121.518 72.9053 121.518 73.0567C121.518 73.2081 121.518 73.309 121.416 73.309C121.314 73.309 121.314 73.309 121.314 73.1576V73.0567C121.314 73.0567 121.314 72.9558 121.314 72.9053C121.314 72.8044 121.212 72.7035 121.161 72.6026L121.059 72.4513C121.008 72.4513 120.956 72.3503 120.905 72.2999C120.752 72.199 120.548 72.1485 120.293 72.1485C119.681 72.1485 119.323 72.4008 119.323 72.9558C119.323 73.5108 119.374 73.309 119.477 73.4603C119.579 73.6117 119.834 73.8135 120.14 74.0658L120.344 74.2171C121.212 74.873 121.671 75.5289 121.671 76.2353C121.671 76.9416 121.62 76.7398 121.518 76.9416C121.365 77.1939 121.212 77.4461 120.905 77.5975C120.701 77.6984 120.497 77.7993 120.293 77.8498C120.089 77.8498 119.885 77.9002 119.63 77.9002C119.17 77.9002 118.762 77.8498 118.456 77.6984V77.9507Z" fill="#202970"></path>
  <path d="M38.282 88.0918C38.1799 88.0918 38.1289 87.9404 38.1289 87.8395C38.1289 87.7386 38.1289 87.4359 38.1289 87.1836V86.78C38.1289 86.6286 38.1799 86.5782 38.231 86.5782C38.282 86.5782 38.333 86.5782 38.333 86.7296C38.333 86.8809 38.333 86.9818 38.3841 87.1332C38.4861 87.3854 38.6392 87.6377 38.8434 87.7386C39.0475 87.8395 39.2517 87.9404 39.5579 87.9404C39.8641 87.9404 40.1703 87.8395 40.3744 87.6377C40.5275 87.4864 40.6296 87.2341 40.6296 87.0323C40.6296 86.8305 40.6296 86.6286 40.4765 86.4268C40.3744 86.225 40.1192 85.9727 39.813 85.7205L39.4558 85.4178C39.0475 85.0646 38.7413 84.7619 38.5372 84.4591C38.3841 84.1564 38.282 83.8537 38.282 83.551C38.282 83.2483 38.4351 82.7437 38.7923 82.4915C39.1496 82.1887 39.6089 82.0878 40.1192 82.0878C40.6296 82.0878 40.5785 82.0878 40.7827 82.0878C40.8847 82.0878 40.9358 82.0878 41.0378 82.0878H41.242C41.293 82.1383 41.344 82.1887 41.344 82.2392V82.5419C41.344 82.6428 41.344 82.6933 41.344 82.7942C41.344 82.8951 41.344 83.0464 41.344 83.1978C41.344 83.3492 41.344 83.4501 41.242 83.4501C41.1399 83.4501 41.1399 83.4501 41.1399 83.2987V83.1978C41.1399 83.1978 41.1399 83.0969 41.1399 83.0465C41.1399 82.9455 41.0378 82.8446 40.9868 82.7437L40.8847 82.5924C40.8337 82.5924 40.7827 82.4915 40.7316 82.441C40.5785 82.3401 40.3744 82.2896 40.1192 82.2896C39.5068 82.2896 39.1496 82.5419 39.1496 83.0969C39.1496 83.6519 39.2006 83.4501 39.3027 83.6014C39.4048 83.7528 39.6599 83.9546 39.9661 84.2069L40.1703 84.3582C41.0378 85.0141 41.4971 85.67 41.4971 86.3764C41.4971 87.0827 41.4461 86.8809 41.344 87.0827C41.1909 87.335 41.0378 87.5873 40.7316 87.7386C40.5275 87.8395 40.3234 87.9404 40.1192 87.9909C39.9151 87.9909 39.711 88.0413 39.4558 88.0413C38.9965 88.0413 38.5882 87.9909 38.282 87.8395V88.0918Z" fill="#202970"></path>
  <path d="M43.4865 83.2987V82.7942C43.4865 82.5419 43.3844 82.3906 43.1803 82.3401C43.0782 82.3401 43.0272 82.3401 42.8741 82.3401C42.721 82.3401 42.721 82.3401 42.721 82.2392C42.721 82.1383 42.772 82.1888 42.9251 82.1888H44.1499C44.1499 82.1888 44.2009 82.1888 44.252 82.1888H44.9154C45.0175 82.1888 45.0685 82.1888 45.0685 82.1888C45.0685 82.1888 45.0685 82.2897 44.9154 82.2897C44.7623 82.2897 44.7623 82.2897 44.6602 82.2897C44.4561 82.2897 44.354 82.4915 44.354 82.7438V83.2483V86.3764C44.354 86.5782 44.354 86.7296 44.354 86.8809C44.354 87.1837 44.354 87.4359 44.354 87.5873C44.354 87.8396 44.5071 87.9405 44.6602 87.9909C44.8133 87.9909 44.9664 87.9909 45.0685 87.9909C45.1706 87.9909 45.2216 87.9909 45.2216 88.0414C45.2216 88.0918 45.1706 88.1423 45.0685 88.1423H44.0989H44.0478H42.823C42.721 88.1423 42.6699 88.1423 42.6699 88.0918C42.6699 88.0414 42.6699 88.0414 42.823 88.0414C42.9761 88.0414 43.0272 88.0414 43.1292 88.0414C43.2823 88.0414 43.3334 87.89 43.3844 87.6377C43.3844 87.4864 43.3844 87.2341 43.3844 86.9314C43.3844 86.78 43.3844 86.6287 43.3844 86.4269V83.2987H43.4865Z" fill="#202970"></path>
  <path d="M47.6706 87.1332C47.6706 87.6377 47.7727 87.9404 47.9768 87.9909C48.0789 87.9909 48.232 88.0413 48.3851 88.0413C48.5382 88.0413 48.5382 88.0413 48.5382 88.0918C48.5382 88.1423 48.4872 88.1927 48.3341 88.1927H47.5175H47.0582C46.8541 88.1927 46.65 88.1927 46.4969 88.1927C46.3438 88.1927 46.3438 88.1927 46.3438 88.0918C46.3438 87.9909 46.3438 88.0413 46.4969 88.0413C46.65 88.0413 46.752 88.0413 46.8541 88.0413C47.0072 88.0413 47.1093 87.6882 47.1093 87.0323V82.3401C47.1603 82.1383 47.2113 82.0878 47.2624 82.0878C47.3134 82.0878 47.3644 82.0878 47.4155 82.1383C47.4155 82.1383 47.4155 82.1383 47.5175 82.2392L48.4361 83.1978L51.1409 85.9223L51.294 86.0737C51.294 86.0737 51.3451 86.0737 51.3451 86.1241L51.8044 86.6286L51.7023 83.0465C51.7023 82.6428 51.6002 82.3906 51.4471 82.3401C51.3961 82.3401 51.3451 82.3401 51.243 82.3401C51.243 82.3401 51.192 82.3401 51.1409 82.3401H51.0389C50.9368 82.3401 50.9368 82.3401 50.9368 82.2896C50.9368 82.2392 50.9878 82.2392 51.1409 82.2392C51.294 82.2392 51.4982 82.2392 51.7023 82.2392C51.7023 82.2392 51.7023 82.2392 51.7533 82.2392H52.1616C52.1616 82.2392 52.2126 82.2392 52.2637 82.2392C52.4678 82.2392 52.6209 82.2392 52.774 82.2392C52.9271 82.2392 52.9781 82.2392 52.9781 82.2896C52.9781 82.3401 52.9781 82.3401 52.825 82.3401C52.6719 82.3401 52.6719 82.3401 52.5699 82.3401C52.3657 82.3906 52.2637 82.5924 52.2637 82.996L52.1616 87.9909C52.1616 88.1422 52.1616 88.2432 52.0595 88.2432C51.9575 88.2432 51.9064 88.1927 51.8044 88.0918C51.7023 87.9909 51.5492 87.8395 51.3451 87.6377L49.4568 85.7709C49.2527 85.5691 49.0485 85.3673 48.7934 85.115L47.5175 83.7528L47.6196 87.0827L47.6706 87.1332Z" fill="#202970"></path>
  <path d="M56.2455 88.0918C55.7862 87.9404 55.3779 87.7386 55.0207 87.4359C54.6634 87.1332 54.4083 86.7296 54.2041 86.2755C54.051 85.9223 54 85.5187 54 85.0646C54 84.6105 54 84.7619 54 84.6105C54 84.4087 54.1021 84.2069 54.1531 84.0555C54.2041 83.8537 54.3062 83.6519 54.4593 83.4501C54.6124 83.2483 54.7655 83.0464 54.9186 82.8951C55.2248 82.6428 55.582 82.3906 55.9393 82.2896C56.3476 82.1383 56.8579 82.0878 57.4193 82.0878C57.9806 82.0878 57.8786 82.0878 58.0317 82.0878C58.1848 82.0878 58.3379 82.0878 58.542 82.1383H58.7461L59.1544 82.2392H59.3585C59.4606 82.2392 59.4606 82.2896 59.4606 82.3401V82.4915C59.4606 82.5924 59.4606 82.6933 59.4606 82.7942C59.4606 82.8446 59.4606 82.9455 59.4606 82.996V83.4501C59.4606 83.5005 59.4606 83.6014 59.4606 83.6014C59.4606 83.7023 59.4606 83.8033 59.3585 83.8033C59.2565 83.8033 59.2565 83.7528 59.2565 83.6519C59.2565 83.3492 59.1544 83.1474 58.9503 82.9455C58.6441 82.5924 58.0827 82.441 57.3172 82.441C56.5517 82.441 56.1434 82.5924 55.7862 82.9455C55.531 83.1978 55.3269 83.5005 55.2248 83.9042C55.1227 84.2069 55.0717 84.6105 55.0717 85.0141C55.0717 85.4178 55.1738 85.8718 55.3269 86.2755C55.48 86.6286 55.6841 86.9314 55.9393 87.1836C56.4496 87.6377 57.011 87.89 57.6234 87.89C58.2358 87.89 58.8482 87.7386 59.1034 87.4359C59.2565 87.2845 59.3075 87.1332 59.3585 86.9314C59.3585 86.8305 59.4096 86.78 59.4606 86.78C59.5116 86.78 59.5116 86.78 59.5116 86.8809C59.5116 86.9818 59.5116 87.0827 59.4606 87.335C59.4606 87.5873 59.3585 87.7891 59.3585 87.9404C59.3585 88.0413 59.2565 88.1423 59.1544 88.1927C59.0013 88.2432 58.7972 88.2936 58.491 88.3441C58.2358 88.3441 57.9806 88.3441 57.6744 88.3441C57.1131 88.3441 56.6027 88.2936 56.1434 88.1423L56.2455 88.0918Z" fill="#202970"></path>
  <path d="M61.4005 83.2988V82.7942C61.4005 82.542 61.2474 82.3906 61.0433 82.3401C60.9923 82.3401 60.8902 82.3401 60.7371 82.3401C60.584 82.3401 60.584 82.3401 60.584 82.2897C60.584 82.2392 60.635 82.2392 60.7371 82.2392H61.9109H63.595H63.9522C64.1053 82.2392 64.2584 82.2392 64.3095 82.1888H64.4115V82.4915C64.4115 82.542 64.3605 82.6429 64.3605 82.7438V83.1474C64.3605 83.1979 64.3605 83.2483 64.3605 83.2483C64.3605 83.2483 64.3605 83.2483 64.3605 83.2988C64.3605 83.2988 64.3605 83.2988 64.3095 83.2988C64.3095 83.2988 64.2584 83.2988 64.2584 83.1979C64.2584 83.0969 64.2584 83.097 64.2584 83.0465C64.2584 82.996 64.2584 82.9456 64.2584 82.8951C64.2584 82.7942 64.1564 82.7438 64.1053 82.6933C64.0033 82.6933 63.9012 82.5924 63.697 82.5924C63.697 82.5924 63.595 82.5924 63.4929 82.5924H63.1357H62.5743C62.5743 82.5924 62.5233 82.5924 62.5233 82.6933V84.7115C62.5233 84.7619 62.5233 84.8124 62.5743 84.8124H63.2377C63.3908 84.8124 63.5439 84.8124 63.646 84.8124C63.7991 84.8124 63.8501 84.8124 63.9012 84.8124C64.1053 84.8124 64.2074 84.7619 64.3095 84.7115C64.3605 84.661 64.4115 84.6106 64.4626 84.6106C64.5136 84.6106 64.5136 84.6106 64.5136 84.661V84.9637C64.5136 85.0646 64.4626 85.1151 64.4626 85.216V85.771C64.4626 85.8719 64.4115 85.9223 64.3605 85.9223C64.3095 85.9223 64.3095 85.9223 64.3095 85.8719V85.7205C64.3095 85.6701 64.3095 85.6196 64.3095 85.5692C64.3095 85.3674 64.1053 85.2664 63.8501 85.2664C63.8501 85.2664 63.7481 85.2664 63.646 85.2664C63.5439 85.2664 63.4419 85.2664 63.2888 85.2664H62.6764C62.6764 85.2664 62.6764 85.2665 62.6764 85.3169V87.1837C62.6764 87.4864 62.7274 87.6378 62.8805 87.7387C62.9826 87.8396 63.2377 87.89 63.646 87.89H64.0033C64.1564 87.89 64.3095 87.8396 64.3605 87.7891C64.5646 87.6882 64.6667 87.4864 64.7177 87.1837C64.7177 87.0828 64.7177 87.0828 64.8198 87.0828C64.9219 87.0828 64.8708 87.0828 64.8708 87.2341C64.8708 87.5369 64.8708 87.8396 64.7688 88.0918C64.7688 88.2432 64.5646 88.2937 64.3095 88.2937C64.0543 88.2937 63.7991 88.2937 63.5439 88.2937H62.9315C62.5743 88.2937 62.3191 88.2937 62.115 88.2937H61.9109C61.8088 88.2937 61.7067 88.2937 61.6557 88.2937H61.0943C60.9923 88.2937 60.9412 88.2937 60.9412 88.2432C60.9412 88.1927 60.9412 88.1928 61.0433 88.1928C61.1454 88.1928 61.2474 88.1928 61.3495 88.1928C61.4516 88.1928 61.5536 88.0414 61.6047 87.7387C61.6047 87.5873 61.6047 87.335 61.6047 87.0323C61.6047 86.881 61.6047 86.7296 61.6047 86.5782V83.4501L61.4005 83.2988Z" fill="#202970"></path>
  <path d="M69.411 83.5005C69.411 83.2987 69.411 83.1978 69.309 83.1978C69.2069 83.1978 69.2069 83.1978 69.1048 83.1978C69.0538 83.1978 68.9517 83.2483 68.8497 83.2987C68.8497 83.2987 68.7476 83.2987 68.6966 83.3492C68.6966 83.3492 68.6966 83.3492 68.6455 83.3492L68.3393 83.5005C68.3393 83.5005 68.3393 83.5005 68.2883 83.5005C68.2883 83.5005 68.2883 83.5005 68.2883 83.4501C68.2883 83.4501 68.2883 83.3492 68.3904 83.3492L69.8704 82.3906L70.3297 82.0878H70.4317C70.4828 82.0878 70.5338 82.1383 70.5338 82.2392V83.5005C70.5338 83.7528 70.5338 84.0555 70.5338 84.3078V86.3259C70.5338 86.5277 70.5338 86.6791 70.5338 86.8305C70.5338 87.1836 70.5338 87.4359 70.5338 87.5873C70.5338 87.8395 70.6869 87.9909 70.84 88.0413H71.1462C71.2483 88.0413 71.3503 88.0413 71.4014 88.0413C71.4524 88.0413 71.4524 88.0413 71.4524 88.1423C71.4524 88.2432 71.4524 88.1927 71.2993 88.1927H70.2276H70.1766H68.5945C68.4924 88.1927 68.4414 88.1927 68.4414 88.1927C68.4414 88.1927 68.4414 88.0918 68.4924 88.0918C68.5435 88.0918 68.6455 88.0918 68.7986 88.0918C68.9517 88.0918 69.1048 88.0918 69.1559 88.0918C69.36 88.0918 69.4621 87.89 69.4621 87.6882C69.4621 87.2845 69.4621 86.7296 69.4621 85.9223V83.6014L69.411 83.5005Z" fill="#202970"></path>
  <path d="M76.1485 82.6933C76.5058 83.0969 76.6589 83.6014 76.6589 84.2069C76.6589 84.8123 76.5568 85.2159 76.3527 85.7205C76.1485 86.1241 75.8934 86.5277 75.5872 86.9314C75.281 87.2341 74.9748 87.5368 74.6175 87.7891C74.3113 87.9909 74.0051 88.1927 73.7499 88.2936C73.7499 88.2936 73.6479 88.2936 73.5968 88.2936C73.5458 88.2936 73.5458 88.2936 73.5458 88.1927C73.5458 88.0918 73.5458 88.1423 73.5458 88.0918H73.5968C73.852 87.89 74.0562 87.7386 74.2603 87.5368C74.5155 87.2845 74.7196 87.0323 74.9237 86.7296C75.1279 86.3764 75.332 86.0232 75.4341 85.67C75.5872 85.2664 75.6382 84.8123 75.6382 84.3582C75.6382 83.7023 75.5361 83.1978 75.281 82.7942C75.0768 82.4915 74.7706 82.2896 74.4134 82.2896C74.0562 82.2896 73.9031 82.3906 73.6989 82.6428C73.5458 82.8446 73.4438 83.1474 73.4438 83.5005C73.4438 83.8537 73.4437 84.0555 73.5968 84.2573C73.6479 84.4591 73.75 84.6105 73.9031 84.7114C74.0051 84.8123 74.1072 84.9132 74.2603 84.9637C74.3624 84.9637 74.4644 85.0141 74.5665 85.0141C74.7196 85.0141 74.8217 85.0141 74.9237 85.0141H75.0258H75.1279L75.2299 84.9132C75.2299 84.9132 75.2299 84.9132 75.281 84.9132C75.281 84.9132 75.332 84.9132 75.332 84.9637C75.332 85.0141 75.332 85.0141 75.332 85.0646C75.0768 85.3169 74.7706 85.4178 74.2603 85.4178C73.7499 85.4178 73.2906 85.2664 72.9844 84.9132C72.7293 84.6105 72.5762 84.2573 72.5762 83.9042C72.5762 83.551 72.7803 82.8951 73.1375 82.5924C73.4948 82.2392 74.0051 82.0878 74.6175 82.0878C75.2299 82.0878 75.7403 82.2896 76.0975 82.6933H76.1485Z" fill="#202970"></path>
  <path d="M77.9343 88.1927C77.8323 88.1423 77.7812 88.0413 77.7812 87.89V87.3855C77.7812 87.1836 77.7812 86.9818 77.7812 86.8809C77.7812 86.78 77.8323 86.7296 77.8833 86.7296C77.9343 86.7296 77.9343 86.7296 77.9343 86.8809C77.9343 87.2845 78.0364 87.5368 78.2916 87.7386C78.4447 87.89 78.6999 87.9404 79.0571 87.9404C79.4143 87.9404 79.7205 87.8395 79.9757 87.5873C80.2309 87.335 80.384 86.9818 80.384 86.4773C80.384 85.9728 80.3329 85.9223 80.1798 85.67C80.0267 85.4682 79.8736 85.2664 79.6185 85.115C79.4143 84.9637 79.2102 84.8628 78.955 84.7619C78.7509 84.7114 78.5468 84.661 78.3426 84.6105C78.2406 84.6105 78.1895 84.5601 78.1895 84.4591L78.3936 82.3401C78.3936 82.2896 78.4447 82.2392 78.5468 82.2392H80.5371C80.6391 82.2392 80.7412 82.2392 80.7922 82.2392C80.8433 82.2392 80.8943 82.2392 80.9453 82.2392C80.9453 82.2392 80.9453 82.2392 80.9964 82.2392C80.9964 82.2392 80.9964 82.2392 81.0474 82.2392H81.0984C81.1495 82.2392 81.2005 82.2392 81.2005 82.3906C81.2005 82.5419 81.2005 82.5924 81.2005 82.7942C81.2005 82.996 81.2005 83.1978 81.0984 83.4501C81.0984 83.5005 81.0984 83.551 80.9964 83.551C80.8943 83.551 80.9453 83.551 80.9453 83.4501C80.9453 83.2987 80.9453 83.1978 80.8433 83.1474C80.7412 83.0465 80.5371 82.996 80.2309 82.996H78.7509L78.6488 83.9546C78.955 84.0051 79.2612 84.106 79.5674 84.2069C79.8736 84.3078 80.1798 84.4592 80.435 84.661C80.6902 84.8628 80.9453 85.0646 81.0474 85.3169C81.2005 85.5691 81.3026 85.8718 81.3026 86.225C81.3026 86.8305 81.0984 87.335 80.6902 87.7386C80.435 87.9909 80.1798 88.1423 79.8736 88.2432C79.5164 88.3945 79.1081 88.445 78.6488 88.445C78.1895 88.445 78.0874 88.445 77.8833 88.2936L77.9343 88.1927Z" fill="#202970"></path>
  <path d="M86.4575 82.1887C86.5085 82.1887 86.5595 82.1887 86.6106 82.1887C86.6106 82.1887 86.6106 82.2392 86.6106 82.2897C86.6106 82.2897 86.6106 82.2897 86.6106 82.3401C86.4575 82.5924 86.2533 82.8951 85.9982 83.3996C85.794 83.8537 85.5899 84.3583 85.3858 84.8628C85.1816 85.4178 84.9775 85.8719 84.8244 86.3259C84.6713 86.8305 84.5692 87.1837 84.5692 87.4359C84.5692 87.4359 84.5692 87.4864 84.5692 87.5368V87.7386C84.5692 87.8395 84.4672 87.9405 84.212 88.0414C83.9568 88.1423 83.7527 88.2432 83.5485 88.2432C83.3444 88.2432 83.4465 88.2432 83.4465 88.1423C83.4465 88.0414 83.4465 87.9405 83.4975 87.8395C83.6506 87.3855 83.9058 86.7296 84.3651 85.771C84.5692 85.2664 84.8244 84.8123 85.0796 84.3078C85.3347 83.8033 85.6409 83.2987 85.8961 82.8446H83.8037C83.7527 82.8446 83.6506 82.8446 83.5996 82.8446C83.5485 82.8446 83.4465 82.8446 83.3955 82.8446C83.2423 82.8446 83.0892 82.8951 83.0382 82.9456C82.8851 83.0465 82.783 83.1978 82.783 83.3996C82.783 83.4501 82.783 83.5005 82.681 83.5005C82.5789 83.5005 82.6299 83.5005 82.6299 83.3996C82.6299 83.2987 82.6299 83.2483 82.6299 83.0969L82.732 82.0878C82.732 82.0374 82.732 81.9869 82.8341 81.9869H83.0892C83.1913 81.9869 83.2934 82.0374 83.3955 82.0374C83.5486 82.0374 83.7017 82.0374 83.9058 82.0374H86.4575V82.1887Z" fill="#202970"></path>
</svg>
