<svg width="132" height="88" viewBox="0 0 132 88" fill="none" xmlns="http://www.w3.org/2000/svg">
<path d="M0 87.8498L1.46453 79.4382H4.05557L4.99437 83.6064H5.0695L7.51037 79.4382H10.2516L8.74955 87.8498H6.60911L7.47283 82.9305H7.36015L5.18213 86.6106H3.86781L3.07923 82.9305H2.9666L2.10289 87.8498H0Z" fill="white"/>
<path d="M13.4437 84.4326C13.4437 84.5077 13.4437 84.5828 13.4061 84.6579C13.4061 84.733 13.4061 84.8081 13.4061 84.8832C13.4061 85.2212 13.5188 85.484 13.7066 85.6718C13.9319 85.8596 14.1947 85.9722 14.5702 85.9722C14.8707 85.9722 15.1336 85.8596 15.3589 85.6718C15.5842 85.484 15.7344 85.1461 15.8095 84.733L16.7483 79.4757H19.1891L18.1753 85.3714C18.0626 85.9346 17.8748 86.4228 17.5368 86.7983C17.1989 87.1739 16.7483 87.5118 16.2225 87.6996C15.6968 87.9249 15.096 88 14.4201 88C13.8192 88 13.2559 87.8873 12.6927 87.6996C12.1669 87.5118 11.7163 87.1739 11.4159 86.7608C11.078 86.3477 10.9277 85.822 10.9277 85.1836C10.9277 85.071 10.9277 84.9959 10.9277 84.8832C10.9277 84.7705 10.9653 84.6579 10.9653 84.5828L11.8665 79.4757H14.3074L13.4437 84.4326Z" fill="white"/>
<path d="M22.5688 79.4382H25.648L26.7746 87.8498H24.146L24.0333 86.16H21.7051L20.9917 87.8498H18.5508L22.5688 79.4382ZM23.6578 81.5035L22.4186 84.4326H23.9207L23.7705 81.5035H23.6578Z" fill="white"/>
<path d="M27.7134 87.8498L29.1779 79.4382H31.6188L31.0555 82.6301H33.6841L34.2474 79.4382H36.6883L35.2237 87.8498H32.7829L33.3462 84.5828H30.7175L30.1542 87.8498H27.7134Z" fill="white"/>
<path d="M40.1802 79.4382H43.2594L44.386 87.8498H41.7573L41.6447 86.16H39.3165L38.603 87.8498H36.1621L40.1802 79.4382ZM41.2692 81.5035L40.03 84.4326H41.532L41.3818 81.5035H41.2692Z" fill="white"/>
<path d="M50.6576 87.8498L48.442 83.4187H48.3669L47.5783 87.8498H45.3252L46.7897 79.4382H48.6673L50.8829 83.7942H50.958L51.709 79.4382H53.9621L52.4976 87.8498H50.6576Z" fill="white"/>
<path d="M55.4266 80.9403C55.7646 80.4145 56.1776 80.039 56.7409 79.7386C57.3042 79.4382 57.9426 79.288 58.7312 79.288C59.3696 79.288 59.9328 79.3631 60.3834 79.5508C60.834 79.7386 61.2096 79.9264 61.4724 80.2268C61.7353 80.4896 61.9606 80.7901 62.0732 81.128C62.1859 81.466 62.261 81.7664 62.261 82.1044C62.261 82.1419 62.261 82.1795 62.261 82.2546C62.261 82.3297 62.261 82.3672 62.261 82.4048H59.9328C59.9328 82.3672 59.9328 82.3672 59.9328 82.3297C59.9328 82.2921 59.9328 82.2546 59.9328 82.217C59.9328 82.1419 59.8953 82.0293 59.8577 81.9166C59.8202 81.804 59.7451 81.6913 59.67 81.5786C59.5949 81.466 59.4447 81.3909 59.2944 81.3158C59.1442 81.2407 58.9565 81.2031 58.7312 81.2031C58.4683 81.2031 58.2054 81.2782 58.0177 81.3909C57.7924 81.5411 57.6421 81.7288 57.4919 81.9917C57.3417 82.2546 57.2291 82.5925 57.154 83.0056L57.0037 83.8317C56.9662 83.9444 56.9662 84.0946 56.9662 84.2073C56.9662 84.3199 56.9662 84.4326 56.9662 84.5452C56.9662 84.8457 57.0038 85.1085 57.1164 85.3338C57.2291 85.5591 57.3793 85.7469 57.567 85.8596C57.7548 85.9722 57.9801 86.0473 58.243 86.0473C58.5058 86.0473 58.7687 86.0097 58.9565 85.8971C59.1442 85.822 59.332 85.6718 59.4446 85.5591C59.5573 85.4089 59.6324 85.2587 59.67 85.1085L59.7451 84.7705H58.5058L58.7687 83.2685H62.261L61.9606 84.9583C61.848 85.5591 61.6602 86.0473 61.3222 86.4979C61.0218 86.9485 60.5712 87.2865 60.0455 87.5494C59.5198 87.8122 58.8813 87.9249 58.1303 87.9249C57.4544 87.9249 56.816 87.8122 56.2903 87.5494C55.7646 87.2865 55.314 86.911 54.976 86.4228C54.6756 85.9347 54.4878 85.2963 54.4878 84.5077C54.4878 84.3575 54.4878 84.2073 54.5253 84.0195C54.5629 83.8317 54.5629 83.6815 54.6005 83.5313L54.7506 82.6301C54.8633 82.0293 55.0886 81.4284 55.4266 80.9403Z" fill="white"/>
<path d="M63.8382 87.8498L65.0023 81.3909H62.8994L63.2374 79.4382H69.884L69.5461 81.3909H67.4432L66.3166 87.8498H63.8382Z" fill="white"/>
<path d="M69.3955 87.8498L70.86 79.4382H74.465C75.3663 79.4382 76.0422 79.6635 76.5679 80.0766C77.0937 80.4896 77.3565 81.128 77.3565 81.9542C77.3565 82.0293 77.3565 82.0668 77.3565 82.1419C77.3565 82.217 77.3565 82.2546 77.3565 82.2921C77.319 82.893 77.1312 83.3811 76.7932 83.8317C76.4928 84.2824 76.0422 84.5828 75.4789 84.8081L76.5304 87.8498H74.0144L73.1507 85.1085C73.1131 85.1085 73.0381 85.1085 73.0005 85.1085C72.963 85.1085 72.9254 85.1085 72.8503 85.1085H72.287L71.7988 87.8498H69.3955ZM73.0005 81.2407L72.625 83.3811H73.5638C73.8267 83.3811 74.0144 83.3436 74.2022 83.2685C74.3899 83.1934 74.5401 83.0807 74.6528 82.9305C74.7654 82.7803 74.8406 82.5925 74.8781 82.3672C74.8781 82.3297 74.8781 82.2921 74.8781 82.2546C74.8781 82.217 74.8781 82.1795 74.8781 82.1419C74.8781 81.9166 74.8406 81.7288 74.7279 81.5786C74.6152 81.466 74.5026 81.3533 74.3148 81.3158C74.1271 81.2782 74.0144 81.2407 73.8266 81.2407H73.0005Z" fill="white"/>
<path d="M80.7362 84.4326C80.7362 84.5077 80.7362 84.5828 80.6987 84.6579C80.6987 84.733 80.6987 84.8081 80.6987 84.8832C80.6987 85.2212 80.8113 85.484 80.9991 85.6718C81.2244 85.8596 81.4873 85.9722 81.8628 85.9722C82.1632 85.9722 82.426 85.8596 82.6514 85.6718C82.8767 85.484 83.0269 85.1461 83.102 84.733L84.0408 79.4757H86.4816L85.4677 85.3714C85.3551 85.9346 85.1673 86.4228 84.8294 86.7983C84.4914 87.1739 84.0408 87.5118 83.5151 87.6996C82.9893 87.9249 82.3885 88 81.7126 88C81.1117 88 80.5485 87.8873 79.9852 87.6996C79.4595 87.5118 79.0088 87.1739 78.7084 86.7608C78.408 86.3477 78.2202 85.822 78.2202 85.1836C78.2202 85.071 78.2202 84.9959 78.2202 84.8832C78.2202 84.7705 78.2578 84.6579 78.2578 84.5828L79.159 79.4757H81.5999L80.7362 84.4326Z" fill="white"/>
<path d="M91.9642 87.8498L89.7487 83.4187H89.6735L88.8849 87.8498H86.6318L88.0964 79.4382H89.974L92.1895 83.7942H92.2646L93.0156 79.4382H95.2688L93.8042 87.8498H91.9642Z" fill="white"/>
<path d="M96.6961 80.9403C97.0341 80.4145 97.4472 80.039 98.0104 79.7386C98.5737 79.4382 99.2121 79.288 100.001 79.288C100.639 79.288 101.202 79.3631 101.653 79.5508C102.104 79.701 102.479 79.9264 102.742 80.2268C103.005 80.4896 103.23 80.7901 103.343 81.128C103.455 81.466 103.531 81.7664 103.531 82.1044C103.531 82.1419 103.531 82.1795 103.531 82.2546C103.531 82.3297 103.531 82.3672 103.531 82.4048H101.202C101.202 82.3672 101.202 82.3672 101.202 82.3297C101.202 82.2921 101.202 82.2546 101.202 82.217C101.202 82.1419 101.165 82.0293 101.127 81.9166C101.09 81.804 101.015 81.6913 100.939 81.5786C100.864 81.466 100.714 81.3909 100.564 81.3158C100.414 81.2407 100.226 81.2031 100.001 81.2031C99.7378 81.2031 99.475 81.2782 99.2872 81.3909C99.0619 81.5411 98.9117 81.7288 98.7615 81.9917C98.6113 82.2546 98.4986 82.5925 98.4235 83.0056L98.2733 83.8317C98.2357 83.9444 98.2357 84.0946 98.2357 84.2073C98.2357 84.3199 98.2357 84.4326 98.2357 84.5452C98.2357 84.8457 98.2733 85.1085 98.386 85.3338C98.4986 85.5591 98.6488 85.7469 98.8366 85.8596C99.0243 85.9722 99.2496 86.0473 99.5125 86.0473C99.7754 86.0473 100.038 86.0097 100.226 85.8971C100.414 85.822 100.601 85.6718 100.714 85.5591C100.827 85.4089 100.902 85.2587 100.939 85.1085L101.015 84.7705H99.7754L100.038 83.2685H103.531L103.23 84.9583C103.117 85.5591 102.93 86.0473 102.592 86.4979C102.254 86.9485 101.841 87.2865 101.315 87.5494C100.789 87.8122 100.151 87.9249 99.3998 87.9249C98.7239 87.9249 98.0855 87.8122 97.5598 87.5494C96.9965 87.2865 96.5834 86.911 96.2455 86.4228C95.9451 85.9347 95.7573 85.2963 95.7573 84.5077C95.7573 84.3575 95.7573 84.2073 95.7949 84.0195C95.7949 83.8317 95.8324 83.6815 95.87 83.5313L96.0202 82.6301C96.1328 82.0293 96.3582 81.4284 96.6961 80.9403Z" fill="white"/>
<path d="M105.521 87.8498L104.432 79.4382H107.098L107.398 85.6342H107.511L109.989 79.4382H112.656L108.637 87.8498H105.521Z" fill="white"/>
<path d="M112.055 87.8498L113.519 79.4382H115.96L114.496 87.8498H112.055Z" fill="white"/>
<path d="M122.081 87.8498H116.186L117.65 79.4382H123.546L123.208 81.3533H119.753L119.49 82.7803H122.72L122.419 84.4701H119.19L118.927 85.8971H122.382L122.081 87.8498Z" fill="white"/>
<path d="M124.972 87.8498L126.137 81.3909H124.034L124.372 79.4382H131.018L130.68 81.3909H128.578L127.451 87.8498H124.972Z" fill="white"/>
<path d="M91.4764 11.9575C91.4764 12.2579 91.4764 12.4833 91.4764 12.671C91.4764 22.81 91.4764 32.949 91.4764 43.1256C91.4764 43.3884 91.3637 43.7264 91.1384 43.9517C87.7963 47.2938 84.4542 50.6359 81.1121 53.978C81.037 54.0531 80.9994 54.0907 80.8492 54.2409C80.8492 46.1673 80.8492 38.1312 80.8492 30.1702C75.329 35.6903 69.8465 41.1729 64.3639 46.7305C58.7312 41.0978 53.211 35.5401 47.7285 30.02C47.6909 30.0575 47.6534 30.0575 47.5783 30.0951C47.5783 38.1312 47.5783 46.1297 47.5783 54.2785C47.3905 54.1282 47.2778 54.0156 47.1652 53.9405C43.8606 50.6359 40.5561 47.3314 37.2515 44.0268C37.0637 43.839 36.9135 43.5011 36.9135 43.2382C36.876 33.0241 36.876 22.8476 36.876 12.6335C36.876 12.4457 36.876 12.2204 36.876 11.9951C37.0637 11.9951 37.214 11.9575 37.4017 11.9575C39.9177 11.9575 42.4336 11.9575 44.9496 11.9575C45.2125 11.9575 45.5504 12.1077 45.7382 12.2955C51.7465 18.3038 57.7548 24.3121 63.7631 30.3204C63.8757 30.433 63.9884 30.6208 64.1762 30.8461C65.115 29.8698 65.9787 29.0061 66.8424 28.1424C72.0996 22.8851 77.3569 17.6279 82.6141 12.4082C82.7643 12.2579 82.9896 12.0702 83.215 12.0702C85.9187 11.9575 88.66 11.9575 91.4764 11.9575Z" fill="white"/>
<path d="M64.1384 70.8764C61.2094 67.9473 58.3555 65.0183 55.3889 62.1643C54.375 61.2255 54.037 60.2492 54.0746 58.8973C54.1497 54.8042 54.1121 50.711 54.1121 46.5803C54.1121 46.4677 54.1121 46.355 54.1121 46.2423C57.4542 49.5845 60.7588 52.9266 64.0633 56.2687C67.443 52.8515 70.7476 49.5469 74.0521 46.2423C74.0897 46.2799 74.1272 46.2799 74.1648 46.3175C74.1648 46.5803 74.1648 46.8056 74.1648 47.0685C74.1648 51.5372 74.1648 55.9683 74.1648 60.4369C74.1648 60.6623 74.0897 60.9627 73.9395 61.1129C70.71 64.3423 67.443 67.5718 64.1384 70.8764Z" fill="white"/>
<path d="M77.9203 13.0465C76.5684 13.0465 75.3668 13.0465 74.1276 13.0465C73.8271 10.3428 72.7757 8.12724 70.7854 6.3623C65.1527 1.3679 56.1777 4.29695 54.563 11.6571C54.225 13.1216 54.225 13.1216 52.6479 13.1216C52.0095 13.1216 51.3711 13.1216 50.5825 13.1216C50.8829 8.87827 52.5352 5.4235 55.8398 2.94508C60.4211 -0.472138 65.4155 -0.922758 70.485 1.63077C75.1039 3.92143 77.4321 7.86437 77.9203 13.0465Z" fill="white"/>
</svg>
