<?xml version="1.0" encoding="UTF-8"?>
<svg id="Layer_1" data-name="Layer 1" xmlns="http://www.w3.org/2000/svg" viewBox="0 0 400.3 115.96">
  <defs>
    <style>
      .cls-1, .cls-2 {
        fill: #0091d0;
      }

      .cls-1, .cls-2, .cls-3, .cls-4 {
        stroke-width: 0px;
      }

      .cls-5 {
        fill: #808285;
        font-family: UTM-Alexander, 'UTM Alexander';
        font-size: 24.38px;
      }

      .cls-2 {
        fill-rule: evenodd;
      }

      .cls-3 {
        fill: #ed1c24;
      }

      .cls-4 {
        fill: #fff;
      }
    </style>
  </defs>
  <path class="cls-3" d="M367.98,32.09l-3.68,20.26c1.77-2.63,3.56-5.25,5.37-7.88,1.6-2.5,2.4-4.54,2.4-6.1s-.73-3.2-2.2-4.73c-1.6-1.69-4.17-3.43-7.72-5.21l11.65-2.17c3.58,1.76,6.2,3.56,7.87,5.4,1.57,1.75,2.35,3.64,2.35,5.67s-.9,4.48-2.71,7.08c-1.5,2.15-3.9,4.86-7.21,8.12l6.44,12.19h-11.44l-5.01-10.6-1.84,10.6h-9.71l4.4-32.64h11.03ZM333.65,52.63h4.09v-16.97l-4.09,16.97ZM328.13,31.81h10.43v-2.91h11.75l-2.96,35.83h-9.61v-7.22h-5.31l-1.74,7.22h-8.68l6.13-32.92ZM305.97,31.81l-2.38,15.85,6.05.19,2.35-18.85h10.93l-6.44,35.73h-8.78l1.33-12.66-6.23.94-1.84,11.72h-8.89l3.08-32.92h10.84ZM276.17,32.34l-3.06,21.23c2.04-3.08,3.59-5.86,4.65-8.32,1.06-2.47,1.58-4.62,1.58-6.46,0-2.18-.72-4.05-2.15-5.63-1.43-1.57-3.71-2.88-6.84-3.91l11.66-3.09c2.7,1.13,4.7,2.53,5.98,4.22,1.28,1.69,1.93,3.67,1.93,5.94,0,2.42-.64,5.2-1.93,8.34-1.06,2.61-2.75,5.85-5.09,9.72h-9.88l-1.58,10.25h-8.99l3.17-32.29h10.57ZM262.29,27.87l-10.73,36.86h-9.3l2.15-9.19h-8.69c-1.23-4.03-1.84-8.16-1.84-12.38,0-2,.13-4.02.38-6.07.26-2.05.64-4.24,1.15-6.59h9.81c-.14,1.19-.39,3.25-.76,6.19-.58,4.53-.87,7.88-.87,10.04,0,1.47.1,2.77.31,3.91.2,1.14.55,2.12,1.02,2.93l6.13-25.7h11.24ZM215.47,34.09l-4.78,30.18c3.49-4.17,6.12-8,7.89-11.49,1.66-3.31,2.49-6.27,2.49-8.88,0-2.86-.94-5.4-2.82-7.61-1.89-2.21-4.61-4.16-8.17-5.84l10.28-2.62c3.94,1.88,6.84,3.95,8.7,6.24,1.87,2.29,2.8,4.88,2.8,7.78s-.96,6.35-2.9,10.18c-1.8,3.59-4.56,7.83-8.3,12.71h-19.13l3.56-30.64h10.38ZM182.72,52.63h4.09v-16.97l-4.09,16.97ZM177.2,31.81h10.43v-2.91h11.75l-2.96,35.83h-9.61v-7.22h-5.31l-1.74,7.22h-8.68l6.13-32.92ZM157.57,30.63l2.64,21.24,3.05-22.92h8.83l-6.29,35.69-11.37.56-2.74-19.47-3.65,18.91h-8.12l3.05-34.01h14.62Z"/>
  <text class="cls-5" transform="translate(139.21 95.16)"><tspan x="0" y="0">Chất lượng vì Sức Khỏe</tspan></text>
  <g>
    <rect class="cls-1" x="16.98" y="13.25" width="98.01" height="98.01"/>
    <path class="cls-4" d="M105.04,95.73V29.22c0-3.14-2.78-3.51-3.53-3.51-6.22,0-24.01.09-28.75.09-4.99,0-5.68,1.72-6.14,2.74-.82,1.91-.61,3.42-.71,4.85h-.04c0-1.42.02-3.41-.56-4.9-.67-1.64-2.12-2.79-4.8-2.79h-30.45c-1.94,0-3.41,1.83-3.41,3.17v38.22l14-8.22c-.11-4.23-.14-21.39-.14-21.39-.03-3.69,3.6-3.87,3.8-3.87,2.36,0,3.64,1.96,3.64,3.74,0,21-.03,34.71-.03,34.71-.29,2.42-2.09,3.89-2.86,4.48-6.72,5.08-11.28,8.23-15.89,11.15,0,0-2.44,1.93-2.52,3.25v8.06l36.38-.05.13-7.97h-21.59c-.16,0-.94.2-.94-.76,0-2.05,12.61-6.84,21.8-12.5.7-.41,2.31-1.14,2.31-1.71-.1-3.45,1.12-2.69,1.12-2.86.89.02,1,.56,1.13,2.81.02.53,2.41,1.75,2.41,1.75,14.53,8.32,17.93,10.45,21.55,12.45,0,.93-.62.93-1.52.93-3.27-.05-13.48,0-20.74-.05l.08,8.12h32.67c2.59,0,3.62-1.93,3.62-3.5ZM90.95,67.65c0,2.72-1.25,4.2-3.61,4.2-1.71,0-3.46-1.12-3.46-4.2v-30.1c0-2.4,1.5-3.94,3.46-3.94s3.61,1.28,3.61,4.18v29.86Z"/>
    <g>
      <polygon class="cls-2" points="78.97 43.91 52.86 43.91 65.91 48.55 78.97 43.91"/>
      <polygon class="cls-2" points="56.69 66 74.97 66 65.83 62.75 56.69 66"/>
      <path class="cls-2" d="M70.06,42.39s-.05,0-.05,0h.04c.09-.06.23-.5.23-.6,0-.18-.06-.77.12-1.69.38-1.02.23-1.6.2-1.53-.42-1.52-2.62-3.24-3.99-3.61-2.21-.59-5.36-.67-7.51,2-.02-.1-1.32,1.21-1.54,3.75-.09,1.01-.06,1.95.07,3.18h2.3c-.19-.67-.19-1.46-.2-1.52-.09-.78.27-1.71.55-2.21.2-.37.87-1.23,1.02-1.42.35-.42,1.21-.93,1.93-1.24.18-.08.47-.11,1.05-.28,1.08-.31,2.43-.06,2.94.38.54.37.53.87.53.94,0,.12-.17.6.08,1.47.09.32.68.73.88,1.07.06,0,.72.61.72.67,0,0,.37.39.62.62"/>
      <path class="cls-2" d="M65.87,58.21c.11-.1,0-.08,1.39-.81,0-.1,1.02-.6,2.08-1.82.29-.34.27-1.15.13-1.66-.18-.66-1.05-1.24-2.17-1.69-.42-.17-1.51-.44-1.51-.7-.18,0-.78-.35-2.02-1.18-.96-.65-1.83-1.89-2.82-3.49l-2.62-.91c.68,1.49,1.36,3.01,2.01,3.86.63.66.86,1.27,2.36,2.16.97.53,3.14,1.47,3.18,1.46.05,0,1.37.58,1.45,1.3-.05,1.47-1.58,1.89-1.45,1.89M65.87,58.2c-.06-.27-1.03.17-1.4.4-.44.27-.91,1.16-1.05,1.82-.19.88.04,1.26.44,1.67.02,0,.34.45,1.08.76.93.2.77.27,1.24.16.81-.18,1.23-.79,1.66-1.37.16-.21.47-.81.75-.7.37.15.39.47.33.43-.03.32-.76,1.58-.98,1.77-.48.42-.84.72-1.55.93-.55.16-1.66-.03-1.94-.15-.45-.19-1.09-.46-1.76-1.38-.3-.67-.45-.98-.47-1.64-.05-.86.72-2.42,1.42-2.92.33-.24,1.7-1.19,2.22-1.19v1.41Z"/>
      <polyline class="cls-1" points="65.84 63.16 65.84 48.77 65.94 47.78"/>
    </g>
  </g>
</svg>