<svg width="140" height="100" viewBox="0 0 140 100" fill="none" xmlns="http://www.w3.org/2000/svg">
<path d="M139.924 99.4662L136.031 94.9577C132.873 91.3031 131.16 86.6891 131.207 81.9421C131.34 68.0836 131.693 47.4261 132.601 34.6435C133.127 27.2068 133.549 7.36458 138.159 0.499106C138.304 0.282827 138.148 0 137.882 0H127.701C127.516 0 127.366 0.144186 127.366 0.321646L127.21 83.8498C127.21 84.1492 126.816 84.2879 126.614 84.055L123.872 80.8829L121.211 77.9104L53.3037 2.14061C51.5973 0.232916 48.3349 1.38641 48.3292 3.89857L48.2829 18.6555C48.2829 18.7276 48.306 18.7941 48.3523 18.8551C48.3986 18.9106 48.4217 18.9827 48.4217 19.0492V32.4752C48.4217 32.7746 48.0342 32.9133 47.8317 32.6859L18.7945 0.366011V0.432558C18.5168 0.299463 18.2218 0.244007 17.9268 0.255099H0.336745C0.0533142 0.255099 -0.102863 0.571199 0.076451 0.781932L3.96929 5.29052C7.12752 8.94508 8.83968 13.559 8.79341 18.3061C8.66037 32.1646 8.30752 52.822 7.39938 65.6047C6.87301 73.0414 6.43341 92.6285 1.82331 99.4995C1.6787 99.7158 1.83488 99.9986 2.10096 99.9986H12.2813C12.4664 99.9986 12.6168 99.8544 12.6168 99.677L12.7904 16.3984C12.7904 16.0989 13.1837 15.9603 13.3861 16.1932L77.6151 88.8186L87.3732 98.823C88.4086 99.8822 90.2596 99.1834 90.2596 97.7305V84.421V79.9457V67.1464C90.2596 66.8469 90.6472 66.7083 90.8496 66.9356L111.222 89.7559L120.656 99.433C120.824 99.6049 121.009 99.7269 121.2 99.8212C121.478 99.9542 121.773 100.01 122.068 99.9986H139.658C139.947 99.9931 140.103 99.677 139.924 99.4662ZM52.0947 37.4496C52.0427 37.3886 52.0138 37.3165 52.0138 37.2388V24.3065C52.0138 24.007 52.4013 23.8684 52.6038 24.0957L58.6368 30.8558L86.6213 62.1997C86.6733 62.2551 86.7023 62.3328 86.7023 62.4104V75.975L86.708 75.9972L52.0947 37.4496Z" fill="white"/>
</svg>
