<svg xmlns="http://www.w3.org/2000/svg" width="171" height="24" viewBox="0 0 171 24" fill="none">
  <path d="M11.0145 17.0478C16.8633 17.0478 20.7964 13.641 20.7964 8.57236C20.7964 3.50374 17.0895 0.457031 11.573 0.457031H0V4.80552H2.80671V19.1989H0V23.5428H11.0699V19.1989H7.61227V17.0478H11.0191H11.0145ZM11.4392 12.5746H7.60765V4.9717H11.4392C14.1997 4.9717 16.0555 6.4212 16.0555 8.57698C16.0555 11.0051 14.2413 12.5746 11.4392 12.5746Z" fill="#00B9BD"/>
  <path d="M63.0985 0.461914V4.8104H65.9052V15.2246L53.5289 0.461914H47.3984V4.8104H50.2051V19.1992H47.3984V23.5477H57.7805V19.1992H55.0061V9.39432L66.9946 23.5477H70.7107V4.8104H73.4851V0.461914H63.0985Z" fill="#00B9BD"/>
  <path d="M74.5293 0.461914V8.78959H78.9379V4.97197H82.8525V19.1992H79.1317V23.5477H91.3788V19.1992H87.658V4.97197H91.568V8.78959H95.9812V0.461914H74.5293Z" fill="#00B9BD"/>
  <path d="M117.497 8.78959V0.461914H97.707V4.8104H100.518V19.1992H97.707V23.5477H117.497V15.2154H113.084V19.0376H105.319V14.4075H112.793V9.89287H105.319V4.97197H113.084V8.78959H117.497Z" fill="#00B9BD"/>
  <path d="M170.06 4.8104V0.461914H159.673V4.8104H162.484V10.0267H152.333V4.8104H155.107V0.461914H144.721V4.8104H147.532V19.1992H144.721V23.5477H155.107V19.1992H152.333V14.4399H162.484V19.1992H159.673V23.5477H170.06V19.1992H167.285V4.8104H170.06Z" fill="#00B9BD"/>
  <path d="M23.0545 12.5238H27.0476C27.0383 12.3484 27.0245 12.1776 27.0245 12.0022C27.0245 11.8268 27.0383 11.6514 27.0476 11.476C27.0614 11.2821 27.0799 11.0928 27.103 10.9035C27.1537 10.5435 27.2184 10.1926 27.3153 9.85566C28.1786 6.74893 30.8883 4.54237 34.1844 4.54237C37.4804 4.54237 40.1625 6.75355 41.0257 9.85566C41.118 10.1926 41.1873 10.5435 41.2334 10.9035H46.099C46.0667 10.5481 46.0205 10.2019 45.9559 9.85566C44.9403 4.25617 40.0378 0 34.152 0C28.2663 0 23.3638 4.25617 22.3482 9.85566C22.2882 10.1973 22.2374 10.5481 22.2051 10.9035H26.6598C26.6367 11.0928 26.6183 11.2821 26.6044 11.476H22.1681C22.1589 11.6514 22.1543 11.8268 22.1543 12.0022C22.1543 12.1776 22.1635 12.3484 22.1681 12.5238H23.0545Z" fill="black"/>
  <path d="M42.1803 12.5235H46.1411C46.1503 12.3481 46.1549 12.1773 46.1549 12.0018C46.1549 11.8264 46.1503 11.651 46.1411 11.4756H41.294C41.3032 11.651 41.3171 11.8218 41.3171 12.0018C41.3171 12.1819 41.3032 12.3481 41.294 12.5235C41.2801 12.7358 41.2571 12.9482 41.2294 13.1559C41.1786 13.516 41.1093 13.8668 41.0124 14.2038C40.1353 17.2782 37.4486 19.457 34.1895 19.457C30.9304 19.457 28.216 17.2736 27.3343 14.2038C27.2374 13.8668 27.1681 13.516 27.1173 13.1559H22.2148C22.2472 13.5113 22.2979 13.8576 22.3626 14.2038C23.3966 19.771 28.2899 23.9994 34.1526 23.9994C40.0153 23.9994 44.9085 19.771 45.9472 14.2038C46.0118 13.8576 46.0626 13.5113 46.0949 13.1559H41.6725C41.7002 12.9482 41.7233 12.7358 41.7325 12.5235H42.1757H42.1803Z" fill="black"/>
  <path d="M120.051 12.5238H124.178C124.164 12.353 124.155 12.1776 124.155 12.0022C124.155 11.8268 124.169 11.6514 124.178 11.476C124.187 11.2821 124.206 11.0928 124.234 10.9035C124.28 10.5435 124.344 10.1926 124.437 9.85566C125.282 6.74432 127.959 4.65316 131.421 4.63931C134.782 4.65316 137.445 6.60583 138.207 9.62484L138.258 9.81873L138.29 9.96183H142.791V0.457009H142.731H138.189V2.15578C136.379 0.743212 133.992 0 131.213 0H131.158C125.143 0 120.291 4.16846 119.285 9.81873H119.345C119.345 9.81873 119.336 9.84181 119.336 9.85566C119.276 10.1973 119.23 10.5481 119.197 10.9035H123.781C123.758 11.0928 123.744 11.2821 123.73 11.476H119.16C119.16 11.6514 119.146 11.8268 119.146 12.0022C119.146 12.1776 119.156 12.3484 119.16 12.5238H120.047H120.051Z" fill="black"/>
  <path d="M142.986 14.0426H138.055L138.023 14.1857L137.977 14.3795C137.234 17.4447 134.732 19.3512 131.445 19.3605C127.992 19.3466 125.31 17.2832 124.447 14.2041C124.35 13.8672 124.285 13.5163 124.234 13.1562H119.207C119.239 13.5025 119.286 13.8441 119.35 14.1811H119.29C120.32 19.8313 125.273 23.9998 131.417 23.9998C131.431 23.9998 131.436 23.9998 131.445 23.9998C131.454 23.9998 131.463 23.9998 131.477 23.9998C137.298 23.9998 141.905 20.2099 142.949 14.5642L143.013 14.2041L143.046 14.038H142.986V14.0426Z" fill="black"/>
</svg>