<svg xmlns="http://www.w3.org/2000/svg" width="107" height="123" viewBox="0 0 107 123" fill="none"><path d="M61.1368 85.2492V92.0593H61.6786C62.3091 92.0593 62.7426 91.9016 62.9889 91.5961C63.245 91.2708 63.3731 90.6302 63.3731 89.6546V87.4568C63.3731 86.5205 63.2253 85.9095 62.9298 85.6533C62.6342 85.3773 62.0333 85.2492 61.1368 85.2492ZM54.1816 80.6172H61.2058C63.0973 80.6172 64.5553 80.7749 65.5798 81.1001C66.6339 81.4056 67.4024 81.8392 67.8851 82.3911C68.4368 82.9825 68.7914 83.6625 68.9392 84.4115C69.1165 85.2591 69.2052 86.5107 69.2052 88.1565V90.4923C69.2052 92.2367 69.0279 93.4784 68.6634 94.2176C68.2988 95.006 67.6585 95.6072 66.7423 96.0211C65.7867 96.4548 64.5356 96.6716 62.9987 96.6716H61.1467V107.453H54.1915V80.6172H54.1816Z" fill="white"></path><path d="M86.9582 88.7786H80.4956V86.7779C80.4956 85.8515 80.3971 85.2602 80.2099 85.0039C80.0326 84.7576 79.7567 84.6393 79.3922 84.6393C78.9588 84.6393 78.6435 84.8068 78.4465 85.1321C78.2101 85.477 78.0918 85.9993 78.0918 86.7089C78.0918 87.5565 78.2199 88.2267 78.476 88.7096C78.7322 89.1925 79.3824 89.7444 80.4463 90.3751C83.5496 92.2082 85.5002 93.7062 86.308 94.879C87.106 96.0912 87.5 98.0032 87.5 100.615C87.5 102.507 87.2833 103.907 86.8597 104.823C86.4164 105.73 85.5494 106.489 84.249 107.09C82.9979 107.73 81.5202 108.046 79.8158 108.046C77.9835 108.046 76.3875 107.681 75.0379 106.952C73.6981 106.232 72.8311 105.345 72.4174 104.271C72.0135 103.128 71.8066 101.591 71.8066 99.6293V97.8553H78.279V101.117C78.279 102.083 78.3677 102.724 78.545 103.059C78.7026 103.345 79.0277 103.493 79.5302 103.493C80.0227 103.493 80.3774 103.315 80.5941 102.96C80.7911 102.586 80.8897 102.034 80.8897 101.315C80.8897 99.7279 80.6729 98.6931 80.2395 98.2298C79.8356 97.7469 78.7519 96.9289 76.9885 95.7759C75.2842 94.6622 74.1414 93.8245 73.5601 93.2726C73.0085 92.7798 72.5454 92.0801 72.1612 91.1438C71.777 90.2076 71.5898 89.0348 71.5898 87.6058C71.5898 85.5854 71.846 84.0775 72.3681 83.1019C72.8705 82.136 73.7178 81.387 74.9098 80.845C76.1609 80.3226 77.5697 80.0664 79.1558 80.0664C79.737 80.0664 80.3084 80.096 80.8503 80.165C81.4019 80.2339 81.9339 80.3325 82.4462 80.4803C82.9683 80.6282 83.4116 80.7859 83.786 80.9632C85.0371 81.525 85.8745 82.2642 86.2981 83.161C86.7021 84.0184 86.9089 85.5263 86.9089 87.6649L86.9582 88.7786Z" fill="white"></path><path d="M97.213 85.2492V102.89C98.208 102.89 98.8286 102.683 99.0651 102.279C99.3212 101.855 99.4493 100.762 99.4493 98.9777V88.5606C99.4493 87.2991 99.4 86.5205 99.3212 86.2249C99.2325 85.8898 99.0454 85.6434 98.7695 85.4759C98.5232 85.3182 98.0109 85.2492 97.213 85.2492ZM90.2578 80.6172H95.4791C98.8188 80.6172 101.085 80.7749 102.306 81.1001C103.498 81.3958 104.405 81.9082 105.025 82.6277C105.626 83.3077 106.001 84.0961 106.168 84.9634C106.335 85.7617 106.414 87.4667 106.414 90.0882V99.5001C106.414 101.974 106.296 103.58 106.069 104.319C105.823 105.157 105.439 105.788 104.897 106.212C104.316 106.694 103.626 107.03 102.828 107.207C101.922 107.384 100.661 107.473 99.0552 107.473H90.2775V80.6172H90.2578Z" fill="white"></path><path d="M36.4873 71.5795C56.2396 71.5795 72.2581 55.5547 72.2581 35.7947C72.268 16.0248 56.2494 0 36.4873 0V71.5795Z" fill="white"></path><path d="M31.7983 0.0117188V16.618C31.7983 21.2303 29.6507 25.5765 25.9958 28.3755L0.716797 47.7807V31.1842C0.716797 26.5719 2.86442 22.2257 6.51933 19.4268L31.7983 0.0117188Z" fill="white"></path><path d="M31.7983 29.8711V46.4577C31.7983 51.07 29.6507 55.4162 25.9958 58.2151L0.716797 77.6203V61.0436C0.716797 56.4313 2.86442 52.0851 6.51933 49.2763L31.7983 29.8711Z" fill="white"></path><path d="M31.7983 59.7031V76.2996C31.7983 80.9119 29.6507 85.2581 25.9958 88.0669L0.716797 107.462V90.8658C0.716797 86.2535 2.86442 81.9073 6.51933 79.1083L31.7983 59.7031Z" fill="white"></path><path d="M3.24812 113.802L2.29252 118.582H4.22342L3.24812 113.802ZM3.62248 112.383L5.7307 121.883H4.89332L4.37119 119.282H2.14475L1.62262 121.883H0.775391L2.88361 112.383H3.62248Z" fill="white"></path><path d="M13.2965 114.984C13.5822 114.984 13.8088 115.024 13.9763 115.103C14.1438 115.181 14.3014 115.3 14.4393 115.448C14.5772 115.595 14.6758 115.763 14.7447 115.97C14.8137 116.177 14.8531 116.443 14.8531 116.788V121.893H14.1142V116.778C14.1142 116.404 14.0256 116.128 13.8384 115.94C13.6512 115.753 13.4345 115.664 13.1783 115.664C12.9222 115.664 12.6956 115.763 12.5084 115.94C12.3212 116.128 12.2326 116.413 12.2326 116.778V121.893H11.4839V116.778C11.4839 116.404 11.3952 116.128 11.208 115.94C11.0208 115.753 10.8041 115.664 10.548 115.664C10.2918 115.664 10.0653 115.763 9.87807 115.94C9.69089 116.128 9.60223 116.413 9.60223 116.778V121.893H8.85352V115.093H9.59238V115.645C9.64164 115.576 9.69089 115.497 9.7697 115.418C9.84852 115.339 9.91748 115.27 9.97659 115.231C10.2032 115.063 10.4593 114.984 10.745 114.984C11.0011 114.984 11.2474 115.053 11.474 115.191C11.7006 115.329 11.8779 115.497 12.0158 115.704C12.075 115.615 12.1538 115.526 12.2326 115.438C12.3114 115.349 12.4001 115.28 12.4887 115.231C12.6069 115.162 12.735 115.103 12.8729 115.053C13.001 115.004 13.1488 114.984 13.2965 114.984Z" fill="white"></path><path d="M17.7304 115.655C17.5826 115.655 17.4447 115.684 17.3265 115.743C17.2083 115.802 17.1196 115.871 17.0506 115.96C16.9127 116.108 16.8339 116.344 16.7945 116.65C16.7551 116.965 16.7255 117.409 16.7255 118H18.7549C18.7451 117.419 18.7254 116.965 18.6761 116.65C18.6269 116.344 18.5382 116.108 18.4101 115.96C18.3412 115.871 18.2525 115.793 18.1343 115.743C18.0161 115.684 17.888 115.655 17.7304 115.655ZM17.7304 114.984C18.2328 114.984 18.6466 115.152 18.9421 115.477C19.1687 115.724 19.3066 116.098 19.3854 116.581C19.4544 117.064 19.4938 117.744 19.4938 118.601H16.7157C16.7157 119.291 16.7354 119.823 16.7748 120.198C16.8142 120.572 16.9127 120.838 17.0605 121.016C17.1294 121.105 17.228 121.183 17.3363 121.233C17.4545 121.292 17.5826 121.321 17.7402 121.321C17.8782 121.321 17.9964 121.302 18.1244 121.262C18.2427 121.223 18.351 121.154 18.4397 121.055C18.6367 120.848 18.7352 120.533 18.7352 120.099H19.4643C19.4643 120.425 19.4248 120.7 19.346 120.927C19.2672 121.154 19.149 121.351 18.9618 121.528C18.6564 121.844 18.2525 122.001 17.7304 122.001C17.228 122.001 16.8142 121.834 16.499 121.509C16.2724 121.262 16.1344 120.907 16.0556 120.434C15.9867 119.961 15.9473 119.321 15.9473 118.503C15.9473 117.685 15.9768 117.034 16.0458 116.571C16.1147 116.098 16.2625 115.743 16.4891 115.487C16.824 115.152 17.228 114.984 17.7304 114.984Z" fill="white"></path><path d="M25.0681 114.984C25.3538 114.984 25.5804 115.024 25.7479 115.103C25.9153 115.181 26.073 115.3 26.2207 115.448C26.3488 115.595 26.4572 115.763 26.5261 115.97C26.5951 116.177 26.6345 116.443 26.6345 116.788V121.893H25.8858V116.778C25.8858 116.404 25.7971 116.128 25.6099 115.94C25.4228 115.753 25.206 115.664 24.9499 115.664C24.6938 115.664 24.4672 115.763 24.28 115.94C24.0928 116.128 24.0042 116.413 24.0042 116.778V121.893H23.2554V116.778C23.2554 116.404 23.1668 116.128 22.9796 115.94C22.7924 115.753 22.5757 115.664 22.3195 115.664C22.0634 115.664 21.8368 115.763 21.6496 115.94C21.4625 116.118 21.3738 116.413 21.3738 116.778V121.893H20.6152V115.093H21.3541V115.645C21.4034 115.576 21.4526 115.497 21.5314 115.418C21.6102 115.339 21.6792 115.27 21.7383 115.231C21.9649 115.063 22.221 114.984 22.5166 114.984C22.7727 114.984 23.019 115.053 23.2456 115.191C23.4722 115.329 23.6495 115.497 23.7874 115.704C23.8465 115.615 23.9253 115.526 24.0042 115.438C24.083 115.349 24.1716 115.28 24.2603 115.231C24.3785 115.162 24.5066 115.103 24.6445 115.053C24.7726 115.004 24.9105 114.984 25.0681 114.984Z" fill="white"></path><path d="M30.6164 118.491C30.6164 118.107 30.6164 117.782 30.5967 117.506C30.5868 117.23 30.577 116.993 30.5474 116.786C30.5277 116.589 30.4883 116.422 30.4489 116.284C30.3997 116.146 30.3405 116.037 30.2617 115.949C30.1928 115.86 30.1041 115.791 29.9859 115.732C29.8775 115.673 29.7495 115.643 29.6017 115.643C29.3455 115.643 29.1288 115.732 28.9613 115.899C28.7446 116.106 28.6362 116.412 28.6362 116.836V120.137C28.6362 120.561 28.7446 120.876 28.9613 121.073C29.1288 121.241 29.3455 121.33 29.6017 121.33C29.7396 121.33 29.8677 121.3 29.9859 121.251C30.0943 121.202 30.1829 121.123 30.2617 121.034C30.3405 120.945 30.4095 120.837 30.4489 120.699C30.4982 120.571 30.5277 120.403 30.5474 120.196C30.5671 119.999 30.5868 119.763 30.5967 119.487C30.6065 119.211 30.6164 118.876 30.6164 118.491ZM31.3651 118.491C31.3651 118.915 31.3553 119.29 31.3454 119.615C31.3257 119.94 31.306 120.226 31.2666 120.462C31.237 120.709 31.1779 120.906 31.1188 121.073C31.0499 121.241 30.9612 121.389 30.8627 121.497C30.577 121.822 30.2223 121.98 29.7987 121.98C29.4933 121.98 29.247 121.901 29.0401 121.753C28.9712 121.714 28.9022 121.645 28.8234 121.566C28.7545 121.487 28.6953 121.408 28.6461 121.339V121.872H27.9072V112.371H28.6559V115.604C28.6953 115.535 28.7545 115.456 28.8234 115.387C28.8924 115.308 28.9613 115.249 29.0303 115.209C29.2372 115.062 29.4835 114.983 29.7889 114.983C30.2125 114.983 30.5671 115.14 30.8528 115.466C30.9612 115.594 31.0499 115.742 31.109 115.909C31.1779 116.077 31.2272 116.284 31.2567 116.52C31.2961 116.757 31.3158 117.043 31.3355 117.368C31.3553 117.693 31.3651 118.068 31.3651 118.491Z" fill="white"></path><path d="M34.123 115.655C33.9752 115.655 33.8373 115.684 33.7191 115.743C33.6008 115.802 33.5122 115.871 33.4432 115.96C33.3053 116.108 33.2265 116.344 33.1871 116.65C33.1477 116.965 33.1181 117.409 33.1181 118H35.1475C35.1377 117.419 35.118 116.965 35.0687 116.65C35.0195 116.344 34.9308 116.108 34.8027 115.96C34.7338 115.871 34.6451 115.793 34.5269 115.743C34.4087 115.684 34.2806 115.655 34.123 115.655ZM34.123 114.984C34.6254 114.984 35.0392 115.152 35.3347 115.477C35.5613 115.724 35.6992 116.098 35.778 116.581C35.847 117.064 35.8864 117.744 35.8864 118.601H33.1083C33.1083 119.291 33.128 119.823 33.1674 120.198C33.2068 120.572 33.3053 120.838 33.4531 121.016C33.522 121.105 33.6205 121.183 33.7289 121.233C33.8471 121.292 33.9752 121.321 34.1328 121.321C34.2609 121.321 34.389 121.302 34.5072 121.262C34.6254 121.223 34.7338 121.154 34.8224 121.055C35.0195 120.848 35.118 120.533 35.118 120.099H35.847C35.847 120.425 35.8076 120.7 35.7288 120.927C35.65 121.154 35.5317 121.351 35.3446 121.528C35.0392 121.844 34.6352 122.001 34.123 122.001C33.6107 122.001 33.2068 121.834 32.8915 121.509C32.6649 121.262 32.527 120.907 32.4482 120.434C32.3793 119.961 32.3398 119.321 32.3398 118.503C32.3398 117.685 32.3694 117.034 32.4384 116.571C32.5073 116.098 32.6551 115.743 32.8817 115.487C33.2166 115.152 33.6205 114.984 34.123 114.984Z" fill="white"></path><path d="M39.2449 115.694H39.0873C38.6834 115.694 38.3681 115.812 38.1317 116.049C37.8953 116.285 37.777 116.611 37.777 117.015V121.883H37.0283V115.083H37.7672V115.803C37.7967 115.734 37.8558 115.655 37.915 115.566C37.9839 115.477 38.043 115.418 38.0923 115.369C38.3878 115.103 38.772 114.965 39.2548 114.965V115.694H39.2449Z" fill="white"></path><path d="M44.0622 115.655C43.9144 115.655 43.7765 115.684 43.6582 115.743C43.54 115.802 43.4514 115.871 43.3824 115.96C43.2346 116.147 43.1361 116.433 43.1066 116.817C43.0672 117.202 43.0573 117.764 43.0573 118.493C43.0573 119.222 43.077 119.774 43.1066 120.158C43.1361 120.543 43.2346 120.829 43.3824 121.016C43.4514 121.105 43.5499 121.183 43.6582 121.233C43.7765 121.292 43.9045 121.321 44.0622 121.321C44.2099 121.321 44.3479 121.292 44.4562 121.233C44.5646 121.174 44.6631 121.105 44.7321 121.016C44.8798 120.829 44.9784 120.543 45.0178 120.158C45.0572 119.774 45.0769 119.222 45.0769 118.493C45.0769 117.764 45.0572 117.202 45.0178 116.817C44.9784 116.433 44.8798 116.147 44.7321 115.96C44.6631 115.871 44.5744 115.793 44.4562 115.743C44.338 115.684 44.2099 115.655 44.0622 115.655ZM44.0622 114.984C44.604 114.984 45.0178 115.162 45.3133 115.536C45.5202 115.783 45.6581 116.137 45.7172 116.601C45.7763 117.064 45.8157 117.695 45.8157 118.493C45.8157 119.291 45.7862 119.922 45.7172 120.385C45.6483 120.848 45.5103 121.203 45.3133 121.45C45.0178 121.804 44.604 121.982 44.0622 121.982C43.5203 121.982 43.1066 121.804 42.811 121.45C42.6041 121.203 42.4662 120.848 42.4071 120.385C42.3381 119.922 42.3086 119.291 42.3086 118.493C42.3086 117.695 42.3381 117.064 42.4071 116.601C42.4761 116.137 42.614 115.783 42.811 115.536C43.0967 115.172 43.5203 114.984 44.0622 114.984Z" fill="white"></path><path d="M49.2065 113.051C48.4282 113.051 48.044 113.435 48.044 114.204V115.101H49.2065V115.682H48.044V121.891H47.2953V115.682H46.4678V115.101H47.2953V114.204C47.2953 113.603 47.4726 113.13 47.8174 112.814C48.0046 112.637 48.2213 112.519 48.4578 112.469C48.7041 112.42 48.9504 112.391 49.2065 112.391V113.051Z" fill="white"></path><path d="M53.8568 113.733V116.818H54.6942C55.0981 116.818 55.3641 116.68 55.4922 116.414C55.6202 116.138 55.6892 115.763 55.6892 115.29C55.6892 114.807 55.6202 114.433 55.4922 114.157C55.3542 113.881 55.0882 113.743 54.6942 113.743H53.8568V113.733ZM54.7533 112.383C55.6202 112.383 56.2409 112.619 56.6251 113.083C57.0093 113.546 57.1965 114.285 57.1965 115.28C57.1965 116.276 56.9994 117.005 56.6251 117.468C56.2409 117.931 55.6202 118.158 54.7533 118.158H53.8568V121.883H52.3594V112.383H54.7533Z" fill="white"></path><path d="M62.1617 113.733H59.6693V116.384H61.8169V117.734H59.6693V120.543H62.1617V121.883H58.1719V112.383H62.1617V113.733Z" fill="white"></path><path d="M67.5681 113.733H65.9722V121.883H64.4748V113.733H62.8887V112.383H67.5681V113.733Z" fill="white"></path><path d="M69.9328 113.733V116.64H70.849C71.046 116.64 71.2036 116.601 71.3317 116.522C71.4598 116.443 71.5484 116.345 71.6076 116.207C71.6667 116.069 71.7159 115.911 71.7356 115.734C71.7553 115.556 71.7652 115.369 71.7652 115.172C71.7652 114.975 71.7553 114.788 71.7356 114.61C71.7159 114.433 71.6667 114.275 71.6076 114.147C71.5484 114.009 71.4499 113.91 71.3317 113.832C71.2036 113.753 71.046 113.713 70.849 113.713H69.9328V113.733ZM70.8391 112.383C71.7159 112.383 72.3366 112.6 72.7109 113.043C73.0853 113.487 73.2725 114.196 73.2725 115.182C73.2725 115.773 73.1936 116.276 73.0459 116.69C72.8981 117.113 72.6026 117.429 72.1691 117.665L73.5877 121.883H72.0312L70.7899 117.981H69.9525V121.883H68.4551V112.383H70.8391Z" fill="white"></path><path d="M76.7702 120.65C76.9475 120.65 77.0953 120.621 77.2135 120.552C77.3317 120.483 77.4204 120.394 77.4894 120.296C77.6371 120.059 77.7159 119.695 77.7553 119.202C77.7948 118.709 77.8046 118.019 77.8046 117.142C77.8046 116.275 77.7849 115.585 77.7553 115.082C77.7258 114.58 77.6273 114.225 77.4894 113.988C77.4204 113.88 77.3219 113.791 77.2135 113.732C77.0953 113.663 76.9475 113.633 76.7702 113.633C76.5929 113.633 76.4451 113.663 76.3367 113.732C76.2284 113.801 76.1299 113.89 76.0609 113.988C75.923 114.215 75.8245 114.58 75.785 115.082C75.7456 115.585 75.7259 116.265 75.7259 117.142C75.7259 118.019 75.7456 118.699 75.785 119.202C75.8245 119.704 75.9131 120.059 76.0609 120.296C76.1299 120.404 76.2284 120.493 76.3367 120.552C76.4451 120.611 76.5929 120.65 76.7702 120.65ZM76.7702 121.991C76.3269 121.991 75.9525 121.912 75.6668 121.754C75.3713 121.597 75.125 121.409 74.928 121.173C74.7703 120.986 74.6423 120.779 74.5536 120.542C74.4649 120.306 74.396 120.03 74.3467 119.714C74.2975 119.399 74.2679 119.034 74.2482 118.61C74.2384 118.187 74.2285 117.694 74.2285 117.132C74.2285 116.57 74.2384 116.078 74.2482 115.654C74.2581 115.23 74.2975 114.865 74.3467 114.55C74.396 114.235 74.4649 113.959 74.5536 113.722C74.6423 113.486 74.7605 113.279 74.928 113.091C75.125 112.865 75.3713 112.668 75.6668 112.51C75.9624 112.352 76.3269 112.273 76.7702 112.273C77.2135 112.273 77.5879 112.352 77.8736 112.51C78.1691 112.668 78.4154 112.865 78.6026 113.091C78.7602 113.279 78.8883 113.486 78.9868 113.722C79.0853 113.949 79.1543 114.225 79.1937 114.55C79.2429 114.875 79.2725 115.24 79.2823 115.664C79.2922 116.087 79.302 116.58 79.302 117.142C79.302 117.704 79.2922 118.197 79.2823 118.62C79.2725 119.044 79.2429 119.419 79.1937 119.734C79.1543 120.059 79.0853 120.335 78.9868 120.562C78.8883 120.798 78.7701 121.005 78.6026 121.193C78.4055 121.429 78.1593 121.616 77.8736 121.774C77.5879 121.912 77.2135 121.991 76.7702 121.991Z" fill="white"></path><path d="M82.6036 112.305C83.3425 112.305 83.9138 112.502 84.3079 112.876C84.5542 113.123 84.7315 113.408 84.83 113.753C84.9285 114.098 84.9778 114.493 84.9778 114.946H83.4804C83.4804 114.729 83.4705 114.542 83.441 114.374C83.4114 114.207 83.3523 114.059 83.2538 113.931C83.106 113.744 82.8893 113.655 82.5839 113.655C82.4361 113.655 82.308 113.684 82.1997 113.724C82.1012 113.773 82.0125 113.842 81.9435 113.921C81.7761 114.118 81.6874 114.424 81.6874 114.857C81.6874 115.054 81.6972 115.212 81.717 115.35C81.7367 115.488 81.7761 115.596 81.8352 115.695C81.8943 115.793 81.9731 115.872 82.0815 115.941C82.18 116.01 82.3179 116.079 82.4854 116.138L83.6084 116.592C83.8941 116.71 84.1306 116.838 84.3177 116.976C84.5049 117.114 84.6527 117.292 84.7611 117.498C84.8694 117.705 84.9384 117.952 84.9877 118.228C85.0271 118.514 85.0566 118.859 85.0566 119.253C85.0566 119.745 85.0172 120.159 84.9285 120.495C84.8399 120.83 84.6823 121.115 84.436 121.352C84.2389 121.539 83.9927 121.687 83.6873 121.805C83.3819 121.924 83.0173 121.983 82.5839 121.983C81.7761 121.983 81.1554 121.776 80.7417 121.352C80.5151 121.125 80.3476 120.849 80.2589 120.534C80.1703 120.228 80.1309 119.814 80.1309 119.302H81.6283C81.6283 119.558 81.648 119.775 81.6775 119.933C81.717 120.1 81.7859 120.238 81.8943 120.366C81.9632 120.435 82.0519 120.494 82.1701 120.544C82.2785 120.593 82.4263 120.613 82.5937 120.613C82.9188 120.613 83.1651 120.524 83.3129 120.347C83.4114 120.228 83.4705 120.09 83.5099 119.923C83.5493 119.755 83.5592 119.548 83.5592 119.292C83.5592 119.046 83.5493 118.839 83.5296 118.661C83.5099 118.494 83.4607 118.356 83.4016 118.238C83.3424 118.119 83.2439 118.031 83.1257 117.952C83.0075 117.873 82.8597 117.794 82.6725 117.725L81.5298 117.282C81.2835 117.183 81.0865 117.075 80.919 116.947C80.7515 116.818 80.6136 116.671 80.5151 116.483C80.4166 116.306 80.3377 116.079 80.2885 115.823C80.2392 115.567 80.2195 115.251 80.2195 114.887C80.2195 114.463 80.2885 114.079 80.4166 113.734C80.5446 113.389 80.7416 113.103 80.9978 112.876C81.2047 112.699 81.4411 112.561 81.717 112.453C81.9632 112.354 82.2686 112.305 82.6036 112.305Z" fill="white"></path><path d="M90.0494 113.733H87.557V116.384H89.7046V117.734H87.557V120.543H90.0494V121.883H86.0596V112.383H90.0494V113.733Z" fill="white"></path><path d="M95.4578 113.733H93.8618V121.883H92.3644V113.733H90.7783V112.383H95.4578V113.733Z" fill="white"></path><path d="M98.61 112.273C98.9746 112.273 99.2898 112.323 99.5558 112.431C99.8218 112.53 100.058 112.687 100.275 112.894C100.511 113.121 100.699 113.397 100.827 113.742C100.955 114.087 101.024 114.471 101.034 114.895H99.5361C99.5262 114.718 99.5065 114.55 99.477 114.392C99.4474 114.235 99.3883 114.097 99.3095 113.978C99.2405 113.87 99.142 113.791 99.0337 113.722C98.9253 113.663 98.7775 113.624 98.6002 113.624C98.4229 113.624 98.2751 113.653 98.1667 113.722C98.0485 113.791 97.9598 113.88 97.8909 113.978C97.7431 114.205 97.6446 114.57 97.6052 115.072C97.5756 115.575 97.5559 116.255 97.5559 117.132C97.5559 118.009 97.5756 118.689 97.6052 119.192C97.6446 119.695 97.7333 120.049 97.8909 120.286C97.9598 120.394 98.0485 120.483 98.1667 120.542C98.2751 120.611 98.4229 120.641 98.6002 120.641C98.7775 120.641 98.9253 120.611 99.0337 120.542C99.142 120.483 99.2307 120.394 99.3095 120.286C99.3883 120.158 99.4474 120.02 99.477 119.862C99.5065 119.704 99.5262 119.537 99.5361 119.359H101.034C101.014 119.783 100.945 120.177 100.807 120.532C100.669 120.887 100.482 121.173 100.245 121.39C100.039 121.597 99.7922 121.744 99.5361 121.843C99.2799 121.942 98.9647 121.991 98.6002 121.991C98.1569 121.991 97.7825 121.912 97.4968 121.754C97.2013 121.597 96.955 121.4 96.7678 121.173C96.6102 120.986 96.4821 120.779 96.3935 120.542C96.3048 120.315 96.2358 120.039 96.1866 119.714C96.1373 119.399 96.1078 119.024 96.0881 118.601C96.0782 118.177 96.0684 117.684 96.0684 117.122C96.0684 116.561 96.0782 116.068 96.0881 115.644C96.0979 115.22 96.1373 114.846 96.1866 114.53C96.2358 114.205 96.3048 113.929 96.3935 113.702C96.4821 113.476 96.6102 113.259 96.7678 113.072C96.9648 112.835 97.2111 112.648 97.4968 112.49C97.7924 112.352 98.1667 112.273 98.61 112.273Z" fill="white"></path><path d="M104.385 120.65C104.563 120.65 104.71 120.621 104.829 120.552C104.947 120.483 105.036 120.394 105.105 120.296C105.252 120.059 105.331 119.695 105.371 119.202C105.41 118.709 105.42 118.019 105.42 117.142C105.42 116.275 105.4 115.585 105.371 115.082C105.341 114.58 105.242 114.225 105.105 113.988C105.036 113.88 104.937 113.791 104.829 113.732C104.71 113.663 104.563 113.633 104.385 113.633C104.208 113.633 104.06 113.663 103.952 113.732C103.844 113.801 103.755 113.89 103.676 113.988C103.538 114.215 103.44 114.58 103.4 115.082C103.361 115.585 103.341 116.265 103.341 117.142C103.341 118.019 103.361 118.699 103.4 119.202C103.44 119.704 103.528 120.059 103.676 120.296C103.745 120.404 103.844 120.493 103.952 120.552C104.07 120.611 104.208 120.65 104.385 120.65ZM104.385 121.991C103.942 121.991 103.568 121.912 103.282 121.754C102.986 121.597 102.74 121.409 102.553 121.173C102.395 120.986 102.267 120.779 102.179 120.542C102.09 120.306 102.021 120.03 101.972 119.714C101.922 119.399 101.893 119.034 101.873 118.61C101.863 118.187 101.854 117.694 101.854 117.132C101.854 116.57 101.863 116.078 101.873 115.654C101.883 115.23 101.922 114.865 101.972 114.55C102.021 114.235 102.09 113.959 102.179 113.722C102.267 113.486 102.385 113.279 102.553 113.091C102.75 112.865 102.996 112.668 103.282 112.51C103.578 112.352 103.942 112.273 104.385 112.273C104.829 112.273 105.203 112.352 105.489 112.51C105.784 112.668 106.031 112.865 106.218 113.091C106.375 113.279 106.503 113.486 106.602 113.722C106.7 113.949 106.769 114.225 106.809 114.55C106.858 114.875 106.888 115.24 106.897 115.664C106.907 116.087 106.917 116.58 106.917 117.142C106.917 117.704 106.907 118.197 106.897 118.62C106.888 119.044 106.858 119.419 106.809 119.734C106.769 120.059 106.7 120.335 106.602 120.562C106.503 120.798 106.385 121.005 106.218 121.193C106.021 121.429 105.774 121.616 105.489 121.774C105.203 121.912 104.839 121.991 104.385 121.991Z" fill="white"></path><path d="M60.6446 85.2492V92.0593H61.1864C61.8169 92.0593 62.2504 91.9016 62.4967 91.5961C62.7528 91.2708 62.8809 90.6302 62.8809 89.6546V87.4568C62.8809 86.5205 62.7331 85.9095 62.4376 85.6533C62.142 85.3773 61.5411 85.2492 60.6446 85.2492ZM53.6895 80.6172H60.7136C62.6051 80.6172 64.0631 80.7749 65.0876 81.1001C66.1418 81.4056 66.9102 81.8392 67.3929 82.3911C67.9446 82.9825 68.2992 83.6625 68.447 84.4115C68.6243 85.2591 68.713 86.5107 68.713 88.1565V90.4923C68.713 92.2367 68.5357 93.4784 68.1712 94.2176C67.8067 95.006 67.1663 95.6072 66.2501 96.0211C65.2945 96.4548 64.0434 96.6716 62.5065 96.6716H60.6545V107.453H53.6993V80.6172H53.6895Z" fill="#006CA6"></path><path d="M86.466 88.7786H80.0034V86.7779C80.0034 85.8515 79.9049 85.2602 79.7177 85.0039C79.5404 84.7576 79.2646 84.6393 78.9 84.6393C78.4666 84.6393 78.1513 84.8068 77.9543 85.1321C77.7179 85.477 77.5996 85.9993 77.5996 86.7089C77.5996 87.5565 77.7277 88.2267 77.9839 88.7096C78.24 89.1925 78.8902 89.7444 79.9542 90.3751C83.0574 92.2082 85.008 93.7062 85.8158 94.879C86.6138 96.0912 87.0078 98.0032 87.0078 100.615C87.0078 102.507 86.7911 103.907 86.3675 104.823C85.9242 105.73 85.0572 106.489 83.7568 107.09C82.5057 107.73 81.028 108.046 79.3237 108.046C77.4913 108.046 75.8953 107.681 74.5457 106.952C73.2059 106.232 72.3389 105.345 71.9252 104.271C71.5213 103.128 71.3144 101.591 71.3144 99.6293V97.8553H77.7868V101.117C77.7868 102.083 77.8755 102.724 78.0528 103.059C78.2104 103.345 78.5355 103.493 79.038 103.493C79.5305 103.493 79.8852 103.315 80.1019 102.96C80.299 102.586 80.3975 102.034 80.3975 101.315C80.3975 99.7279 80.1807 98.6931 79.7473 98.2298C79.3434 97.7469 78.2597 96.9289 76.4963 95.7759C74.792 94.6622 73.6492 93.8245 73.068 93.2726C72.5163 92.7798 72.0532 92.0801 71.669 91.1438C71.2848 90.2076 71.0977 89.0348 71.0977 87.6058C71.0977 85.5854 71.3538 84.0775 71.8759 83.1019C72.3784 82.136 73.2256 81.387 74.4176 80.845C75.6687 80.3226 77.0775 80.0664 78.6636 80.0664C79.2449 80.0664 79.8162 80.096 80.3581 80.165C80.9097 80.2339 81.4417 80.3325 81.954 80.4803C82.4761 80.6282 82.9195 80.7859 83.2938 80.9632C84.545 81.525 85.3823 82.2642 85.806 83.161C86.2099 84.0184 86.4167 85.5263 86.4167 87.6649L86.466 88.7786Z" fill="#006CA6"></path><path d="M96.7208 85.2492V102.89C97.7158 102.89 98.3364 102.683 98.5729 102.279C98.829 101.855 98.9571 100.762 98.9571 98.9777V88.5606C98.9571 87.2991 98.9078 86.5205 98.829 86.2249C98.7403 85.8898 98.5532 85.6434 98.2773 85.4759C98.031 85.3182 97.5188 85.2492 96.7208 85.2492ZM89.7656 80.6172H94.9869C98.3266 80.6172 100.592 80.7749 101.814 81.1001C103.006 81.3958 103.912 81.9082 104.533 82.6277C105.134 83.3077 105.508 84.0961 105.676 84.9634C105.843 85.7617 105.922 87.4667 105.922 90.0882V99.5001C105.922 101.974 105.804 103.58 105.577 104.319C105.331 105.157 104.947 105.788 104.405 106.212C103.824 106.694 103.134 107.03 102.336 107.207C101.43 107.384 100.169 107.473 98.563 107.473H89.7853V80.6172H89.7656Z" fill="#006CA6"></path><path d="M35.9951 71.5795C55.7474 71.5795 71.7659 55.5547 71.7659 35.7947C71.7758 16.0248 55.7572 0 35.9951 0V71.5795Z" fill="#EBA820"></path><path d="M31.3061 0.0117188V16.618C31.3061 21.2303 29.1585 25.5765 25.5036 28.3755L0.224609 47.7807V31.1842C0.224609 26.5719 2.37224 22.2257 6.02715 19.4268L31.3061 0.0117188Z" fill="#B9BFCB"></path><path d="M31.3061 29.8711V46.4577C31.3061 51.07 29.1585 55.4162 25.5036 58.2151L0.224609 77.6203V61.0436C0.224609 56.4313 2.37224 52.0851 6.02715 49.2763L31.3061 29.8711Z" fill="#878688"></path><path d="M31.3061 59.7031V76.2996C31.3061 80.9119 29.1585 85.2581 25.5036 88.0669L0.224609 107.462V90.8658C0.224609 86.2535 2.37224 81.9073 6.02715 79.1083L31.3061 59.7031Z" fill="#555355"></path><path d="M2.75593 113.802L1.80033 118.582H3.73123L2.75593 113.802ZM3.13029 112.383L5.23851 121.883H4.40113L3.879 119.282H1.65256L1.13043 121.883H0.283203L2.39143 112.383H3.13029Z" fill="#B9BFCB"></path><path d="M12.8044 114.984C13.0901 114.984 13.3166 115.024 13.4841 115.103C13.6516 115.181 13.8092 115.3 13.9471 115.448C14.0851 115.595 14.1836 115.763 14.2525 115.97C14.3215 116.177 14.3609 116.443 14.3609 116.788V121.893H13.622V116.778C13.622 116.404 13.5334 116.128 13.3462 115.94C13.159 115.753 12.9423 115.664 12.6861 115.664C12.43 115.664 12.2034 115.763 12.0162 115.94C11.8291 116.128 11.7404 116.413 11.7404 116.778V121.893H10.9917V116.778C10.9917 116.404 10.903 116.128 10.7158 115.94C10.5287 115.753 10.3119 115.664 10.0558 115.664C9.79965 115.664 9.57306 115.763 9.38588 115.94C9.19871 116.128 9.11004 116.413 9.11004 116.778V121.893H8.36133V115.093H9.10019V115.645C9.14945 115.576 9.19871 115.497 9.27752 115.418C9.35633 115.339 9.42529 115.27 9.4844 115.231C9.71098 115.063 9.96712 114.984 10.2528 114.984C10.509 114.984 10.7552 115.053 10.9818 115.191C11.2084 115.329 11.3857 115.497 11.5237 115.704C11.5828 115.615 11.6616 115.526 11.7404 115.438C11.8192 115.349 11.9079 115.28 11.9965 115.231C12.1148 115.162 12.2428 115.103 12.3807 115.053C12.5088 115.004 12.6566 114.984 12.8044 114.984Z" fill="#B9BFCB"></path><path d="M17.2382 115.655C17.0904 115.655 16.9525 115.684 16.8343 115.743C16.7161 115.802 16.6274 115.871 16.5584 115.96C16.4205 116.108 16.3417 116.344 16.3023 116.65C16.2629 116.965 16.2333 117.409 16.2333 118H18.2628C18.2529 117.419 18.2332 116.965 18.1839 116.65C18.1347 116.344 18.046 116.108 17.918 115.96C17.849 115.871 17.7603 115.793 17.6421 115.743C17.5239 115.684 17.3958 115.655 17.2382 115.655ZM17.2382 114.984C17.7406 114.984 18.1544 115.152 18.4499 115.477C18.6765 115.724 18.8144 116.098 18.8933 116.581C18.9622 117.064 19.0016 117.744 19.0016 118.601H16.2235C16.2235 119.291 16.2432 119.823 16.2826 120.198C16.322 120.572 16.4205 120.838 16.5683 121.016C16.6373 121.105 16.7358 121.183 16.8441 121.233C16.9624 121.292 17.0904 121.321 17.2481 121.321C17.386 121.321 17.5042 121.302 17.6323 121.262C17.7505 121.223 17.8588 121.154 17.9475 121.055C18.1445 120.848 18.2431 120.533 18.2431 120.099H18.9721C18.9721 120.425 18.9327 120.7 18.8538 120.927C18.775 121.154 18.6568 121.351 18.4696 121.528C18.1642 121.844 17.7603 122.001 17.2382 122.001C16.7358 122.001 16.322 121.834 16.0068 121.509C15.7802 121.262 15.6423 120.907 15.5634 120.434C15.4945 119.961 15.4551 119.321 15.4551 118.503C15.4551 117.685 15.4846 117.034 15.5536 116.571C15.6226 116.098 15.7703 115.743 15.9969 115.487C16.3319 115.152 16.7358 114.984 17.2382 114.984Z" fill="#B9BFCB"></path><path d="M24.5759 114.984C24.8616 114.984 25.0882 115.024 25.2557 115.103C25.4232 115.181 25.5808 115.3 25.7286 115.448C25.8566 115.595 25.965 115.763 26.0339 115.97C26.1029 116.177 26.1423 116.443 26.1423 116.788V121.893H25.3936V116.778C25.3936 116.404 25.3049 116.128 25.1178 115.94C24.9306 115.753 24.7138 115.664 24.4577 115.664C24.2016 115.664 23.975 115.763 23.7878 115.94C23.6006 116.128 23.512 116.413 23.512 116.778V121.893H22.7632V116.778C22.7632 116.404 22.6746 116.128 22.4874 115.94C22.3002 115.753 22.0835 115.664 21.8274 115.664C21.5712 115.664 21.3446 115.763 21.1575 115.94C20.9703 116.118 20.8816 116.413 20.8816 116.778V121.893H20.123V115.093H20.8619V115.645C20.9112 115.576 20.9604 115.497 21.0392 115.418C21.118 115.339 21.187 115.27 21.2461 115.231C21.4727 115.063 21.7288 114.984 22.0244 114.984C22.2805 114.984 22.5268 115.053 22.7534 115.191C22.98 115.329 23.1573 115.497 23.2952 115.704C23.3543 115.615 23.4332 115.526 23.512 115.438C23.5908 115.349 23.6794 115.28 23.7681 115.231C23.8863 115.162 24.0144 115.103 24.1523 115.053C24.2804 115.004 24.4183 114.984 24.5759 114.984Z" fill="#B9BFCB"></path><path d="M30.1242 118.491C30.1242 118.107 30.1242 117.782 30.1045 117.506C30.0946 117.23 30.0848 116.993 30.0552 116.786C30.0355 116.589 29.9961 116.422 29.9567 116.284C29.9075 116.146 29.8484 116.037 29.7695 115.949C29.7006 115.86 29.6119 115.791 29.4937 115.732C29.3853 115.673 29.2573 115.643 29.1095 115.643C28.8534 115.643 28.6366 115.732 28.4691 115.899C28.2524 116.106 28.1441 116.412 28.1441 116.836V120.137C28.1441 120.561 28.2524 120.876 28.4691 121.073C28.6366 121.241 28.8534 121.33 29.1095 121.33C29.2474 121.33 29.3755 121.3 29.4937 121.251C29.6021 121.202 29.6907 121.123 29.7695 121.034C29.8484 120.945 29.9173 120.837 29.9567 120.699C30.006 120.571 30.0355 120.403 30.0552 120.196C30.0749 119.999 30.0946 119.763 30.1045 119.487C30.1144 119.211 30.1242 118.876 30.1242 118.491ZM30.8729 118.491C30.8729 118.915 30.8631 119.29 30.8532 119.615C30.8335 119.94 30.8138 120.226 30.7744 120.462C30.7448 120.709 30.6857 120.906 30.6266 121.073C30.5577 121.241 30.469 121.389 30.3705 121.497C30.0848 121.822 29.7301 121.98 29.3065 121.98C29.0011 121.98 28.7548 121.901 28.548 121.753C28.479 121.714 28.41 121.645 28.3312 121.566C28.2623 121.487 28.2032 121.408 28.1539 121.339V121.872H27.415V112.371H28.1638V115.604C28.2032 115.535 28.2623 115.456 28.3312 115.387C28.4002 115.308 28.4691 115.249 28.5381 115.209C28.745 115.062 28.9913 114.983 29.2967 114.983C29.7203 114.983 30.0749 115.14 30.3606 115.466C30.469 115.594 30.5577 115.742 30.6168 115.909C30.6857 116.077 30.735 116.284 30.7645 116.52C30.804 116.757 30.8237 117.043 30.8434 117.368C30.8631 117.693 30.8729 118.068 30.8729 118.491Z" fill="#B9BFCB"></path><path d="M33.6308 115.655C33.483 115.655 33.3451 115.684 33.2269 115.743C33.1087 115.802 33.02 115.871 32.951 115.96C32.8131 116.108 32.7343 116.344 32.6949 116.65C32.6555 116.965 32.6259 117.409 32.6259 118H34.6553C34.6455 117.419 34.6258 116.965 34.5765 116.65C34.5273 116.344 34.4386 116.108 34.3105 115.96C34.2416 115.871 34.1529 115.793 34.0347 115.743C33.9165 115.684 33.7884 115.655 33.6308 115.655ZM33.6308 114.984C34.1332 114.984 34.547 115.152 34.8425 115.477C35.0691 115.724 35.207 116.098 35.2858 116.581C35.3548 117.064 35.3942 117.744 35.3942 118.601H32.6161C32.6161 119.291 32.6358 119.823 32.6752 120.198C32.7146 120.572 32.8131 120.838 32.9609 121.016C33.0298 121.105 33.1284 121.183 33.2367 121.233C33.3549 121.292 33.483 121.321 33.6406 121.321C33.7687 121.321 33.8968 121.302 34.015 121.262C34.1332 121.223 34.2416 121.154 34.3302 121.055C34.5273 120.848 34.6258 120.533 34.6258 120.099H35.3548C35.3548 120.425 35.3154 120.7 35.2366 120.927C35.1578 121.154 35.0395 121.351 34.8524 121.528C34.547 121.844 34.1431 122.001 33.6308 122.001C33.1185 122.001 32.7146 121.834 32.3993 121.509C32.1728 121.262 32.0348 120.907 31.956 120.434C31.8871 119.961 31.8477 119.321 31.8477 118.503C31.8477 117.685 31.8772 117.034 31.9462 116.571C32.0151 116.098 32.1629 115.743 32.3895 115.487C32.7244 115.152 33.1284 114.984 33.6308 114.984Z" fill="#B9BFCB"></path><path d="M38.7527 115.694H38.5951C38.1912 115.694 37.8759 115.812 37.6395 116.049C37.4031 116.285 37.2848 116.611 37.2848 117.015V121.883H36.5361V115.083H37.275V115.803C37.3046 115.734 37.3637 115.655 37.4228 115.566C37.4917 115.477 37.5508 115.418 37.6001 115.369C37.8956 115.103 38.2798 114.965 38.7626 114.965V115.694H38.7527Z" fill="#B9BFCB"></path><path d="M43.57 115.655C43.4222 115.655 43.2843 115.684 43.1661 115.743C43.0478 115.802 42.9592 115.871 42.8902 115.96C42.7424 116.147 42.6439 116.433 42.6144 116.817C42.575 117.202 42.5651 117.764 42.5651 118.493C42.5651 119.222 42.5848 119.774 42.6144 120.158C42.6439 120.543 42.7424 120.829 42.8902 121.016C42.9592 121.105 43.0577 121.183 43.1661 121.233C43.2843 121.292 43.4123 121.321 43.57 121.321C43.7177 121.321 43.8557 121.292 43.964 121.233C44.0724 121.174 44.1709 121.105 44.2399 121.016C44.3876 120.829 44.4862 120.543 44.5256 120.158C44.565 119.774 44.5847 119.222 44.5847 118.493C44.5847 117.764 44.565 117.202 44.5256 116.817C44.4862 116.433 44.3876 116.147 44.2399 115.96C44.1709 115.871 44.0823 115.793 43.964 115.743C43.8458 115.684 43.7177 115.655 43.57 115.655ZM43.57 114.984C44.1118 114.984 44.5256 115.162 44.8211 115.536C45.028 115.783 45.1659 116.137 45.225 116.601C45.2841 117.064 45.3235 117.695 45.3235 118.493C45.3235 119.291 45.294 119.922 45.225 120.385C45.1561 120.848 45.0181 121.203 44.8211 121.45C44.5256 121.804 44.1118 121.982 43.57 121.982C43.0281 121.982 42.6144 121.804 42.3188 121.45C42.1119 121.203 41.974 120.848 41.9149 120.385C41.846 119.922 41.8164 119.291 41.8164 118.493C41.8164 117.695 41.846 117.064 41.9149 116.601C41.9839 116.137 42.1218 115.783 42.3188 115.536C42.6045 115.172 43.0281 114.984 43.57 114.984Z" fill="#B9BFCB"></path><path d="M48.7143 113.051C47.936 113.051 47.5518 113.435 47.5518 114.204V115.101H48.7143V115.682H47.5518V121.891H46.8031V115.682H45.9756V115.101H46.8031V114.204C46.8031 113.603 46.9804 113.13 47.3252 112.814C47.5124 112.637 47.7292 112.519 47.9656 112.469C48.2119 112.42 48.4582 112.391 48.7143 112.391V113.051Z" fill="#B9BFCB"></path><path d="M53.3646 113.733V116.818H54.202C54.6059 116.818 54.8719 116.68 55 116.414C55.128 116.138 55.197 115.763 55.197 115.29C55.197 114.807 55.128 114.433 55 114.157C54.862 113.881 54.5961 113.743 54.202 113.743H53.3646V113.733ZM54.2611 112.383C55.128 112.383 55.7487 112.619 56.1329 113.083C56.5171 113.546 56.7043 114.285 56.7043 115.28C56.7043 116.276 56.5072 117.005 56.1329 117.468C55.7487 117.931 55.128 118.158 54.2611 118.158H53.3646V121.883H51.8672V112.383H54.2611Z" fill="#B9BFCB"></path><path d="M61.6695 113.733H59.1771V116.384H61.3247V117.734H59.1771V120.543H61.6695V121.883H57.6797V112.383H61.6695V113.733Z" fill="#B9BFCB"></path><path d="M67.0759 113.733H65.48V121.883H63.9826V113.733H62.3965V112.383H67.0759V113.733Z" fill="#B9BFCB"></path><path d="M69.4406 113.733V116.64H70.3568C70.5538 116.64 70.7115 116.601 70.8395 116.522C70.9676 116.443 71.0563 116.345 71.1154 116.207C71.1745 116.069 71.2237 115.911 71.2434 115.734C71.2631 115.556 71.273 115.369 71.273 115.172C71.273 114.975 71.2631 114.788 71.2434 114.61C71.2237 114.433 71.1745 114.275 71.1154 114.147C71.0563 114.009 70.9577 113.91 70.8395 113.832C70.7115 113.753 70.5538 113.713 70.3568 113.713H69.4406V113.733ZM70.347 112.383C71.2237 112.383 71.8444 112.6 72.2187 113.043C72.5931 113.487 72.7803 114.196 72.7803 115.182C72.7803 115.773 72.7015 116.276 72.5537 116.69C72.4059 117.113 72.1104 117.429 71.6769 117.665L73.0955 121.883H71.539L70.2977 117.981H69.4603V121.883H67.9629V112.383H70.347Z" fill="#B9BFCB"></path><path d="M76.278 120.65C76.4553 120.65 76.6031 120.621 76.7213 120.552C76.8396 120.483 76.9282 120.394 76.9972 120.296C77.1449 120.059 77.2238 119.695 77.2632 119.202C77.3026 118.709 77.3124 118.019 77.3124 117.142C77.3124 116.275 77.2927 115.585 77.2632 115.082C77.2336 114.58 77.1351 114.225 76.9972 113.988C76.9282 113.88 76.8297 113.791 76.7213 113.732C76.6031 113.663 76.4553 113.633 76.278 113.633C76.1007 113.633 75.9529 113.663 75.8445 113.732C75.7362 113.801 75.6377 113.89 75.5687 113.988C75.4308 114.215 75.3323 114.58 75.2929 115.082C75.2535 115.585 75.2338 116.265 75.2338 117.142C75.2338 118.019 75.2535 118.699 75.2929 119.202C75.3323 119.704 75.4209 120.059 75.5687 120.296C75.6377 120.404 75.7362 120.493 75.8445 120.552C75.9529 120.611 76.1007 120.65 76.278 120.65ZM76.278 121.991C75.8347 121.991 75.4603 121.912 75.1746 121.754C74.8791 121.597 74.6328 121.409 74.4358 121.173C74.2782 120.986 74.1501 120.779 74.0614 120.542C73.9728 120.306 73.9038 120.03 73.8545 119.714C73.8053 119.399 73.7757 119.034 73.756 118.61C73.7462 118.187 73.7363 117.694 73.7363 117.132C73.7363 116.57 73.7462 116.078 73.756 115.654C73.7659 115.23 73.8053 114.865 73.8545 114.55C73.9038 114.235 73.9728 113.959 74.0614 113.722C74.1501 113.486 74.2683 113.279 74.4358 113.091C74.6328 112.865 74.8791 112.668 75.1746 112.51C75.4702 112.352 75.8347 112.273 76.278 112.273C76.7213 112.273 77.0957 112.352 77.3814 112.51C77.6769 112.668 77.9232 112.865 78.1104 113.091C78.268 113.279 78.3961 113.486 78.4946 113.722C78.5931 113.949 78.6621 114.225 78.7015 114.55C78.7507 114.875 78.7803 115.24 78.7901 115.664C78.8 116.087 78.8098 116.58 78.8098 117.142C78.8098 117.704 78.8 118.197 78.7901 118.62C78.7803 119.044 78.7507 119.419 78.7015 119.734C78.6621 120.059 78.5931 120.335 78.4946 120.562C78.3961 120.798 78.2779 121.005 78.1104 121.193C77.9134 121.429 77.6671 121.616 77.3814 121.774C77.0957 121.912 76.7213 121.991 76.278 121.991Z" fill="#B9BFCB"></path><path d="M82.1114 112.305C82.8503 112.305 83.4216 112.502 83.8157 112.876C84.062 113.123 84.2393 113.408 84.3378 113.753C84.4364 114.098 84.4856 114.493 84.4856 114.946H82.9882C82.9882 114.729 82.9783 114.542 82.9488 114.374C82.9192 114.207 82.8601 114.059 82.7616 113.931C82.6138 113.744 82.3971 113.655 82.0917 113.655C81.9439 113.655 81.8159 113.684 81.7075 113.724C81.609 113.773 81.5203 113.842 81.4513 113.921C81.2839 114.118 81.1952 114.424 81.1952 114.857C81.1952 115.054 81.2051 115.212 81.2248 115.35C81.2445 115.488 81.2839 115.596 81.343 115.695C81.4021 115.793 81.4809 115.872 81.5893 115.941C81.6878 116.01 81.8257 116.079 81.9932 116.138L83.1163 116.592C83.4019 116.71 83.6384 116.838 83.8256 116.976C84.0127 117.114 84.1605 117.292 84.2689 117.498C84.3772 117.705 84.4462 117.952 84.4955 118.228C84.5349 118.514 84.5644 118.859 84.5644 119.253C84.5644 119.745 84.525 120.159 84.4364 120.495C84.3477 120.83 84.1901 121.115 83.9438 121.352C83.7468 121.539 83.5005 121.687 83.1951 121.805C82.8897 121.924 82.5252 121.983 82.0917 121.983C81.2839 121.983 80.6632 121.776 80.2495 121.352C80.0229 121.125 79.8554 120.849 79.7667 120.534C79.6781 120.228 79.6387 119.814 79.6387 119.302H81.1361C81.1361 119.558 81.1558 119.775 81.1854 119.933C81.2248 120.1 81.2937 120.238 81.4021 120.366C81.4711 120.435 81.5597 120.494 81.6779 120.544C81.7863 120.593 81.9341 120.613 82.1015 120.613C82.4266 120.613 82.6729 120.524 82.8207 120.347C82.9192 120.228 82.9783 120.09 83.0177 119.923C83.0571 119.755 83.067 119.548 83.067 119.292C83.067 119.046 83.0571 118.839 83.0374 118.661C83.0177 118.494 82.9685 118.356 82.9094 118.238C82.8503 118.119 82.7517 118.031 82.6335 117.952C82.5153 117.873 82.3675 117.794 82.1804 117.725L81.0376 117.282C80.7913 117.183 80.5943 117.075 80.4268 116.947C80.2593 116.818 80.1214 116.671 80.0229 116.483C79.9244 116.306 79.8455 116.079 79.7963 115.823C79.747 115.567 79.7273 115.251 79.7273 114.887C79.7273 114.463 79.7963 114.079 79.9244 113.734C80.0524 113.389 80.2495 113.103 80.5056 112.876C80.7125 112.699 80.9489 112.561 81.2248 112.453C81.4711 112.354 81.7765 112.305 82.1114 112.305Z" fill="#B9BFCB"></path><path d="M89.5572 113.733H87.0648V116.384H89.2124V117.734H87.0648V120.543H89.5572V121.883H85.5674V112.383H89.5572V113.733Z" fill="#B9BFCB"></path><path d="M94.9656 113.733H93.3697V121.883H91.8722V113.733H90.2861V112.383H94.9656V113.733Z" fill="#B9BFCB"></path><path d="M98.1179 112.273C98.4824 112.273 98.7976 112.323 99.0636 112.431C99.3296 112.53 99.566 112.687 99.7828 112.894C100.019 113.121 100.206 113.397 100.334 113.742C100.463 114.087 100.531 114.471 100.541 114.895H99.0439C99.034 114.718 99.0143 114.55 98.9848 114.392C98.9552 114.235 98.8961 114.097 98.8173 113.978C98.7484 113.87 98.6498 113.791 98.5415 113.722C98.4331 113.663 98.2853 113.624 98.108 113.624C97.9307 113.624 97.7829 113.653 97.6745 113.722C97.5563 113.791 97.4677 113.88 97.3987 113.978C97.2509 114.205 97.1524 114.57 97.113 115.072C97.0834 115.575 97.0638 116.255 97.0638 117.132C97.0638 118.009 97.0834 118.689 97.113 119.192C97.1524 119.695 97.2411 120.049 97.3987 120.286C97.4677 120.394 97.5563 120.483 97.6745 120.542C97.7829 120.611 97.9307 120.641 98.108 120.641C98.2853 120.641 98.4331 120.611 98.5415 120.542C98.6498 120.483 98.7385 120.394 98.8173 120.286C98.8961 120.158 98.9552 120.02 98.9848 119.862C99.0143 119.704 99.034 119.537 99.0439 119.359H100.541C100.522 119.783 100.453 120.177 100.315 120.532C100.177 120.887 99.9896 121.173 99.7532 121.39C99.5463 121.597 99.3 121.744 99.0439 121.843C98.7878 121.942 98.4725 121.991 98.108 121.991C97.6647 121.991 97.2903 121.912 97.0046 121.754C96.7091 121.597 96.4628 121.4 96.2756 121.173C96.118 120.986 95.9899 120.779 95.9013 120.542C95.8126 120.315 95.7437 120.039 95.6944 119.714C95.6451 119.399 95.6156 119.024 95.5959 118.601C95.586 118.177 95.5762 117.684 95.5762 117.122C95.5762 116.561 95.586 116.068 95.5959 115.644C95.6057 115.22 95.6451 114.846 95.6944 114.53C95.7437 114.205 95.8126 113.929 95.9013 113.702C95.9899 113.476 96.118 113.259 96.2756 113.072C96.4727 112.835 96.7189 112.648 97.0046 112.49C97.3002 112.352 97.6745 112.273 98.1179 112.273Z" fill="#B9BFCB"></path><path d="M103.893 120.65C104.07 120.65 104.218 120.621 104.336 120.552C104.455 120.483 104.543 120.394 104.612 120.296C104.76 120.059 104.839 119.695 104.878 119.202C104.918 118.709 104.928 118.019 104.928 117.142C104.928 116.275 104.908 115.585 104.878 115.082C104.849 114.58 104.75 114.225 104.612 113.988C104.543 113.88 104.445 113.791 104.336 113.732C104.218 113.663 104.07 113.633 103.893 113.633C103.716 113.633 103.568 113.663 103.46 113.732C103.351 113.801 103.263 113.89 103.184 113.988C103.046 114.215 102.947 114.58 102.908 115.082C102.869 115.585 102.849 116.265 102.849 117.142C102.849 118.019 102.869 118.699 102.908 119.202C102.947 119.704 103.036 120.059 103.184 120.296C103.253 120.404 103.351 120.493 103.46 120.552C103.578 120.611 103.716 120.65 103.893 120.65ZM103.893 121.991C103.45 121.991 103.075 121.912 102.79 121.754C102.494 121.597 102.248 121.409 102.061 121.173C101.903 120.986 101.775 120.779 101.686 120.542C101.598 120.306 101.529 120.03 101.48 119.714C101.43 119.399 101.401 119.034 101.381 118.61C101.371 118.187 101.361 117.694 101.361 117.132C101.361 116.57 101.371 116.078 101.381 115.654C101.391 115.23 101.43 114.865 101.48 114.55C101.529 114.235 101.598 113.959 101.686 113.722C101.775 113.486 101.893 113.279 102.061 113.091C102.258 112.865 102.504 112.668 102.79 112.51C103.085 112.352 103.45 112.273 103.893 112.273C104.336 112.273 104.711 112.352 104.997 112.51C105.292 112.668 105.538 112.865 105.726 113.091C105.883 113.279 106.011 113.486 106.11 113.722C106.208 113.949 106.277 114.225 106.317 114.55C106.366 114.875 106.395 115.24 106.405 115.664C106.415 116.087 106.425 116.58 106.425 117.142C106.425 117.704 106.415 118.197 106.405 118.62C106.395 119.044 106.366 119.419 106.317 119.734C106.277 120.059 106.208 120.335 106.11 120.562C106.011 120.798 105.893 121.005 105.726 121.193C105.529 121.429 105.282 121.616 104.997 121.774C104.711 121.912 104.346 121.991 103.893 121.991Z" fill="#B9BFCB"></path></svg>