<svg width="48" height="48" viewBox="0 0 48 48" fill="none" xmlns="http://www.w3.org/2000/svg">
<g id="Layer_1" clip-path="url(#clip0_2159_3832)">
<path id="Vector" d="M48.0002 0.347824V16.5456C45.7538 16.0872 43.4562 15.7723 41.1149 15.6112C39.9649 15.53 35.2068 15.5181 34.2295 15.5771V0.347824H48.0002Z" fill="url(#paint0_linear_2159_3832)"/>
<path id="Vector_2" d="M0 35.859L6.8195 47.6522C18.6226 24.8516 38.8721 20.8221 48 20.1344C33.6262 17.0223 14.9508 19.6101 0 35.859Z" fill="url(#paint1_linear_2159_3832)"/>
<path id="Vector_3" d="M13.7707 0.347824V21.0609C11.3641 22.2678 9.06257 23.6539 6.88537 25.2017C4.58779 26.8347 2.42649 28.6452 0.423628 30.6175C0.282229 30.7565 0.140263 30.8966 0 31.0379V0.347824H13.7707Z" fill="url(#paint2_linear_2159_3832)"/>
<path id="Vector_4" d="M41.047 24.5958L42.8994 29.5967L47.9046 31.4475L42.8994 33.2978L41.047 38.2993L39.1946 33.2978L34.1895 31.4475L39.1946 29.5967L41.047 24.5958Z" fill="url(#paint3_linear_2159_3832)"/>
</g>
<defs>
<linearGradient id="paint0_linear_2159_3832" x1="41.1149" y1="53.0707" x2="41.1149" y2="-3.40489" gradientUnits="userSpaceOnUse">
<stop stop-color="#DEB65E"/>
<stop offset="1" stop-color="#FFED96"/>
</linearGradient>
<linearGradient id="paint1_linear_2159_3832" x1="23.9997" y1="52.1845" x2="23.9997" y2="-2.9209" gradientUnits="userSpaceOnUse">
<stop stop-color="#DEB65E"/>
<stop offset="1" stop-color="#FFED96"/>
</linearGradient>
<linearGradient id="paint2_linear_2159_3832" x1="6.88537" y1="52.1845" x2="6.88537" y2="-2.9209" gradientUnits="userSpaceOnUse">
<stop stop-color="#DEB65E"/>
<stop offset="1" stop-color="#FFED96"/>
</linearGradient>
<linearGradient id="paint3_linear_2159_3832" x1="41.047" y1="52.1845" x2="41.047" y2="-2.9209" gradientUnits="userSpaceOnUse">
<stop stop-color="#DEB65E"/>
<stop offset="1" stop-color="#FFED96"/>
</linearGradient>
<clipPath id="clip0_2159_3832">
<rect width="48" height="47.3043" fill="white" transform="translate(0 0.347824)"/>
</clipPath>
</defs>
</svg>
