<?xml version="1.0" encoding="UTF-8"?>
<svg xmlns="http://www.w3.org/2000/svg" width="90" height="86" viewBox="0 0 90 86" fill="none">
  <path d="M7.33766 19.9742C7.63096 20.1997 7.85939 20.4991 7.99964 20.842L33.4065 62.8299C33.4792 62.9344 33.5445 63.044 33.6019 63.1577C33.6786 63.3842 33.8399 63.572 34.0519 63.6816C34.2638 63.7913 34.51 63.8142 34.7384 63.7456C36.7922 63.4617 38.834 63.1298 40.8599 62.6859C50.0599 60.6865 58.8054 57.3874 67.2796 53.3046C73.7817 50.1866 80.0091 46.5226 85.8951 42.3518C86.2301 42.1158 86.5531 41.8679 86.92 41.592C86.0666 41.428 67.4631 44.4752 62.3067 45.5908C62.3307 46.1507 62.7055 46.5745 62.9368 47.0344C63.1482 47.4343 63.5031 47.2104 63.7902 47.1464C65.7483 46.6985 67.7023 46.2386 69.6564 45.7868L83.7137 42.5357C83.8054 42.5357 83.8972 42.5117 84.0487 42.4917C83.7073 42.8508 83.3133 43.1555 82.8802 43.3955C73.0147 49.9618 62.2545 55.0638 50.9333 58.5431C49.3381 59.0469 47.6911 59.4828 46.064 59.9387C45.2904 60.1546 45.2665 60.1466 44.8677 59.4588L36.7882 45.6428C29.4744 33.1131 22.1553 20.5967 14.8309 8.09366C14.6472 7.8455 14.5454 7.54602 14.5397 7.23703C14.534 6.92805 14.6246 6.62498 14.799 6.37016C15.9036 4.42672 16.9325 2.44329 17.9893 0.47586C18.077 0.315907 18.1847 0.163953 18.2844 0C18.6433 0.175949 18.7311 0.507853 18.8866 0.771777C29.4545 18.7506 40.0184 36.7334 50.5783 54.7202C51.3998 56.1158 51.3959 56.1078 53.003 55.7759C57.7206 54.8042 62.1512 53.0367 66.4701 50.9533C70.3503 49.0818 74.0989 46.9544 77.8156 44.7911C77.9751 44.6991 78.1745 44.6471 78.2623 44.3912C78.0288 44.3374 77.7843 44.3598 77.5644 44.4552L56.7596 49.8816C55.7028 50.1575 55.7028 50.1535 55.1365 49.2138C54.5702 48.2741 53.9401 47.2464 53.3659 46.2546C53.1516 46.0149 53.0324 45.7048 53.0309 45.3829L89.9069 40.4483C89.7992 40.9122 89.4563 41.0441 89.209 41.2481C83.09 45.9171 76.5478 50.0005 69.6684 53.4446C60.4125 58.0992 50.7418 61.6822 40.8559 64.7053C37.2003 65.8223 33.5208 66.8594 29.8174 67.8164C28.7446 68.0963 28.8962 68.0563 28.4137 67.2326L11.2936 38.173C8.97269 34.2381 6.66769 30.2992 4.3268 26.3764C4.16576 26.1666 4.07844 25.9093 4.07844 25.6446C4.07844 25.3799 4.16576 25.1226 4.3268 24.9128C5.37561 23.2653 6.34068 21.6098 7.33766 19.9742Z" fill="#B3995D"></path>
  <path d="M42.3634 60.8704C40.3694 61.3623 38.531 61.6702 36.6806 61.9861C36.4817 62.0302 36.2736 62.0012 36.0942 61.9043C35.9149 61.8074 35.7762 61.6491 35.7036 61.4582C34.244 58.979 32.7605 56.5197 31.289 54.0524C24.0496 41.9359 16.797 29.8221 9.53106 17.7109C9.33907 17.4512 9.23543 17.1364 9.23543 16.8131C9.23543 16.4899 9.33907 16.1751 9.53106 15.9154C10.5559 14.1839 11.5011 12.4084 12.4861 10.6529C12.5974 10.3763 12.7772 10.1327 13.0085 9.94513C22.7655 26.8922 32.5505 43.8673 42.3634 60.8704Z" fill="#B3995D"></path>
  <path d="M25.5026 68.6521C24.2434 68.867 22.9708 68.9939 21.6941 69.032C17.2197 69.4119 12.7333 69.6798 8.26689 70.1117C7.13832 70.2197 6.59597 69.9238 6.04963 68.9481C4.23913 65.717 2.30899 62.5499 0.430694 59.3508C0.224157 59.0736 0.0774756 58.7563 0 58.4191C0.797578 58.3391 1.59515 58.2511 2.37279 58.1872L15.0343 57.1635C15.9898 57.1265 16.9428 57.0411 17.8897 56.9075C18.5756 56.7836 18.8468 57.0755 19.1419 57.5993C20.3183 59.6827 21.5346 61.7461 22.731 63.8215C23.6203 65.4011 24.5375 66.9766 25.5026 68.6521Z" fill="#B3995D"></path>
  <path d="M25.5703 76.094L16.7052 82.94C15.6724 83.7398 14.6315 84.5396 13.6106 85.3394C13.2967 85.6108 12.8923 85.7536 12.4781 85.7392C11.5609 85.7152 10.6396 85.7392 9.72243 85.7392C9.6028 85.3913 9.88993 85.3394 10.0415 85.2114C15.5767 80.946 21.1158 76.6805 26.659 72.4151C26.8333 72.2249 27.0666 72.0995 27.321 72.0592C28.5852 72.0592 29.8493 72.0592 31.2291 72.0592C29.6938 76.5459 28.2023 80.9046 26.675 85.3753C27.0489 85.2874 27.3896 85.093 27.656 84.8155C32.8721 80.8167 38.083 76.8072 43.2885 72.787C43.58 72.5202 43.9228 72.3159 44.2959 72.1867C44.6689 72.0574 45.0643 72.0058 45.4579 72.0352C46.0304 72.0672 46.6042 72.0672 47.1767 72.0352C48.5964 72.0352 48.3731 72.0792 48.0022 73.1309C47.1647 75.6142 46.2994 78.0855 45.446 80.5607C44.9275 82.0683 44.3892 83.5719 43.9066 85.0954C43.8897 85.1955 43.8533 85.2913 43.7994 85.3773C43.7456 85.4632 43.6753 85.5377 43.5927 85.5964C43.5101 85.6551 43.4168 85.6968 43.318 85.7193C43.2193 85.7417 43.1171 85.7445 43.0173 85.7272C41.9127 85.6953 40.808 85.7272 39.7074 85.7272C39.6884 85.3793 39.7672 85.0329 39.9347 84.7275C40.8625 82.1443 41.793 79.5624 42.7262 76.9818C42.8139 76.7418 42.8817 76.4939 42.9575 76.25C43.0492 76.154 43.113 76.01 43.0253 75.9221C42.9376 75.8341 42.8339 75.9701 42.7541 76.038L35.1173 81.9563C33.6817 83.068 32.2487 84.1837 30.8184 85.3034C30.5177 85.588 30.1231 85.7517 29.7097 85.7632C27.4486 85.7392 25.1875 85.7632 22.9303 85.7632C22.8097 85.7537 22.6898 85.7364 22.5714 85.7113C22.5644 85.3163 22.6636 84.9268 22.8585 84.5836C23.7518 82.0923 24.6651 79.609 25.5663 77.1217C25.662 76.8538 25.7338 76.5779 25.8136 76.302C25.8654 76.198 25.9492 76.07 25.7896 76.0021C25.7418 75.9581 25.6461 76.054 25.5703 76.094Z" fill="#B3995D"></path>
  <path d="M7.79227 81.7084C10.0135 79.9969 12.2428 78.2894 14.46 76.5779C16.1788 75.2503 17.8976 73.9267 19.5924 72.5791C19.9998 72.2202 20.5302 72.0338 21.0719 72.0592C21.9493 72.0992 22.8346 72.0592 23.7199 72.0592C23.7199 72.4231 23.4727 72.4791 23.3211 72.6031C17.863 76.8045 12.4036 81.0073 6.94285 85.2114C6.50942 85.5846 5.95025 85.7777 5.3796 85.7513C4.36268 85.7113 3.34577 85.7513 2.35678 85.7513C2.18131 85.4313 2.35678 85.2074 2.42058 84.9755C3.80305 80.934 5.18818 76.8898 6.57596 72.843C6.83517 72.0792 6.84315 72.0752 7.64073 72.0752C8.69353 72.0752 9.74235 72.0752 10.9387 72.0752L7.57693 81.4885C7.50116 81.6124 7.40146 81.7684 7.53705 81.8884C7.67263 82.0083 7.72049 81.7964 7.79227 81.7084Z" fill="#B3995D"></path>
</svg>
