<svg width="800" height="260" viewBox="0 0 800 260" fill="none" xmlns="http://www.w3.org/2000/svg">
<g clip-path="url(#clip0_25551_170533)">
<path d="M107.673 29.9337L144.616 66.8766L46.945 164.548L41.4842 159.087L75.9816 124.59C76.183 124.388 76.3427 124.149 76.4517 123.886C76.5606 123.623 76.6167 123.341 76.6167 123.056C76.6167 122.772 76.5606 122.49 76.4517 122.227C76.3427 121.964 76.183 121.724 75.9816 121.523C75.7803 121.322 75.5413 121.162 75.2782 121.053C75.0151 120.944 74.7332 120.888 74.4484 120.888C74.1637 120.888 73.8817 120.944 73.6186 121.053C73.3556 121.162 73.1165 121.322 72.9152 121.523L38.4177 156.021L33.9459 151.549L68.4433 117.051C68.8499 116.645 69.0784 116.093 69.0784 115.518C69.0784 114.943 68.8499 114.391 68.4433 113.985C68.0367 113.578 67.4851 113.35 66.9101 113.35C66.335 113.35 65.7835 113.578 65.3769 113.985L30.8794 148.482L26.4075 144.01L60.8922 109.513C61.0935 109.312 61.2533 109.073 61.3622 108.809C61.4712 108.546 61.5273 108.264 61.5273 107.98C61.5273 107.695 61.4712 107.413 61.3622 107.15C61.2533 106.887 61.0935 106.648 60.8922 106.446C60.6908 106.245 60.4518 106.085 60.1887 105.976C59.9257 105.867 59.6437 105.811 59.359 105.811C59.0742 105.811 58.7923 105.867 58.5292 105.976C58.2661 106.085 58.0271 106.245 57.8258 106.446L23.3283 140.944L19.0915 136.707L53.589 102.21C53.7903 102.008 53.95 101.769 54.059 101.506C54.168 101.243 54.224 100.961 54.224 100.676C54.224 100.392 54.168 100.11 54.059 99.8467C53.95 99.5836 53.7903 99.3446 53.589 99.1432C53.3876 98.9419 53.1486 98.7822 52.8855 98.6732C52.6224 98.5642 52.3405 98.5082 52.0557 98.5082C51.771 98.5082 51.489 98.5642 51.226 98.6732C50.9629 98.7822 50.7239 98.9419 50.5225 99.1432L16.0251 133.641L9.96118 127.577L107.673 29.9337Z" fill="url(#paint0_linear_25551_170533)"/>
<path d="M184.616 127.935L97.0657 40.3841L106.238 31.2122C109.884 27.5649 114.214 24.6717 118.979 22.6977C123.744 20.7237 128.851 19.7076 134.009 19.7074C139.166 19.7073 144.273 20.723 149.039 22.6967C153.804 24.6704 158.133 27.5633 161.78 31.2104L221.56 90.9904L184.616 127.935Z" fill="#C9252B"/>
<path d="M166.295 230.918L129.353 193.976L227.024 96.3043L232.485 101.765L197.987 136.263C197.786 136.464 197.626 136.703 197.517 136.966C197.408 137.229 197.352 137.511 197.352 137.796C197.352 138.081 197.408 138.363 197.517 138.626C197.626 138.889 197.786 139.128 197.987 139.329C198.188 139.53 198.428 139.69 198.691 139.799C198.954 139.908 199.236 139.964 199.52 139.964C199.805 139.964 200.087 139.908 200.35 139.799C200.613 139.69 200.852 139.53 201.054 139.329L235.551 104.832L240.023 109.303L205.525 143.801C205.119 144.208 204.89 144.759 204.89 145.334C204.89 145.909 205.119 146.461 205.525 146.867C205.932 147.274 206.484 147.502 207.059 147.502C207.634 147.502 208.185 147.274 208.592 146.867L243.089 112.37L247.561 116.842L213.077 151.339C212.875 151.541 212.716 151.78 212.607 152.043C212.498 152.306 212.441 152.588 212.441 152.872C212.441 153.157 212.498 153.439 212.607 153.702C212.716 153.965 212.875 154.204 213.077 154.406C213.278 154.607 213.517 154.767 213.78 154.876C214.043 154.985 214.325 155.041 214.61 155.041C214.895 155.041 215.176 154.985 215.44 154.876C215.703 154.767 215.942 154.607 216.143 154.406L250.64 119.908L254.877 124.145L220.38 158.642C220.178 158.844 220.019 159.083 219.91 159.346C219.801 159.609 219.745 159.891 219.745 160.176C219.745 160.46 219.801 160.742 219.91 161.005C220.019 161.269 220.178 161.508 220.38 161.709C220.581 161.91 220.82 162.07 221.083 162.179C221.346 162.288 221.628 162.344 221.913 162.344C222.198 162.344 222.48 162.288 222.743 162.179C223.006 162.07 223.245 161.91 223.446 161.709L257.944 127.211L264.008 133.275L166.295 230.918Z" fill="url(#paint1_linear_25551_170533)"/>
<path d="M166.295 230.918L129.353 193.976L227.024 96.3043L232.485 101.765L197.987 136.263C197.786 136.464 197.626 136.703 197.517 136.966C197.408 137.229 197.352 137.511 197.352 137.796C197.352 138.081 197.408 138.363 197.517 138.626C197.626 138.889 197.786 139.128 197.987 139.329C198.188 139.53 198.428 139.69 198.691 139.799C198.954 139.908 199.236 139.964 199.52 139.964C199.805 139.964 200.087 139.908 200.35 139.799C200.613 139.69 200.852 139.53 201.054 139.329L235.551 104.832L240.023 109.303L205.525 143.801C205.119 144.208 204.89 144.759 204.89 145.334C204.89 145.909 205.119 146.461 205.525 146.867C205.932 147.274 206.484 147.502 207.059 147.502C207.634 147.502 208.185 147.274 208.592 146.867L243.089 112.37L247.561 116.842L213.077 151.339C212.875 151.541 212.716 151.78 212.607 152.043C212.498 152.306 212.441 152.588 212.441 152.872C212.441 153.157 212.498 153.439 212.607 153.702C212.716 153.965 212.875 154.204 213.077 154.406C213.278 154.607 213.517 154.767 213.78 154.876C214.043 154.985 214.325 155.041 214.61 155.041C214.895 155.041 215.176 154.985 215.44 154.876C215.703 154.767 215.942 154.607 216.143 154.406L250.64 119.908L254.877 124.145L220.38 158.642C220.178 158.844 220.019 159.083 219.91 159.346C219.801 159.609 219.745 159.891 219.745 160.176C219.745 160.46 219.801 160.742 219.91 161.005C220.019 161.269 220.178 161.508 220.38 161.709C220.581 161.91 220.82 162.07 221.083 162.179C221.346 162.288 221.628 162.344 221.913 162.344C222.198 162.344 222.48 162.288 222.743 162.179C223.006 162.07 223.245 161.91 223.446 161.709L257.944 127.211L264.008 133.275L166.295 230.918Z" fill="url(#paint2_linear_25551_170533)"/>
<path d="M89.3506 132.918L176.901 220.468L167.729 229.64C164.082 233.287 159.753 236.181 154.988 238.155C150.223 240.129 145.116 241.145 139.958 241.145C134.801 241.145 129.693 240.129 124.928 238.156C120.163 236.182 115.833 233.289 112.186 229.642L52.4064 169.862L89.3506 132.918Z" fill="#005851"/>
<path d="M790.007 49.1374H774.077V119.551C771.816 115.958 769.733 112.664 767.658 109.357C755.518 89.9364 743.37 70.5233 731.214 51.1178C730.669 50.249 729.652 49.0966 728.829 49.0736C722.344 48.9049 715.851 48.9816 709.304 48.9816V156.537H724.81V84.956C725.461 85.9577 725.998 86.7448 726.509 87.5727C739.344 108.004 752.18 128.435 765.018 148.866C766.649 151.459 767.829 154.999 770.195 156.276C772.562 157.554 776.185 156.644 779.257 156.66C782.819 156.677 786.381 156.66 789.394 156.66C789.432 120.611 788.612 84.9381 790.007 49.1374Z" fill="#005851"/>
<path d="M484.399 141.596C471.847 141.923 459.292 142.201 446.743 142.618C444.277 142.702 443.4 142.079 443.444 139.464C443.595 130.074 443.5 120.677 443.51 111.281C443.51 110.341 443.595 109.398 443.666 107.906L475.486 109.063V93.9662C474.865 93.9662 474.443 93.9509 474.019 93.9662C464.722 94.3257 455.426 94.6902 446.13 95.0599C444.54 95.1238 443.459 94.9424 443.475 92.8674C443.554 83.387 443.523 73.904 443.495 64.4211C443.495 62.9952 443.957 62.3768 445.475 62.3972C453.467 62.5471 461.459 62.657 469.452 62.7269C474.41 62.7729 479.37 62.7269 484.353 62.7269V49.1451H418.107C419.058 85.0071 419.153 120.695 418.054 156.47H486.964V141.591C485.97 141.593 485.183 141.575 484.399 141.596Z" fill="#005851"/>
<path d="M360.498 49.053C359.923 49.0658 359.062 49.9704 358.857 50.6245C354.022 66.0819 349.321 81.5802 344.463 97.03C341.55 106.291 338.414 115.477 335.22 125.172C334.927 124.696 334.665 124.201 334.438 123.69C327.166 99.7361 319.916 75.7744 312.689 51.8051C312.061 49.7046 311.261 48.8639 308.946 48.9124C301.216 49.0734 293.483 48.9687 285.751 48.9789C284.839 48.9789 283.924 49.0683 283.423 49.0939C289.673 67.5436 295.896 85.7659 302.018 104.019C307.64 120.785 313.162 137.589 318.748 154.36C319.111 155.448 319.17 156.731 320.997 156.703C327.13 156.601 333.288 156.665 339.485 156.665L375.881 48.9763C370.655 48.9814 365.575 48.9303 360.498 49.053Z" fill="#005851"/>
<path d="M494.204 48.9738C493.595 48.8887 492.977 48.9077 492.374 49.03C491.835 49.2345 491.04 49.7967 491.033 50.2081C490.938 55.0837 490.971 59.9593 490.971 64.6817L516.27 63.1152C515.628 94.7021 517.19 125.561 515.086 156.488H542.132C541.724 150.271 541.016 144.246 540.983 138.217C540.85 114.074 540.942 89.921 540.891 65.783C540.891 63.8818 541.604 63.358 543.377 63.45C547.322 63.6544 551.278 63.634 555.221 63.8767C558.778 64.0965 562.32 64.5437 565.992 64.8989V48.9687H494.204V48.9738Z" fill="#005851"/>
<path d="M586.026 64.6331L610.964 63.1203C610.343 94.697 611.902 125.548 609.72 156.463H636.727C636.313 148.993 635.611 141.734 635.562 134.471C635.409 112.091 635.506 89.7089 635.506 67.3264C635.506 63.4729 635.506 63.3503 639.313 63.4934C646.384 63.7719 653.447 64.214 660.666 64.5973V49.1603H586.026V64.6331Z" fill="#005851"/>
<path d="M408.49 49.122H382.645V156.447H408.607C407.692 120.598 407.828 84.9304 408.49 49.122Z" fill="#005851"/>
<path d="M668.521 156.46H694.003V65.2795L668.521 69.2634V156.46Z" fill="#005851"/>
<path d="M694.409 49.1603H667.854C668.198 54.5624 668.526 59.6706 668.876 65.0496C676.764 61.9091 684.31 58.8324 691.923 55.927C692.68 55.7379 693.345 55.2871 693.802 54.6543C694.258 54.0215 694.476 53.2475 694.417 52.4695C694.404 51.4269 694.409 50.3818 694.409 49.1603Z" fill="#C9252B"/>
<path d="M306.246 209.461C305.526 209.919 304.734 210.252 303.903 210.445C302.856 210.705 301.78 210.831 300.701 210.82C299.353 210.828 298.019 210.554 296.784 210.016C295.533 209.462 294.43 208.623 293.564 207.565C292.573 206.33 291.832 204.915 291.382 203.397C290.813 201.476 290.543 199.479 290.582 197.476C290.545 195.473 290.816 193.476 291.387 191.556C291.837 190.038 292.578 188.622 293.569 187.388C294.435 186.33 295.538 185.49 296.789 184.937C298.023 184.4 299.355 184.126 300.701 184.132C301.774 184.124 302.844 184.25 303.885 184.508C304.722 184.699 305.521 185.031 306.246 185.492L305.209 187.996C304.671 187.635 304.079 187.363 303.456 187.191C302.654 186.956 301.822 186.841 300.987 186.851C300.015 186.844 299.054 187.058 298.176 187.477C297.264 187.925 296.475 188.588 295.876 189.409C295.164 190.408 294.641 191.53 294.333 192.718C293.926 194.258 293.733 195.848 293.761 197.441C293.733 199.034 293.926 200.623 294.333 202.163C294.643 203.356 295.171 204.483 295.889 205.485C296.49 206.308 297.279 206.976 298.189 207.435C299.063 207.865 300.026 208.085 301 208.079C301.835 208.089 302.667 207.974 303.468 207.739C304.092 207.566 304.684 207.294 305.221 206.934L306.246 209.461ZM324.491 210.427V197.441C324.541 196.85 324.451 196.255 324.229 195.706C324.007 195.156 323.659 194.666 323.214 194.274C322.196 193.544 320.959 193.184 319.708 193.252C318.995 193.255 318.285 193.351 317.597 193.539C316.931 193.709 316.292 193.974 315.701 194.326V210.427H312.686V182.343H315.691V191.967C316.372 191.61 317.092 191.333 317.837 191.144C318.631 190.932 319.449 190.824 320.27 190.822C322.168 190.711 324.041 191.289 325.547 192.45C326.205 193.051 326.718 193.792 327.05 194.619C327.381 195.446 327.522 196.337 327.461 197.226V210.427H324.491ZM349.391 209.461C348.436 209.914 347.426 210.238 346.386 210.427C345.055 210.696 343.701 210.828 342.343 210.82C340.366 210.955 338.405 210.377 336.816 209.193C336.136 208.532 335.612 207.729 335.281 206.841C334.95 205.953 334.82 205.003 334.902 204.059V191.144H337.907V204.095C337.907 206.909 339.386 208.316 342.343 208.316C343.151 208.325 343.959 208.261 344.756 208.127C345.325 208.04 345.883 207.89 346.419 207.68V191.144H349.388L349.391 209.461ZM368.638 210.427V197.395C368.664 196.831 368.575 196.268 368.375 195.741C368.175 195.213 367.869 194.732 367.475 194.328C366.992 193.915 366.432 193.601 365.827 193.405C365.223 193.209 364.585 193.133 363.951 193.183C363.172 193.179 362.394 193.244 361.626 193.38C361.015 193.482 360.416 193.644 359.837 193.863V210.427H356.832V192.11C357.852 191.677 358.913 191.347 359.998 191.126C361.289 190.865 362.604 190.739 363.921 190.751C365.981 190.598 368.026 191.195 369.681 192.432C370.334 193.026 370.847 193.758 371.181 194.575C371.515 195.392 371.662 196.273 371.612 197.154V210.427H368.638ZM393.681 210.498C393.75 211.571 393.602 212.647 393.245 213.662C392.889 214.676 392.331 215.608 391.606 216.401C390.817 217.126 389.889 217.684 388.879 218.04C387.869 218.397 386.797 218.545 385.728 218.476C384.505 218.484 383.285 218.34 382.097 218.047C381.125 217.82 380.183 217.484 379.286 217.045L380.216 214.684C380.967 215.067 381.759 215.361 382.577 215.561C383.535 215.812 384.521 215.938 385.511 215.936C386.229 215.992 386.951 215.894 387.629 215.649C388.307 215.404 388.924 215.018 389.441 214.516C390.375 213.393 390.844 211.956 390.752 210.498V208.853C390.149 209.141 389.512 209.352 388.856 209.479C388.115 209.634 387.359 209.712 386.602 209.711C385.466 209.725 384.338 209.519 383.28 209.103C382.289 208.705 381.398 208.095 380.669 207.314C379.903 206.484 379.318 205.503 378.951 204.435C378.525 203.173 378.32 201.848 378.343 200.517C378.31 199.026 378.546 197.542 379.041 196.135C379.452 194.991 380.112 193.952 380.973 193.094C381.804 192.29 382.807 191.684 383.906 191.323C385.098 190.933 386.345 190.739 387.599 190.751C388.736 190.744 389.871 190.87 390.98 191.126C391.92 191.332 392.828 191.663 393.681 192.11V210.498ZM390.752 193.756C390.307 193.554 389.838 193.409 389.357 193.326C388.72 193.203 388.073 193.143 387.425 193.148C386.609 193.14 385.799 193.273 385.028 193.541C384.29 193.804 383.627 194.243 383.096 194.819C382.508 195.47 382.063 196.238 381.79 197.073C381.441 198.15 381.275 199.278 381.297 200.41C381.153 202.286 381.729 204.147 382.907 205.615C383.434 206.185 384.077 206.636 384.793 206.935C385.509 207.234 386.281 207.376 387.057 207.35C387.73 207.347 388.4 207.282 389.06 207.153C389.65 207.057 390.221 206.869 390.752 206.594V193.756ZM421.442 210.32C421.18 210.436 420.903 210.514 420.619 210.552C420.241 210.613 419.858 210.643 419.474 210.642C418.115 210.72 416.778 210.262 415.754 209.364C415.267 208.838 414.895 208.216 414.661 207.539C414.428 206.861 414.337 206.143 414.394 205.429V193.418H411.604V191.165H414.394V186.514L417.292 185.548V191.17H421.442V193.424H417.292V205.301C417.25 205.696 417.306 206.096 417.456 206.464C417.606 206.832 417.845 207.158 418.151 207.412C418.75 207.826 419.466 208.039 420.195 208.02C420.62 208.035 421.044 207.974 421.447 207.841L421.442 210.32ZM441.512 209.461C440.602 209.918 439.633 210.243 438.632 210.427C437.391 210.691 436.126 210.822 434.858 210.82C432.746 210.98 430.642 210.425 428.883 209.246C428.237 208.731 427.722 208.07 427.38 207.318C427.038 206.566 426.879 205.743 426.916 204.918C426.858 203.725 427.219 202.549 427.938 201.596C428.656 200.733 429.578 200.062 430.621 199.646C431.831 199.154 433.099 198.823 434.395 198.662C435.802 198.471 437.233 198.34 438.688 198.268V196.802C438.708 196.188 438.592 195.577 438.348 195.013C438.135 194.552 437.809 194.152 437.4 193.85C436.968 193.54 436.474 193.327 435.951 193.224C435.345 193.1 434.728 193.04 434.109 193.045C433.636 193.047 433.164 193.083 432.696 193.153C432.207 193.224 431.73 193.314 431.265 193.421C430.817 193.523 430.376 193.649 429.941 193.797C429.57 193.921 429.206 194.065 428.85 194.226L428.06 192.11C428.962 191.721 429.896 191.41 430.851 191.18C431.997 190.891 433.175 190.746 434.357 190.751C435.345 190.741 436.331 190.855 437.29 191.09C438.116 191.29 438.891 191.661 439.562 192.182C440.205 192.696 440.704 193.368 441.011 194.131C441.372 195.06 441.546 196.051 441.522 197.047L441.512 209.461ZM438.686 200.338C437.612 200.41 436.545 200.495 435.484 200.594C434.503 200.672 433.536 200.871 432.604 201.184C431.814 201.439 431.1 201.888 430.529 202.49C429.974 203.147 429.693 203.992 429.742 204.851C429.721 205.371 429.824 205.888 430.042 206.361C430.259 206.833 430.586 207.248 430.994 207.57C432.11 208.319 433.446 208.672 434.786 208.572C435.144 208.572 435.52 208.554 435.913 208.518C436.307 208.482 436.682 208.437 437.04 208.383C437.366 208.341 437.689 208.276 438.006 208.186C438.237 208.122 438.464 208.044 438.686 207.953V200.338ZM454.462 218.119H451.35L454.248 210.427L447.021 191.144H450.277L455.071 205.168C455.279 205.777 455.45 206.398 455.582 207.028L455.761 207.923H455.832L456.011 207.028C456.143 206.398 456.313 205.777 456.522 205.168L461.28 191.144H464.551L454.462 218.119ZM494.066 210.427L489.057 202.485H488.985L483.977 210.427H480.578L487.197 200.41L481.079 191.144H484.442L488.985 198.417H489.057L493.6 191.154H496.963L490.846 200.41L497.464 210.427H494.066ZM516.783 209.461C515.873 209.918 514.904 210.243 513.903 210.427C512.662 210.691 511.397 210.822 510.129 210.82C508.017 210.98 505.913 210.425 504.154 209.246C503.508 208.731 502.993 208.07 502.651 207.318C502.309 206.566 502.15 205.743 502.187 204.918C502.129 203.725 502.49 202.549 503.209 201.596C503.927 200.733 504.849 200.062 505.892 199.646C507.101 199.154 508.37 198.823 509.666 198.662C511.073 198.471 512.504 198.34 513.959 198.268V196.802C513.979 196.188 513.863 195.577 513.619 195.013C513.406 194.552 513.08 194.152 512.671 193.85C512.239 193.54 511.744 193.327 511.222 193.224C510.616 193.1 509.999 193.04 509.38 193.045C508.907 193.047 508.435 193.083 507.967 193.153C507.478 193.224 507.001 193.314 506.536 193.421C506.088 193.523 505.647 193.649 505.212 193.797C504.841 193.921 504.477 194.065 504.121 194.226L503.334 192.115C504.236 191.726 505.169 191.415 506.124 191.185C507.269 190.894 508.446 190.748 509.628 190.751C510.616 190.741 511.602 190.855 512.561 191.09C513.387 191.29 514.161 191.661 514.833 192.182C515.475 192.696 515.974 193.368 516.282 194.131C516.643 195.06 516.816 196.051 516.793 197.047L516.783 209.461ZM513.957 200.338C512.883 200.41 511.816 200.495 510.755 200.594C509.774 200.672 508.807 200.871 507.875 201.184C507.085 201.439 506.371 201.888 505.8 202.49C505.245 203.147 504.963 203.992 505.013 204.851C504.992 205.369 505.093 205.885 505.309 206.357C505.525 206.828 505.849 207.242 506.255 207.565C507.371 208.314 508.706 208.667 510.047 208.567C510.405 208.567 510.78 208.549 511.174 208.513C511.567 208.477 511.946 208.434 512.311 208.383C512.637 208.341 512.96 208.276 513.277 208.186C513.508 208.122 513.735 208.044 513.957 207.953V200.338ZM513.384 189.033L509.832 185.895L506.255 189.033L504.977 187.924L508.554 184.311C508.716 184.129 508.912 183.982 509.132 183.877C509.351 183.773 509.589 183.713 509.832 183.703C510.071 183.715 510.305 183.776 510.52 183.88C510.735 183.985 510.927 184.131 511.084 184.311L514.662 187.924L513.384 189.033ZM529.738 218.119H526.621L529.508 210.427L522.292 191.144H525.548L530.342 205.168C530.55 205.777 530.721 206.398 530.853 207.028L531.031 207.923H531.103L531.282 207.028C531.414 206.398 531.584 205.777 531.793 205.168L536.551 191.144H539.842L529.738 218.119ZM572.27 209.461C571.921 209.661 571.556 209.832 571.179 209.972C570.695 210.151 570.199 210.295 569.694 210.401C569.146 210.521 568.567 210.622 567.959 210.705C567.337 210.79 566.709 210.832 566.081 210.831C564.742 210.856 563.411 210.619 562.164 210.133C561.075 209.698 560.097 209.026 559.302 208.165C558.503 207.279 557.899 206.234 557.531 205.099C557.109 203.787 556.903 202.416 556.922 201.039C556.907 199.663 557.106 198.293 557.513 196.978C557.871 195.815 558.455 194.733 559.23 193.794C559.987 192.896 560.942 192.185 562.02 191.719C563.225 191.211 564.523 190.961 565.83 190.986C566.49 190.985 567.148 191.039 567.798 191.147C568.307 191.223 568.809 191.336 569.301 191.487V182.364H572.27V209.461ZM569.301 193.791C568.849 193.632 568.381 193.524 567.905 193.47C567.29 193.376 566.668 193.328 566.045 193.326C565.124 193.309 564.212 193.505 563.38 193.899C562.615 194.272 561.953 194.824 561.448 195.509C560.913 196.247 560.519 197.078 560.285 197.959C560.015 198.959 559.883 199.99 559.892 201.026C559.792 202.941 560.347 204.834 561.466 206.392C562.017 207.064 562.72 207.595 563.518 207.941C564.315 208.287 565.183 208.439 566.05 208.383C566.367 208.382 566.684 208.364 566.998 208.329C567.32 208.293 567.63 208.245 567.928 208.186C568.227 208.126 568.495 208.061 568.733 207.989C568.93 207.934 569.121 207.862 569.306 207.774L569.301 193.791ZM597.527 189.856C597.551 190.071 597.569 190.345 597.581 190.679C597.593 191.013 597.593 191.359 597.581 191.717C597.569 192.074 597.545 192.42 597.509 192.754C597.485 193.033 597.431 193.309 597.348 193.577C597.089 194.327 596.609 194.982 595.971 195.455C595.422 195.871 594.828 196.225 594.2 196.51V209.461C593.245 209.914 592.235 210.238 591.195 210.427C589.865 210.696 588.51 210.828 587.152 210.82C585.175 210.955 583.214 210.377 581.625 209.193C580.945 208.532 580.421 207.729 580.09 206.841C579.759 205.953 579.63 205.003 579.711 204.059V191.144H582.716V204.095C582.716 206.909 584.195 208.316 587.152 208.316C587.959 208.324 588.764 208.261 589.56 208.127C590.129 208.04 590.687 207.89 591.223 207.68V191.144H594.192V194.65C594.524 194.414 594.829 194.144 595.105 193.845C595.375 193.551 595.552 193.184 595.616 192.79C595.643 192.588 595.655 192.385 595.652 192.182V191.359C595.652 191.073 595.646 190.792 595.634 190.518C595.617 190.296 595.635 190.073 595.687 189.856C595.783 189.451 596.093 189.248 596.618 189.248C597.142 189.248 597.445 189.451 597.527 189.856ZM589.861 214.326C589.864 214.591 589.811 214.854 589.706 215.097C589.602 215.341 589.447 215.559 589.253 215.74C589.055 215.933 588.82 216.086 588.562 216.187C588.303 216.288 588.028 216.337 587.75 216.33C587.185 216.342 586.639 216.13 586.23 215.74C586.031 215.562 585.873 215.344 585.765 215.1C585.657 214.857 585.602 214.593 585.604 214.326C585.6 214.054 585.655 213.783 585.764 213.533C585.873 213.284 586.035 213.06 586.238 212.878C586.442 212.683 586.682 212.53 586.945 212.429C587.208 212.328 587.489 212.28 587.771 212.287C588.048 212.28 588.324 212.329 588.582 212.43C588.84 212.531 589.075 212.684 589.273 212.878C589.468 213.064 589.622 213.289 589.725 213.539C589.828 213.788 589.878 214.057 589.871 214.326H589.861ZM615.057 210.427V197.395C615.083 196.831 614.994 196.268 614.794 195.741C614.594 195.213 614.288 194.732 613.894 194.328C613.411 193.915 612.851 193.601 612.246 193.405C611.642 193.209 611.004 193.133 610.371 193.183C609.591 193.179 608.813 193.244 608.045 193.38C607.435 193.482 606.835 193.644 606.256 193.863V210.427H603.251V192.11C604.271 191.677 605.332 191.347 606.417 191.126C607.707 190.865 609.019 190.739 610.335 190.751C612.395 190.598 614.44 191.195 616.095 192.432C616.748 193.026 617.26 193.758 617.595 194.575C617.929 195.392 618.076 196.273 618.026 197.154V210.427H615.057ZM640.1 210.498C640.169 211.571 640.021 212.647 639.664 213.662C639.308 214.676 638.75 215.608 638.025 216.401C637.236 217.126 636.308 217.684 635.298 218.04C634.288 218.397 633.216 218.545 632.147 218.476C630.924 218.484 629.704 218.34 628.516 218.047C627.545 217.82 626.602 217.484 625.705 217.045L626.635 214.684C627.386 215.067 628.178 215.361 628.997 215.561C629.954 215.812 630.94 215.938 631.93 215.936C632.646 215.991 633.365 215.893 634.04 215.65C634.716 215.406 635.332 215.022 635.848 214.523C636.786 213.4 637.258 211.959 637.166 210.498V208.853C636.563 209.141 635.926 209.352 635.27 209.479C634.529 209.634 633.773 209.712 633.016 209.711C631.88 209.725 630.752 209.519 629.694 209.103C628.703 208.705 627.812 208.095 627.083 207.314C626.317 206.484 625.732 205.503 625.365 204.435C624.939 203.173 624.734 201.848 624.757 200.517C624.724 199.026 624.96 197.542 625.455 196.135C625.866 194.991 626.526 193.952 627.387 193.094C628.218 192.29 629.221 191.684 630.32 191.323C631.515 190.932 632.766 190.738 634.023 190.751C635.161 190.744 636.295 190.87 637.404 191.126C638.344 191.332 639.252 191.663 640.105 192.11L640.1 210.498ZM637.166 193.756C636.721 193.554 636.252 193.409 635.771 193.326C635.134 193.203 634.487 193.143 633.839 193.148C633.023 193.14 632.213 193.273 631.442 193.541C630.704 193.804 630.041 194.243 629.51 194.819C628.922 195.47 628.477 196.238 628.204 197.073C627.858 198.153 627.695 199.283 627.721 200.418C627.578 202.294 628.153 204.155 629.331 205.623C629.858 206.193 630.501 206.643 631.217 206.943C631.933 207.242 632.706 207.384 633.481 207.358C634.154 207.355 634.824 207.289 635.485 207.161C636.071 207.066 636.638 206.879 637.166 206.607V193.756ZM677.27 189.856C677.294 190.071 677.312 190.345 677.324 190.679C677.336 191.013 677.336 191.359 677.324 191.717C677.312 192.074 677.288 192.42 677.252 192.754C677.227 193.033 677.173 193.309 677.091 193.577C676.832 194.327 676.352 194.982 675.714 195.455C675.164 195.871 674.57 196.225 673.943 196.51V209.461C672.988 209.914 671.978 210.238 670.938 210.427C669.607 210.696 668.253 210.828 666.895 210.82C664.917 210.955 662.955 210.378 661.365 209.193C660.686 208.532 660.161 207.729 659.83 206.841C659.499 205.953 659.37 205.003 659.451 204.059V191.144H662.457V204.095C662.457 206.909 663.935 208.316 666.893 208.316C667.702 208.322 668.51 208.256 669.307 208.119C669.877 208.032 670.435 207.882 670.971 207.672V191.144H673.94V194.65C674.271 194.414 674.577 194.144 674.853 193.845C675.122 193.551 675.3 193.184 675.364 192.79C675.391 192.588 675.403 192.385 675.399 192.182V191.359C675.399 191.073 675.393 190.792 675.382 190.518C675.365 190.296 675.383 190.073 675.435 189.856C675.531 189.451 675.841 189.248 676.365 189.248C676.89 189.248 677.192 189.451 677.27 189.856ZM700.095 189.856C700.118 190.071 700.136 190.345 700.148 190.679C700.16 191.013 700.166 191.359 700.166 191.717C700.167 192.064 700.143 192.41 700.095 192.754C700.059 193.033 699.999 193.308 699.916 193.577C699.735 194.109 699.435 194.592 699.039 194.99C698.675 195.359 698.274 195.689 697.841 195.974C698.387 197.512 698.654 199.135 698.628 200.768C698.639 202.116 698.458 203.459 698.091 204.757C697.772 205.908 697.238 206.988 696.517 207.941C695.835 208.827 694.961 209.549 693.962 210.051C692.864 210.582 691.656 210.845 690.438 210.818C689.219 210.845 688.011 210.582 686.914 210.051C685.914 209.549 685.041 208.827 684.359 207.941C683.638 206.988 683.104 205.908 682.784 204.757C682.417 203.459 682.237 202.116 682.248 200.768C682.236 199.425 682.416 198.088 682.784 196.797C683.106 195.652 683.64 194.578 684.359 193.63C685.041 192.744 685.914 192.022 686.914 191.52C688.011 190.989 689.219 190.726 690.438 190.753C691.82 190.717 693.187 191.057 694.391 191.737C695.504 192.396 696.432 193.325 697.092 194.438C697.357 194.221 697.597 193.975 697.807 193.705C698.019 193.438 698.166 193.125 698.237 192.792C698.264 192.591 698.276 192.388 698.273 192.184C698.273 191.922 698.267 191.648 698.255 191.361C698.243 191.075 698.231 190.795 698.219 190.521C698.202 190.299 698.22 190.075 698.273 189.859C698.368 189.453 698.678 189.251 699.203 189.251C699.727 189.251 700.025 189.452 700.095 189.856ZM690.435 208.352C691.239 208.37 692.033 208.172 692.735 207.78C693.396 207.393 693.954 206.853 694.363 206.205C694.821 205.468 695.147 204.657 695.329 203.809C695.551 202.802 695.659 201.773 695.651 200.742C695.659 199.72 695.551 198.699 695.329 197.701C695.147 196.853 694.821 196.042 694.363 195.304C693.958 194.659 693.398 194.124 692.735 193.748C692.03 193.367 691.237 193.176 690.435 193.194C689.634 193.176 688.841 193.367 688.135 193.748C687.473 194.124 686.913 194.659 686.508 195.304C686.05 196.042 685.723 196.853 685.542 197.701C685.32 198.699 685.212 199.72 685.22 200.742C685.211 201.773 685.319 202.802 685.542 203.809C685.723 204.657 686.05 205.468 686.508 206.205C686.916 206.853 687.474 207.393 688.135 207.78C688.837 208.172 689.631 208.37 690.435 208.352ZM691.902 188.855H689.684L692.331 184.204C692.583 183.949 692.881 183.742 693.208 183.596C693.505 183.458 693.828 183.385 694.156 183.381C694.456 183.372 694.753 183.447 695.014 183.596C695.128 183.661 695.228 183.749 695.308 183.853C695.388 183.957 695.446 184.077 695.48 184.204L691.902 188.855ZM718.095 209.497C717.445 209.927 716.733 210.252 715.984 210.463C715.111 210.71 714.208 210.83 713.301 210.82C712.266 210.819 711.241 210.625 710.278 210.248C709.268 209.858 708.359 209.247 707.618 208.459C706.786 207.55 706.15 206.48 705.747 205.316C705.239 203.85 704.997 202.306 705.031 200.755C704.996 199.21 705.238 197.671 705.747 196.211C706.156 195.063 706.792 194.009 707.618 193.112C708.356 192.326 709.26 191.715 710.265 191.323C711.228 190.946 712.253 190.752 713.288 190.751C714.201 190.742 715.11 190.862 715.989 191.108C716.736 191.311 717.443 191.638 718.082 192.074L717.044 194.257C716.571 193.926 716.045 193.678 715.488 193.523C714.878 193.344 714.246 193.254 713.61 193.255C712.915 193.255 712.228 193.395 711.589 193.666C710.906 193.96 710.3 194.407 709.818 194.972C709.25 195.646 708.824 196.429 708.566 197.272C708.23 198.391 708.073 199.556 708.1 200.724C708.074 201.899 708.237 203.071 708.583 204.194C708.851 205.047 709.275 205.842 709.836 206.538C710.305 207.113 710.906 207.567 711.589 207.861C712.228 208.132 712.915 208.272 713.61 208.273C714.247 208.274 714.88 208.177 715.488 207.987C716.044 207.821 716.569 207.568 717.044 207.235L718.095 209.497ZM759.016 210.427V197.154C759.049 196.608 758.959 196.062 758.755 195.555C758.551 195.048 758.237 194.592 757.836 194.221C756.999 193.511 755.927 193.141 754.83 193.183C754.004 193.168 753.182 193.32 752.416 193.63C751.749 193.904 751.146 194.312 750.645 194.829V210.427H747.675V196.689C747.696 196.192 747.594 195.697 747.379 195.248C747.164 194.799 746.842 194.409 746.441 194.113C745.482 193.452 744.331 193.125 743.168 193.183C742.453 193.179 741.74 193.245 741.039 193.38C740.459 193.489 739.891 193.651 739.34 193.863V210.427H736.335V192.11C737.323 191.685 738.35 191.356 739.401 191.126C740.576 190.87 741.776 190.744 742.979 190.751C744.273 190.714 745.561 190.932 746.771 191.395C747.659 191.729 748.456 192.268 749.096 192.969C749.847 192.325 750.699 191.812 751.618 191.448C752.819 190.96 754.107 190.723 755.403 190.751C756.327 190.738 757.246 190.883 758.122 191.18C758.892 191.442 759.599 191.862 760.197 192.414C760.775 192.96 761.227 193.625 761.52 194.364C761.839 195.172 761.997 196.035 761.986 196.904V210.427H759.016ZM786.527 189.856C786.551 190.071 786.569 190.345 786.581 190.679C786.593 191.013 786.599 191.359 786.599 191.717C786.6 192.064 786.576 192.41 786.527 192.754C786.492 193.033 786.432 193.308 786.348 193.577C786.168 194.109 785.868 194.592 785.472 194.99C785.108 195.359 784.706 195.689 784.273 195.974C784.82 197.512 785.087 199.135 785.06 200.768C785.072 202.116 784.891 203.459 784.524 204.757C784.204 205.908 783.67 206.988 782.95 207.941C782.268 208.827 781.394 209.549 780.394 210.051C779.297 210.582 778.089 210.845 776.87 210.818C775.652 210.845 774.444 210.582 773.347 210.051C772.347 209.549 771.473 208.827 770.791 207.941C770.071 206.988 769.536 205.908 769.217 204.757C768.85 203.459 768.669 202.116 768.681 200.768C768.668 199.425 768.849 198.088 769.217 196.797C769.539 195.652 770.073 194.578 770.791 193.63C771.473 192.744 772.347 192.022 773.347 191.52C774.444 190.989 775.652 190.726 776.87 190.753C778.253 190.717 779.62 191.057 780.824 191.737C781.931 192.397 782.856 193.325 783.512 194.435C783.777 194.218 784.017 193.972 784.227 193.702C784.439 193.435 784.586 193.123 784.657 192.79C784.684 192.588 784.696 192.385 784.692 192.182C784.692 191.919 784.687 191.645 784.675 191.359C784.663 191.073 784.651 190.792 784.639 190.518C784.622 190.296 784.64 190.073 784.692 189.856C784.788 189.451 785.098 189.248 785.623 189.248C786.147 189.248 786.449 189.451 786.527 189.856ZM776.868 208.352C777.672 208.37 778.466 208.172 779.168 207.78C779.829 207.393 780.387 206.853 780.796 206.205C781.253 205.468 781.58 204.657 781.761 203.809C781.984 202.802 782.092 201.773 782.083 200.742C782.091 199.72 781.983 198.699 781.761 197.701C781.58 196.853 781.253 196.042 780.796 195.304C780.392 194.655 779.832 194.117 779.168 193.738C778.462 193.357 777.67 193.166 776.868 193.183C776.066 193.166 775.274 193.357 774.568 193.738C773.905 194.114 773.346 194.649 772.94 195.294C772.483 196.031 772.156 196.842 771.974 197.691C771.752 198.689 771.644 199.709 771.652 200.732C771.644 201.763 771.752 202.792 771.974 203.798C772.156 204.647 772.483 205.458 772.94 206.195C773.349 206.843 773.907 207.383 774.568 207.769C775.269 208.165 776.063 208.367 776.868 208.352Z" fill="#005851" stroke="#005851" stroke-width="1.27768"/>
</g>
<defs>
<linearGradient id="paint0_linear_25551_170533" x1="104.893" y1="78.3948" x2="138.007" y2="43.2505" gradientUnits="userSpaceOnUse">
<stop stop-color="#C9252B"/>
<stop offset="1" stop-color="#651316"/>
</linearGradient>
<linearGradient id="paint1_linear_25551_170533" x1="170.153" y1="188.246" x2="124.114" y2="230.932" gradientUnits="userSpaceOnUse">
<stop stop-color="white"/>
<stop offset="1" stop-color="#939393"/>
</linearGradient>
<linearGradient id="paint2_linear_25551_170533" x1="175.839" y1="181.552" x2="148.137" y2="208.1" gradientUnits="userSpaceOnUse">
<stop stop-color="#005851"/>
<stop offset="1" stop-color="#003D38"/>
</linearGradient>
<clipPath id="clip0_25551_170533">
<rect width="780" height="253.97" fill="white" transform="translate(10 3.4397)"/>
</clipPath>
</defs>
</svg>
