<?xml version="1.0" encoding="UTF-8"?>
<svg xmlns="http://www.w3.org/2000/svg" width="103" height="80" viewBox="0 0 103 80" fill="none">
  <path d="M98.4132 71.7001C97.4849 71.7001 96.7113 71.5299 96.0925 71.1895C95.4736 70.8491 95.0095 70.3386 94.7 69.6578C94.3906 68.9667 94.2359 68.1106 94.2359 67.0895V63.3453C94.2359 62.9018 94.1791 62.5408 94.0657 62.2623C93.9522 61.9838 93.6943 61.8291 93.2921 61.7981H93.1528V61.334H94.8547C95.2157 61.334 95.4942 61.3959 95.6902 61.5196C95.8965 61.6434 96.0409 61.8497 96.1234 62.1385C96.2059 62.4273 96.2472 62.8296 96.2472 63.3453L96.2627 67.5536C96.273 68.6264 96.4793 69.4721 96.8815 70.091C97.2941 70.6996 97.9078 71.0039 98.7227 71.0039C99.4241 71.0039 99.9965 70.8646 100.44 70.5861C100.884 70.3076 101.208 69.8796 101.415 69.302C101.631 68.7243 101.74 67.9869 101.74 67.0895V61.334H102.513V67.0895C102.513 68.0591 102.379 68.8894 102.111 69.5804C101.853 70.2612 101.425 70.7872 100.827 71.1586C100.229 71.5196 99.4241 71.7001 98.4132 71.7001Z" fill="#2E368F"></path>
  <path d="M82.9951 71.5454V63.3453C82.9951 62.8812 82.928 62.5098 82.7939 62.2313C82.6702 61.9425 82.3762 61.7981 81.912 61.7981H81.7573V61.334H85.9656C88.0904 61.334 89.684 61.7827 90.7464 62.68C91.8191 63.5774 92.3555 64.81 92.3555 66.3778C92.3555 67.3989 92.1234 68.2963 91.6593 69.0699C91.2054 69.8435 90.535 70.452 89.6479 70.8956C88.7609 71.3288 87.6675 71.5454 86.3679 71.5454H82.9951ZM86.3215 70.9265C87.0435 70.9265 87.683 70.746 88.24 70.385C88.797 70.024 89.2354 69.5082 89.5551 68.8378C89.8749 68.1674 90.0347 67.368 90.0347 66.4397C90.0347 65.532 89.8749 64.7429 89.5551 64.0725C89.2457 63.402 88.8073 62.8812 88.24 62.5098C87.683 62.1385 87.0332 61.9529 86.2906 61.9529C86.0636 61.9529 85.8677 61.958 85.7026 61.9683C85.5376 61.9786 85.3055 62.0096 85.0064 62.0612V70.8182C85.2333 70.8595 85.4087 70.8904 85.5324 70.911C85.6665 70.9213 85.7903 70.9265 85.9038 70.9265C86.0172 70.9265 86.1565 70.9265 86.3215 70.9265Z" fill="#2E368F"></path>
  <path d="M73.7182 71.5454V63.3453C73.7182 62.8812 73.6512 62.5098 73.5171 62.2313C73.3933 61.9425 73.0993 61.7981 72.6352 61.7981H72.4805V61.334H79.3035C79.6645 61.334 79.9379 61.3959 80.1235 61.5196C80.3092 61.6331 80.4381 61.7878 80.5103 61.9838C80.5825 62.1695 80.6186 62.3654 80.6186 62.5717V63.8868H80.1545C80.1545 63.2267 79.9843 62.7522 79.6439 62.4634C79.3138 62.1746 78.8394 62.0302 78.2205 62.0302H75.7295V65.8982H79.7522V66.5944H75.7295V70.8491H78.3752C78.9425 70.8491 79.4221 70.7254 79.8141 70.4778C80.2164 70.2199 80.5516 69.7558 80.8198 69.0854L81.2375 69.2401L80.7888 70.4623C80.6754 70.7924 80.5258 71.0554 80.3401 71.2514C80.1648 71.4474 79.8657 71.5454 79.4428 71.5454H73.7182Z" fill="#2E368F"></path>
  <path d="M58.627 71.5454L62.4331 66.7336L60.2361 63.3453C60.071 63.0771 59.8699 62.8193 59.6327 62.5717C59.3954 62.3139 59.1479 62.1024 58.89 61.9374C58.6425 61.762 58.4001 61.664 58.1628 61.6434V61.334H59.8647C60.2567 61.334 60.6074 61.4217 60.9168 61.597C61.2366 61.7724 61.5202 61.989 61.7678 62.2468C62.0153 62.5047 62.2216 62.7677 62.3866 63.0359L63.7327 65.1091L66.7187 61.334H67.7244L64.1814 65.8053L66.6104 69.534C66.7858 69.8022 66.9869 70.0652 67.2138 70.3231C67.4511 70.5706 67.6986 70.7769 67.9565 70.942C68.2143 71.107 68.4567 71.205 68.6837 71.2359V71.5454H66.9818C66.6001 71.5454 66.2494 71.4577 65.9297 71.2823C65.6099 71.107 65.3263 70.8904 65.0787 70.6325C64.8312 70.3644 64.6249 70.1013 64.4599 69.8435L62.8972 67.4299L59.6327 71.5454H58.627Z" fill="#2E368F"></path>
  <path d="M50.5559 71.5454V63.3453C50.5559 62.8812 50.4888 62.5098 50.3547 62.2313C50.231 61.9425 49.937 61.7981 49.4728 61.7981H49.3181V61.334H56.1412C56.5022 61.334 56.7755 61.3959 56.9612 61.5196C57.1468 61.6331 57.2758 61.7878 57.348 61.9838C57.4202 62.1695 57.4563 62.3654 57.4563 62.5717V63.8868H56.9921C56.9921 63.2267 56.8219 62.7522 56.4816 62.4634C56.1515 62.1746 55.677 62.0302 55.0581 62.0302H52.5672V65.8982H56.5899V66.5944H52.5672V70.8491H55.2129C55.7802 70.8491 56.2598 70.7254 56.6517 70.4778C57.054 70.2199 57.3892 69.7558 57.6574 69.0854L58.0751 69.2401L57.6265 70.4623C57.513 70.7924 57.3634 71.0554 57.1778 71.2514C57.0024 71.4474 56.7033 71.5454 56.2804 71.5454H50.5559Z" fill="#2E368F"></path>
  <path d="M48.7744 72.2416C48.0317 72.2416 47.4283 72.123 46.9642 71.8857C46.5 71.6588 46.1597 71.303 45.9431 70.8182C45.7368 70.3231 45.6336 69.6888 45.6336 68.9152V63.4381L42.2453 71.5454H41.7347L37.5883 63.1287V71.5454H36.8147V61.334H38.7023L42.4464 68.9306L45.6181 61.334H47.645V68.9152C47.645 69.8538 47.7223 70.5603 47.877 71.0348C48.0421 71.499 48.3412 71.7723 48.7744 71.8548V72.2416Z" fill="#2E368F"></path>
  <path d="M35.3689 71.6073C35.0285 71.6073 34.6675 71.566 34.2859 71.4835C33.9145 71.3906 33.5535 71.1998 33.2028 70.911C32.8624 70.6222 32.5685 70.1838 32.3209 69.5959L31.9651 68.7295H27.8496L26.5809 71.5454H25.7764L30.3405 61.334H31.0368L34.5025 69.5959C34.6881 70.0498 34.915 70.4108 35.1832 70.6789C35.4514 70.9471 35.7608 71.1018 36.1115 71.1431V71.5299C36.029 71.5505 35.9104 71.566 35.7557 71.5763C35.6113 71.5969 35.4823 71.6073 35.3689 71.6073ZM28.1745 68.0333H31.6711L29.9692 63.9951L28.1745 68.0333Z" fill="#2E368F"></path>
  <path d="M23.7908 71.5918L17.2307 63.8868V71.5454H16.4571V63.1906C16.4571 62.7986 16.3591 62.4686 16.1632 62.2004C15.9775 61.9322 15.6113 61.7981 15.0647 61.7981H14.9873V61.334H16.0703C16.6583 61.334 17.1327 61.4113 17.4937 61.5661C17.8651 61.7208 18.1693 61.9529 18.4066 62.2623L23.7289 68.451V61.334H24.5025V71.5918H23.7908Z" fill="#2E368F"></path>
  <path d="M12.8551 71.5454C12.4941 71.5454 12.2104 71.4886 12.0042 71.3752C11.8082 71.2514 11.6689 71.0451 11.5864 70.7563C11.5039 70.4572 11.4626 70.0498 11.4626 69.534V61.334H13.474V69.534C13.474 69.9982 13.5359 70.3747 13.6596 70.6635C13.7937 70.942 14.0929 71.0812 14.557 71.0812H14.7117V71.5454H12.8551Z" fill="#2E368F"></path>
  <path d="M5.13663 71.7005L1.53171 63.1446C1.28416 62.567 1.04177 62.1647 0.804533 61.9378C0.577613 61.7006 0.309436 61.5613 0 61.5201V61.2106C0.0412581 61.2106 0.144403 61.2055 0.309436 61.1952C0.464154 61.1848 0.577613 61.1797 0.649815 61.1797C1.01082 61.1797 1.37699 61.2209 1.74831 61.3035C2.12995 61.386 2.49096 61.5665 2.83134 61.845C3.17172 62.1235 3.46568 62.5567 3.71323 63.1446L6.15777 68.9311L9.42232 61.3344H10.2114L5.75551 71.7005H5.13663Z" fill="#2E368F"></path>
  <path d="M74.5997 78.8592C74.3515 78.8592 74.1472 78.8372 73.9871 78.7931C73.8309 78.7491 73.7128 78.689 73.6327 78.6129C73.5606 78.5449 73.5186 78.4468 73.5065 78.3186C73.4945 78.1905 73.4885 78.0503 73.4885 77.8982H73.6988C73.7308 78.0904 73.8089 78.2546 73.933 78.3907C74.0571 78.5229 74.2393 78.5889 74.4796 78.5889C74.7038 78.5889 74.86 78.5509 74.9481 78.4748C75.0362 78.3947 75.0803 78.2966 75.0803 78.1805C75.0803 78.0644 75.0282 77.9723 74.9241 77.9042C74.82 77.8321 74.6918 77.762 74.5397 77.6939L74.2273 77.5618C73.9871 77.4577 73.7989 77.3396 73.6627 77.2074C73.5266 77.0753 73.4585 76.9111 73.4585 76.7149C73.4585 76.4546 73.5666 76.2564 73.7828 76.1202C73.9991 75.9841 74.2714 75.916 74.5997 75.916C74.848 75.916 75.0502 75.938 75.2064 75.9821C75.3666 76.0261 75.4867 76.0862 75.5668 76.1623C75.6389 76.2304 75.6809 76.3285 75.6929 76.4566C75.7049 76.5847 75.7109 76.7249 75.7109 76.8771H75.5007C75.4687 76.6849 75.3906 76.5227 75.2665 76.3905C75.1423 76.2544 74.9601 76.1863 74.7199 76.1863C74.5397 76.1863 74.4095 76.2264 74.3294 76.3064C74.2494 76.3825 74.2093 76.4786 74.2093 76.5948C74.2093 76.7029 74.2474 76.791 74.3234 76.859C74.3995 76.9231 74.5036 76.9832 74.6358 77.0392L74.9962 77.1894C75.2725 77.3055 75.4807 77.4277 75.6208 77.5558C75.761 77.6799 75.8311 77.8481 75.8311 78.0603C75.8311 78.3206 75.7149 78.5188 75.4827 78.655C75.2504 78.7911 74.9561 78.8592 74.5997 78.8592Z" fill="#2E368F"></path>
  <path d="M71.7904 78.8592C71.5421 78.8592 71.3379 78.8372 71.1777 78.7931C71.0216 78.7491 70.9034 78.689 70.8234 78.6129C70.7513 78.5449 70.7092 78.4468 70.6972 78.3186C70.6852 78.1905 70.6792 78.0503 70.6792 77.8982H70.8894C70.9215 78.0904 70.9995 78.2546 71.1237 78.3907C71.2478 78.5229 71.43 78.5889 71.6703 78.5889C71.8945 78.5889 72.0507 78.5509 72.1388 78.4748C72.2269 78.3947 72.2709 78.2966 72.2709 78.1805C72.2709 78.0644 72.2189 77.9723 72.1148 77.9042C72.0107 77.8321 71.8825 77.762 71.7303 77.6939L71.418 77.5618C71.1777 77.4577 70.9895 77.3396 70.8534 77.2074C70.7172 77.0753 70.6492 76.9111 70.6492 76.7149C70.6492 76.4546 70.7573 76.2564 70.9735 76.1202C71.1898 75.9841 71.4621 75.916 71.7904 75.916C72.0387 75.916 72.2409 75.938 72.3971 75.9821C72.5572 76.0261 72.6774 76.0862 72.7575 76.1623C72.8295 76.2304 72.8716 76.3285 72.8836 76.4566C72.8956 76.5847 72.9016 76.7249 72.9016 76.8771H72.6914C72.6594 76.6849 72.5813 76.5227 72.4571 76.3905C72.333 76.2544 72.1508 76.1863 71.9105 76.1863C71.7303 76.1863 71.6002 76.2264 71.5201 76.3064C71.44 76.3825 71.4 76.4786 71.4 76.5948C71.4 76.7029 71.438 76.791 71.5141 76.859C71.5902 76.9231 71.6943 76.9832 71.8264 77.0392L72.1868 77.1894C72.4631 77.3055 72.6714 77.4277 72.8115 77.5558C72.9517 77.6799 73.0217 77.8481 73.0217 78.0603C73.0217 78.3206 72.9056 78.5188 72.6734 78.655C72.4411 78.7911 72.1468 78.8592 71.7904 78.8592Z" fill="#2E368F"></path>
  <path d="M68.9611 78.8592C68.6808 78.8592 68.4365 78.7951 68.2283 78.667C68.0201 78.5389 67.8599 78.3647 67.7478 78.1444C67.6357 77.9202 67.5796 77.6679 67.5796 77.3876C67.5796 77.0673 67.6377 76.799 67.7538 76.5827C67.8699 76.3625 68.0281 76.1963 68.2283 76.0842C68.4285 75.9721 68.6528 75.916 68.901 75.916C69.1493 75.916 69.3735 75.9661 69.5738 76.0662C69.774 76.1663 69.9322 76.3064 70.0483 76.4866C70.1644 76.6668 70.2225 76.8771 70.2225 77.1173L70.1984 77.4957H68.3905C68.3905 77.8922 68.4505 78.1745 68.5707 78.3427C68.6948 78.5068 68.855 78.5889 69.0512 78.5889C69.2594 78.5889 69.4276 78.5409 69.5557 78.4448C69.6879 78.3487 69.806 78.2305 69.9101 78.0904L70.0963 78.2285C70.0403 78.3166 69.9642 78.4107 69.8681 78.5108C69.776 78.6069 69.6558 78.689 69.5077 78.7571C69.3635 78.8252 69.1813 78.8592 68.9611 78.8592ZM68.3905 77.2254H69.4116C69.4116 76.829 69.3635 76.5567 69.2674 76.4086C69.1753 76.2604 69.0532 76.1863 68.901 76.1863C68.8129 76.1863 68.7288 76.2183 68.6488 76.2824C68.5727 76.3465 68.5106 76.4546 68.4626 76.6068C68.4145 76.7549 68.3905 76.9612 68.3905 77.2254Z" fill="#2E368F"></path>
  <path d="M66.0365 78.8592C65.7162 78.8592 65.4479 78.7931 65.2317 78.661C65.0194 78.5249 64.8593 78.3447 64.7511 78.1204C64.647 77.8962 64.595 77.6519 64.595 77.3876C64.595 77.1193 64.647 76.8751 64.7511 76.6548C64.8593 76.4306 65.0194 76.2524 65.2317 76.1202C65.4479 75.9841 65.7162 75.916 66.0365 75.916C66.2648 75.916 66.457 75.932 66.6132 75.9641C66.7733 75.9961 66.8915 76.0502 66.9676 76.1262C67.0436 76.2023 67.0877 76.3044 67.0997 76.4326C67.1117 76.5607 67.1177 76.7389 67.1177 76.9672H66.9375C66.9215 76.7109 66.8414 76.5167 66.6973 76.3845C66.5571 76.2524 66.3669 76.1863 66.1266 76.1863C65.9825 76.1863 65.8563 76.2304 65.7482 76.3185C65.6401 76.4025 65.556 76.5347 65.496 76.7149C65.4359 76.8911 65.4059 77.1153 65.4059 77.3876C65.4059 77.6519 65.4339 77.8741 65.4899 78.0543C65.546 78.2305 65.6281 78.3647 65.7362 78.4568C65.8483 78.5449 65.9885 78.5889 66.1567 78.5889C66.3649 78.5889 66.5331 78.5409 66.6612 78.4448C66.7934 78.3487 66.9115 78.2305 67.0156 78.0904L67.2018 78.2285C67.1457 78.3166 67.0697 78.4107 66.9736 78.5108C66.8815 78.6069 66.7593 78.689 66.6072 78.7571C66.459 78.8252 66.2688 78.8592 66.0365 78.8592Z" fill="#2E368F"></path>
  <path d="M63.0561 78.8592C62.7357 78.8592 62.4674 78.7931 62.2512 78.661C62.039 78.5249 61.8788 78.3447 61.7707 78.1204C61.6666 77.8962 61.6145 77.6519 61.6145 77.3876C61.6145 77.1193 61.6666 76.8751 61.7707 76.6548C61.8788 76.4306 62.039 76.2524 62.2512 76.1202C62.4674 75.9841 62.7357 75.916 63.0561 75.916C63.2843 75.916 63.4765 75.932 63.6327 75.9641C63.7929 75.9961 63.911 76.0502 63.9871 76.1262C64.0632 76.2023 64.1072 76.3044 64.1192 76.4326C64.1312 76.5607 64.1372 76.7389 64.1372 76.9672H63.9571C63.941 76.7109 63.8609 76.5167 63.7168 76.3845C63.5766 76.2524 63.3864 76.1863 63.1462 76.1863C63.002 76.1863 62.8759 76.2304 62.7678 76.3185C62.6596 76.4025 62.5755 76.5347 62.5155 76.7149C62.4554 76.8911 62.4254 77.1153 62.4254 77.3876C62.4254 77.6519 62.4534 77.8741 62.5095 78.0543C62.5655 78.2305 62.6476 78.3647 62.7557 78.4568C62.8679 78.5449 63.008 78.5889 63.1762 78.5889C63.3844 78.5889 63.5526 78.5409 63.6808 78.4448C63.8129 78.3487 63.931 78.2305 64.0351 78.0904L64.2213 78.2285C64.1653 78.3166 64.0892 78.4107 63.9931 78.5108C63.901 78.6069 63.7789 78.689 63.6267 78.7571C63.4785 78.8252 63.2883 78.8592 63.0561 78.8592Z" fill="#2E368F"></path>
  <path d="M59.5361 78.8558C59.2878 78.8558 59.0796 78.8178 58.9114 78.7417C58.7472 78.6656 58.6251 78.5455 58.545 78.3813C58.4649 78.2171 58.4249 78.0069 58.4249 77.7506V76.7535C58.4249 76.5733 58.3988 76.4292 58.3468 76.321C58.2987 76.2089 58.1846 76.1529 58.0044 76.1529H57.9443V75.9727H58.6651C58.8053 75.9727 58.9134 75.9967 58.9895 76.0447C59.0696 76.0928 59.1256 76.1729 59.1577 76.285C59.1897 76.3971 59.2057 76.5533 59.2057 76.7535V77.7566C59.2057 77.9648 59.2257 78.129 59.2658 78.2491C59.3058 78.3693 59.3639 78.4554 59.44 78.5074C59.516 78.5595 59.6081 78.5855 59.7163 78.5855C59.8124 78.5855 59.8965 78.5635 59.9685 78.5194C60.0406 78.4754 60.1007 78.4233 60.1487 78.3633C60.1968 78.2992 60.2328 78.2431 60.2569 78.1951V75.9727H61.0377V78.7957H60.5271L60.3169 78.5254H60.2869C60.2108 78.6095 60.1107 78.6856 59.9866 78.7537C59.8624 78.8218 59.7123 78.8558 59.5361 78.8558Z" fill="#2E368F"></path>
  <path d="M56.5673 78.8592C56.319 78.8592 56.1148 78.8372 55.9546 78.7931C55.7984 78.7491 55.6803 78.689 55.6002 78.6129C55.5281 78.5449 55.4861 78.4468 55.4741 78.3186C55.4621 78.1905 55.4561 78.0503 55.4561 77.8982H55.6663C55.6983 78.0904 55.7764 78.2546 55.9005 78.3907C56.0247 78.5229 56.2069 78.5889 56.4471 78.5889C56.6714 78.5889 56.8276 78.5509 56.9156 78.4748C57.0037 78.3947 57.0478 78.2966 57.0478 78.1805C57.0478 78.0644 56.9957 77.9723 56.8916 77.9042C56.7875 77.8321 56.6594 77.762 56.5072 77.6939L56.1949 77.5618C55.9546 77.4577 55.7664 77.3396 55.6302 77.2074C55.4941 77.0753 55.426 76.9111 55.426 76.7149C55.426 76.4546 55.5341 76.2564 55.7504 76.1202C55.9666 75.9841 56.2389 75.916 56.5673 75.916C56.8155 75.916 57.0178 75.938 57.1739 75.9821C57.3341 76.0261 57.4542 76.0862 57.5343 76.1623C57.6064 76.2304 57.6484 76.3285 57.6605 76.4566C57.6725 76.5847 57.6785 76.7249 57.6785 76.8771H57.4682C57.4362 76.6849 57.3581 76.5227 57.234 76.3905C57.1099 76.2544 56.9277 76.1863 56.6874 76.1863C56.5072 76.1863 56.3771 76.2264 56.297 76.3064C56.2169 76.3825 56.1768 76.4786 56.1768 76.5948C56.1768 76.7029 56.2149 76.791 56.291 76.859C56.367 76.9231 56.4712 76.9832 56.6033 77.0392L56.9637 77.1894C57.24 77.3055 57.4482 77.4277 57.5884 77.5558C57.7285 77.6799 57.7986 77.8481 57.7986 78.0603C57.7986 78.3206 57.6825 78.5188 57.4502 78.655C57.218 78.7911 56.9237 78.8592 56.5673 78.8592Z" fill="#2E368F"></path>
  <path d="M51.6606 78.7992V76.7569C51.6606 76.5767 51.6365 76.4326 51.5885 76.3245C51.5404 76.2123 51.4263 76.1563 51.2461 76.1563H51.186V75.9761H51.7807C51.9168 75.9761 52.0229 75.9941 52.099 76.0301C52.1791 76.0622 52.2412 76.1182 52.2852 76.1983C52.3573 76.1343 52.4554 76.0722 52.5796 76.0121C52.7077 75.9481 52.8619 75.916 53.0421 75.916C53.1302 75.916 53.2102 75.926 53.2823 75.946C53.3544 75.9661 53.4165 75.9961 53.4685 76.0361C53.5366 76.0842 53.5866 76.1423 53.6187 76.2103C53.6547 76.2784 53.6727 76.3104 53.6727 76.3064L53.3664 76.5407C53.3304 76.4886 53.2763 76.4366 53.2042 76.3845C53.1362 76.3325 53.0521 76.3064 52.952 76.3064C52.8238 76.3064 52.7157 76.3245 52.6276 76.3605C52.5395 76.3965 52.4694 76.4406 52.4174 76.4926C52.4254 76.5647 52.4314 76.6228 52.4354 76.6668C52.4394 76.7109 52.4414 76.7489 52.4414 76.781V78.7992H51.6606Z" fill="#2E368F"></path>
  <path d="M49.3156 78.8558C49.0673 78.8558 48.8591 78.8178 48.6909 78.7417C48.5267 78.6656 48.4046 78.5455 48.3245 78.3813C48.2444 78.2171 48.2044 78.0069 48.2044 77.7506V76.7535C48.2044 76.5733 48.1784 76.4292 48.1263 76.321C48.0783 76.2089 47.9641 76.1529 47.7839 76.1529H47.7239V75.9727H48.4447C48.5848 75.9727 48.6929 75.9967 48.769 76.0447C48.8491 76.0928 48.9052 76.1729 48.9372 76.285C48.9692 76.3971 48.9853 76.5533 48.9853 76.7535V77.7566C48.9853 77.9648 49.0053 78.129 49.0453 78.2491C49.0854 78.3693 49.1434 78.4554 49.2195 78.5074C49.2956 78.5595 49.3877 78.5855 49.4958 78.5855C49.5919 78.5855 49.676 78.5635 49.7481 78.5194C49.8202 78.4754 49.8802 78.4233 49.9283 78.3633C49.9763 78.2992 50.0124 78.2431 50.0364 78.1951V75.9727H50.8172V78.7957H50.3067L50.0965 78.5254H50.0664C49.9903 78.6095 49.8902 78.6856 49.7661 78.7537C49.642 78.8218 49.4918 78.8558 49.3156 78.8558Z" fill="#2E368F"></path>
  <path d="M46.1283 78.8592C45.832 78.8592 45.5757 78.7951 45.3595 78.667C45.1433 78.5349 44.9771 78.3567 44.861 78.1324C44.7448 77.9082 44.6868 77.6599 44.6868 77.3876C44.6868 77.1113 44.7448 76.863 44.861 76.6428C44.9771 76.4186 45.1433 76.2424 45.3595 76.1142C45.5757 75.9821 45.832 75.916 46.1283 75.916C46.4287 75.916 46.6849 75.9821 46.8972 76.1142C47.1134 76.2424 47.2796 76.4186 47.3957 76.6428C47.5118 76.863 47.5699 77.1113 47.5699 77.3876C47.5699 77.6599 47.5118 77.9082 47.3957 78.1324C47.2796 78.3567 47.1134 78.5349 46.8972 78.667C46.6849 78.7951 46.4287 78.8592 46.1283 78.8592ZM46.1283 78.5889C46.2685 78.5889 46.3846 78.5369 46.4767 78.4328C46.5728 78.3286 46.6429 78.1865 46.6869 78.0063C46.735 77.8221 46.759 77.6159 46.759 77.3876C46.759 77.1554 46.735 76.9491 46.6869 76.7689C46.6429 76.5887 46.5728 76.4466 46.4767 76.3425C46.3846 76.2384 46.2685 76.1863 46.1283 76.1863C45.9882 76.1863 45.8701 76.2384 45.7739 76.3425C45.6818 76.4466 45.6118 76.5887 45.5637 76.7689C45.5197 76.9491 45.4976 77.1554 45.4976 77.3876C45.4976 77.6159 45.5197 77.8221 45.5637 78.0063C45.6118 78.1865 45.6818 78.3286 45.7739 78.4328C45.8701 78.5369 45.9882 78.5889 46.1283 78.5889Z" fill="#2E368F"></path>
  <path d="M42.0188 80.0005V79.7902C42.227 79.7902 42.4012 79.7502 42.5414 79.6701C42.6815 79.59 42.7957 79.4358 42.8838 79.2076L43.0099 78.8832L41.9287 76.5167C41.8647 76.3685 41.7846 76.2564 41.6885 76.1803C41.5964 76.1002 41.4902 76.0522 41.3701 76.0361V75.916H41.8987C42.0789 75.916 42.2371 75.9601 42.3732 76.0482C42.5094 76.1323 42.6115 76.2484 42.6795 76.3965L43.3703 77.9102L44.1031 75.9761H44.4214L43.2081 79.1896C43.128 79.4058 43.0399 79.572 42.9438 79.6881C42.8517 79.8082 42.7496 79.8903 42.6375 79.9344C42.5254 79.9784 42.3992 80.0005 42.2591 80.0005H42.0188Z" fill="#2E368F"></path>
  <path d="M38.5129 78.8592C38.2325 78.8592 37.9883 78.7951 37.7801 78.667C37.5718 78.5389 37.4117 78.3647 37.2995 78.1444C37.1874 77.9202 37.1313 77.6679 37.1313 77.3876C37.1313 77.0673 37.1894 76.799 37.3055 76.5827C37.4217 76.3625 37.5798 76.1963 37.7801 76.0842C37.9803 75.9721 38.2045 75.916 38.4528 75.916C38.7011 75.916 38.9253 75.9661 39.1255 76.0662C39.3257 76.1663 39.4839 76.3064 39.6 76.4866C39.7162 76.6668 39.7742 76.8771 39.7742 77.1173L39.7502 77.4957H37.9422C37.9422 77.8922 38.0023 78.1745 38.1224 78.3427C38.2466 78.5068 38.4067 78.5889 38.6029 78.5889C38.8112 78.5889 38.9794 78.5409 39.1075 78.4448C39.2396 78.3487 39.3578 78.2305 39.4619 78.0904L39.6481 78.2285C39.592 78.3166 39.5159 78.4107 39.4198 78.5108C39.3277 78.6069 39.2076 78.689 39.0594 78.7571C38.9153 78.8252 38.7331 78.8592 38.5129 78.8592ZM37.9422 77.2254H38.9633C38.9633 76.829 38.9153 76.5567 38.8192 76.4086C38.7271 76.2604 38.605 76.1863 38.4528 76.1863C38.3647 76.1863 38.2806 76.2183 38.2005 76.2824C38.1244 76.3465 38.0624 76.4546 38.0143 76.6068C37.9663 76.7549 37.9422 76.9612 37.9422 77.2254Z" fill="#2E368F"></path>
  <path d="M35.1093 78.8584C34.829 78.8584 34.5947 78.7943 34.4065 78.6662C34.2223 78.534 34.0822 78.3558 33.9861 78.1316C33.894 77.9073 33.8479 77.6591 33.8479 77.3868C33.8479 77.1105 33.894 76.8622 33.9861 76.642C34.0822 76.4177 34.2263 76.2415 34.4185 76.1134C34.6107 75.9812 34.851 75.9152 35.1393 75.9152C35.2755 75.9152 35.3956 75.9352 35.4997 75.9752C35.6078 76.0113 35.6979 76.0513 35.77 76.0954V75.6148C35.77 75.4346 35.744 75.2905 35.6919 75.1824C35.6439 75.0702 35.5297 75.0142 35.3495 75.0142H35.2895V74.834H36.0103C36.1504 74.834 36.2585 74.858 36.3346 74.9061C36.4147 74.9541 36.4708 75.0342 36.5028 75.1463C36.5348 75.2584 36.5508 75.4146 36.5508 75.6148V78.7983H36.0403L35.8301 78.528H35.8C35.748 78.6081 35.6619 78.6842 35.5417 78.7563C35.4256 78.8243 35.2815 78.8584 35.1093 78.8584ZM35.2294 78.5881C35.3255 78.5881 35.4096 78.566 35.4817 78.522C35.5538 78.4779 35.6138 78.4259 35.6619 78.3658C35.7099 78.3018 35.746 78.2457 35.77 78.1976V76.3657C35.7139 76.3216 35.6419 76.2816 35.5538 76.2455C35.4657 76.2055 35.3676 76.1855 35.2594 76.1855C35.1113 76.1855 34.9931 76.2375 34.9051 76.3416C34.817 76.4457 34.7529 76.5879 34.7128 76.7681C34.6768 76.9483 34.6588 77.1545 34.6588 77.3868C34.6588 77.615 34.6768 77.8212 34.7128 78.0054C34.7489 78.1856 34.8089 78.3278 34.893 78.4319C34.9771 78.536 35.0893 78.5881 35.2294 78.5881Z" fill="#2E368F"></path>
  <path d="M32.4964 78.7938V76.7516C32.4964 76.5714 32.4704 76.4272 32.4183 76.3191C32.3703 76.207 32.2561 76.1509 32.0759 76.1509H32.0159V75.9707H32.7367C32.8768 75.9707 32.9849 75.9948 33.061 76.0428C33.1411 76.0909 33.1972 76.1709 33.2292 76.2831C33.2612 76.3952 33.2772 76.5514 33.2772 76.7516V78.7938H32.4964ZM32.8868 75.6464C32.7347 75.6464 32.6205 75.6003 32.5444 75.5082C32.4724 75.4161 32.4363 75.31 32.4363 75.1899C32.4363 75.0858 32.4684 75.0037 32.5324 74.9436C32.5965 74.8835 32.6746 74.8535 32.7667 74.8535C32.9189 74.8535 33.031 74.8996 33.1031 74.9917C33.1791 75.0838 33.2172 75.1899 33.2172 75.31C33.2172 75.4141 33.1851 75.4962 33.1211 75.5563C33.057 75.6163 32.9789 75.6464 32.8868 75.6464Z" fill="#2E368F"></path>
  <path d="M30.589 78.8592C30.3407 78.8592 30.1365 78.8372 29.9763 78.7931C29.8202 78.7491 29.702 78.689 29.6219 78.6129C29.5499 78.5449 29.5078 78.4468 29.4958 78.3186C29.4838 78.1905 29.4778 78.0503 29.4778 77.8982H29.688C29.7201 78.0904 29.7981 78.2546 29.9223 78.3907C30.0464 78.5229 30.2286 78.5889 30.4689 78.5889C30.6931 78.5889 30.8493 78.5509 30.9374 78.4748C31.0255 78.3947 31.0695 78.2966 31.0695 78.1805C31.0695 78.0644 31.0175 77.9723 30.9133 77.9042C30.8092 77.8321 30.6811 77.762 30.5289 77.6939L30.2166 77.5618C29.9763 77.4577 29.7881 77.3396 29.652 77.2074C29.5158 77.0753 29.4478 76.9111 29.4478 76.7149C29.4478 76.4546 29.5559 76.2564 29.7721 76.1202C29.9883 75.9841 30.2606 75.916 30.589 75.916C30.8373 75.916 31.0395 75.938 31.1957 75.9821C31.3558 76.0261 31.476 76.0862 31.556 76.1623C31.6281 76.2304 31.6702 76.3285 31.6822 76.4566C31.6942 76.5847 31.7002 76.7249 31.7002 76.8771H31.49C31.4579 76.6849 31.3799 76.5227 31.2557 76.3905C31.1316 76.2544 30.9494 76.1863 30.7091 76.1863C30.5289 76.1863 30.3988 76.2264 30.3187 76.3064C30.2386 76.3825 30.1986 76.4786 30.1986 76.5948C30.1986 76.7029 30.2366 76.791 30.3127 76.859C30.3888 76.9231 30.4929 76.9832 30.625 77.0392L30.9854 77.1894C31.2617 77.3055 31.47 77.4277 31.6101 77.5558C31.7503 77.6799 31.8203 77.8481 31.8203 78.0603C31.8203 78.3206 31.7042 78.5188 31.472 78.655C31.2397 78.7911 30.9454 78.8592 30.589 78.8592Z" fill="#2E368F"></path>
  <path d="M27.7607 78.8592C27.4803 78.8592 27.2361 78.7951 27.0279 78.667C26.8196 78.5389 26.6595 78.3647 26.5473 78.1444C26.4352 77.9202 26.3792 77.6679 26.3792 77.3876C26.3792 77.0673 26.4372 76.799 26.5533 76.5827C26.6695 76.3625 26.8276 76.1963 27.0279 76.0842C27.2281 75.9721 27.4523 75.916 27.7006 75.916C27.9489 75.916 28.1731 75.9661 28.3733 76.0662C28.5735 76.1663 28.7317 76.3064 28.8478 76.4866C28.964 76.6668 29.022 76.8771 29.022 77.1173L28.998 77.4957H27.19C27.19 77.8922 27.2501 78.1745 27.3702 78.3427C27.4944 78.5068 27.6545 78.5889 27.8508 78.5889C28.059 78.5889 28.2272 78.5409 28.3553 78.4448C28.4874 78.3487 28.6056 78.2305 28.7097 78.0904L28.8959 78.2285C28.8398 78.3166 28.7637 78.4107 28.6676 78.5108C28.5755 78.6069 28.4554 78.689 28.3072 78.7571C28.1631 78.8252 27.9809 78.8592 27.7607 78.8592ZM27.19 77.2254H28.2111C28.2111 76.829 28.1631 76.5567 28.067 76.4086C27.9749 76.2604 27.8528 76.1863 27.7006 76.1863C27.6125 76.1863 27.5284 76.2183 27.4483 76.2824C27.3722 76.3465 27.3102 76.4546 27.2621 76.6068C27.2141 76.7549 27.19 76.9612 27.19 77.2254Z" fill="#2E368F"></path>
  <path d="M22.8621 78.7983V75.6148C22.8621 75.4346 22.8361 75.2905 22.784 75.1824C22.736 75.0702 22.6219 75.0142 22.4417 75.0142H22.3816V74.834H24.0034C24.1916 74.834 24.3878 74.846 24.592 74.87C24.8002 74.89 24.9924 74.9361 25.1686 75.0082C25.3488 75.0762 25.495 75.1804 25.6071 75.3205C25.7192 75.4607 25.7753 75.6489 25.7753 75.8851C25.7753 76.0573 25.7052 76.2275 25.5651 76.3957C25.4289 76.5599 25.2207 76.678 24.9404 76.7501C25.2047 76.7741 25.4089 76.8322 25.553 76.9243C25.7012 77.0164 25.8053 77.1305 25.8654 77.2666C25.9254 77.3988 25.9555 77.5429 25.9555 77.6991C25.9555 77.9273 25.9034 78.1136 25.7993 78.2577C25.6992 78.4019 25.5631 78.514 25.3909 78.5941C25.2187 78.6702 25.0265 78.7242 24.8142 78.7563C24.606 78.7843 24.3958 78.7983 24.1836 78.7983H22.8621ZM24.0935 78.558C24.4258 78.558 24.6781 78.486 24.8503 78.3418C25.0265 78.1976 25.1146 77.9934 25.1146 77.7291C25.1146 77.4528 25.0285 77.2466 24.8563 77.1105C24.6881 76.9703 24.4338 76.9002 24.0935 76.9002H23.643V78.498C23.687 78.51 23.7491 78.524 23.8292 78.54C23.9093 78.552 23.9973 78.558 24.0935 78.558ZM23.643 76.6299H24.0935C24.2576 76.6299 24.4018 76.6059 24.5259 76.5579C24.6541 76.5058 24.7542 76.4237 24.8263 76.3116C24.8983 76.1955 24.9344 76.0433 24.9344 75.8551C24.9344 75.6549 24.8883 75.4987 24.7962 75.3866C24.7081 75.2745 24.592 75.1944 24.4478 75.1463C24.3077 75.0983 24.1595 75.0742 24.0034 75.0742C23.9593 75.0742 23.9093 75.0762 23.8532 75.0803C23.8011 75.0843 23.7311 75.0963 23.643 75.1163V76.6299Z" fill="#2E368F"></path>
  <path d="M51.452 41.7894C47.6625 39.5059 43.5444 37.5164 39.481 35.6181C39.4692 35.6125 39.4587 35.6042 39.4505 35.594C39.4422 35.5837 39.4363 35.5717 39.4332 35.5588C39.4301 35.5459 39.4298 35.5325 39.4325 35.5195C39.4352 35.5065 39.4407 35.4943 39.4486 35.4838C40.8645 33.5728 42.1119 31.4734 43.1908 29.1857C45.4018 24.4953 47.0152 19.4729 48.031 14.1185C48.6634 10.7781 48.9298 7.59321 48.8303 4.56372C48.7838 3.12923 48.6053 1.75219 48.2949 0.432601C48.1638 -0.124974 48.2161 -0.143559 48.4518 0.376843C50.4702 4.80872 51.8902 9.5312 52.7119 14.5443C54.2108 23.6961 54.024 33.185 52.55 42.3749C52.5301 42.4965 52.4695 42.5236 52.3683 42.456C52.0546 42.2482 51.7707 41.982 51.452 41.7894Z" fill="#F0B64F"></path>
  <path d="M29.1514 12.4746C33.4987 6.77217 39.7954 3.22397 46.869 2.43069C46.9935 2.41717 47.0582 2.47293 47.0632 2.59796L47.1678 5.15774C47.1711 5.26587 47.1196 5.31825 47.0134 5.31487C40.0286 5.15098 34.0921 7.55362 29.2037 12.5228C29.1888 12.538 29.173 12.538 29.1564 12.5228C29.1398 12.5076 29.1382 12.4915 29.1514 12.4746Z" fill="#F0B64F"></path>
  <path d="M73.302 38.2721C73.1177 38.7536 72.9077 39.2149 72.672 39.6559C72.6191 39.7572 72.5322 39.8347 72.428 39.8739C70.4561 40.6325 68.514 41.125 66.6018 41.3514C66.4807 41.3666 66.45 41.3193 66.5097 41.2095C68.49 37.5413 69.5116 33.7853 69.5747 29.9414C69.6743 24.021 67.9372 18.795 64.3635 14.2634C61.2977 10.3756 57.3771 7.70433 52.6016 6.24957C52.5186 6.22591 52.4622 6.17269 52.4323 6.0899L51.1575 2.67095C51.0646 2.42258 51.1484 2.31191 51.409 2.33894C58.012 3.03506 63.4771 5.6413 67.8044 10.1577C75.0149 17.6824 77.0217 28.5323 73.302 38.2721Z" fill="#F0B64F"></path>
  <path d="M54.0831 11.3279C56.5298 15.3171 58.2627 19.4339 59.2819 23.6782C60.7484 29.7887 61.1094 36.107 60.8729 42.3823C60.8724 42.3938 60.8688 42.405 60.8624 42.4146C60.8559 42.4241 60.847 42.4315 60.8365 42.4361C60.8261 42.4406 60.8146 42.442 60.8034 42.4401C60.7922 42.4382 60.7817 42.4331 60.7733 42.4254C59.0121 40.8878 57.158 39.5057 55.211 38.279C55.1347 38.2317 55.1015 38.1625 55.1114 38.0712C55.8459 30.5997 55.958 22.5985 54.8824 15.4641C54.6832 14.1428 54.4076 12.7565 54.0557 11.3051C54.0541 11.3 54.0532 11.2941 54.0532 11.2874C54.0499 11.2705 54.0549 11.2679 54.0682 11.2798C54.0732 11.2848 54.0765 11.2916 54.0781 11.3C54.0781 11.3051 54.079 11.311 54.0806 11.3178C54.0806 11.3212 54.0815 11.3245 54.0831 11.3279Z" fill="#F0B64F"></path>
  <path d="M73.6821 41.1481C74.1029 40.958 74.5386 40.7121 74.9693 40.5499C75.1204 40.4942 75.1353 40.5204 75.0141 40.6285C74.3286 41.2401 73.6265 41.7859 72.9078 42.2657C67.0069 46.1992 60.0304 47.6033 52.9344 46.6604C47.8054 45.9787 42.3378 45.1271 37.4278 45.3628C35.1007 45.476 32.8059 45.8038 30.5435 46.3462C30.5203 46.3512 30.5053 46.3428 30.4987 46.3208V46.3183C30.492 46.2963 30.4995 46.2811 30.5211 46.2727C35.1555 44.5003 39.9542 43.5431 44.9172 43.4012C46.1605 43.3657 47.7523 43.4307 49.6927 43.5963C55.0134 44.0449 60.5458 44.1742 65.5429 43.4873C68.4112 43.092 71.1242 42.3122 73.6821 41.1481Z" fill="#2E368F"></path>
  <path d="M41.5726 47.5478C44.7429 47.7894 47.9996 48.0547 51.3426 48.3436C53.3062 48.5143 55.3205 48.5819 57.3854 48.5464C60.8413 48.4881 64.1453 48.0293 67.265 46.5721C67.2916 46.5602 67.3115 46.567 67.3247 46.5923C67.3364 46.6126 67.3322 46.6295 67.3123 46.643C65.4051 47.8916 63.302 48.7669 61.0031 49.2687C53.7453 50.8552 46.1713 49.9302 38.8039 49.3498C34.8849 49.0431 31.5959 49.3726 27.8611 50.4776C27.4412 50.601 27.4146 50.541 27.7815 50.2977C28.0885 50.0949 28.4014 49.9209 28.7201 49.7756C32.7254 47.9423 37.0095 47.1997 41.5726 47.5478Z" fill="#2E368F"></path>
  <path d="M58.2243 53.1178C51.4935 55.4833 44.893 55.1622 38.4228 52.1547C38.3962 52.1429 38.3879 52.1235 38.3979 52.0964V52.0939C38.4095 52.0635 38.4311 52.0533 38.4626 52.0635C43.2215 53.6551 47.9787 53.7446 52.7342 52.3321C53.2173 52.1885 53.6986 52.1159 54.1783 52.1142C56.635 52.1057 59.2194 51.7264 61.9316 50.9762C62.2537 50.8867 62.2794 50.9416 62.0088 51.1409C60.8652 51.9756 59.6037 52.6346 58.2243 53.1178Z" fill="#F0B64F"></path>
</svg>
