<svg width="96" height="60" viewBox="0 0 96 60" fill="none" xmlns="http://www.w3.org/2000/svg">
<path fill-rule="evenodd" clip-rule="evenodd" d="M88.266 3.31475C78.6577 -2.97527 67.4416 1.11136 58.1141 3.97389C58.056 3.92681 58.0076 3.87972 57.9398 3.83264L54.4529 1.29027C54.017 0.97012 53.5037 0.810045 52.9613 0.810045C52.1961 0.810045 51.4891 1.14903 51.0144 1.73283L47.5082 6.0737C47.421 6.0737 47.3435 6.0737 47.2564 6.06428C46.0069 5.98895 44.8252 5.86654 43.6726 5.7253L43.692 3.06993C43.692 2.25072 43.2852 1.49743 42.5781 1.04545C42.1713 0.781797 41.6967 0.64997 41.2124 0.64997C40.7281 0.64997 40.5344 0.715883 40.2245 0.84771L38.2389 1.68575C37.5221 1.98707 36.9797 2.61795 36.8054 3.36183C36.7182 3.75731 36.7279 4.16221 36.8441 4.54827C29.1148 3.00402 22.3542 1.45035 10.7893 5.56522C-0.872407 9.71777 -1.85067 25.4428 2.08176 37.2319C8.23225 55.6405 22.7416 60.8477 27.5361 59.8873C29.3473 59.5294 27.9622 57.2884 27.2552 54.8213C25.0759 47.2036 48.2153 54.9626 58.5403 54.5483C95.5982 53.0417 101.603 12.0342 88.2757 3.31475H88.266Z" fill="#F2EFE7"/>
<path d="M26.9157 41.1398C26.8672 40.6219 26.6445 39.3884 25.9277 39.4072C24.7654 39.4449 24.6976 40.4336 24.7267 41.3187C24.7461 41.9025 24.7848 43.4844 25.2885 43.814C25.4047 43.8893 25.5693 43.8893 25.7049 43.8799C26.383 43.8611 26.5476 43.3526 26.596 42.7876L29.3662 43.2961C28.9981 45.2453 27.9327 46.5541 25.7921 46.62C22.8089 46.7142 21.9856 44.1059 21.9081 41.7048C21.8209 38.9835 22.7024 36.7613 25.8599 36.6577C28.262 36.5824 29.5502 38.8611 29.7052 40.9138L26.906 41.1304L26.9157 41.1398Z" fill="#E42A1D"/>
<path d="M33.3949 36.9307L33.3078 39.0776C36.6106 39.0588 38.0538 40.5371 37.9376 43.748C37.8892 45.104 37.5889 46.4317 37.3855 47.7688L34.935 47.3733C35.1287 46.1398 35.4096 44.8968 35.4483 43.635C35.4968 42.2226 35.4096 41.5635 33.763 41.507C33.5596 41.507 33.3659 41.507 33.1722 41.507C33.0559 43.475 32.9397 45.4524 32.8525 47.4204L30.3633 47.3356C30.5183 43.8328 30.7507 40.3394 30.9057 36.8365L33.3949 36.9213V36.9307Z" fill="#E42A1D"/>
<path d="M40.2423 36.3747C41.0365 36.3465 41.5983 36.8738 41.6177 37.6459C41.6467 38.4181 41.114 38.9548 40.3295 38.983C39.5352 39.0113 38.9638 38.4934 38.9347 37.7307C38.9056 36.9585 39.4481 36.403 40.2423 36.3747ZM41.5499 39.7363L41.5983 40.6497C41.6177 41.2335 41.6177 41.8173 41.608 42.4011C41.608 42.7589 41.5692 43.0979 41.5789 43.4463C41.5789 43.7194 41.6274 43.9736 41.637 44.2278C41.6467 44.5574 41.6177 44.887 41.5983 45.2165C41.5789 45.8851 41.5789 46.5536 41.5983 47.2128L39.1091 47.2881C39.1091 46.5913 39.08 45.8757 39.1091 45.1601C39.1284 44.8776 39.1672 44.6045 39.1575 44.3126C39.1575 44.0395 39.1091 43.7759 39.0994 43.5028C39.0703 42.58 39.1381 41.6478 39.1091 40.725L39.0606 39.8117L41.5499 39.7363Z" fill="#E42A1D"/>
<path d="M43.8071 50.7058C43.6812 49.1992 43.594 47.6926 43.4294 46.186C43.2066 44.0862 42.6932 42.0335 42.4414 39.9336H42.5576C42.5576 39.9242 42.5286 39.8206 42.5286 39.8206C43.6037 39.6512 44.6498 39.3687 45.7249 39.2557C47.9429 39.0297 50.006 39.6982 50.2579 42.137C50.5194 44.6041 48.2238 46.6286 46.0348 47.4007C46.1123 48.4553 46.1801 49.5099 46.277 50.5551L43.7877 50.6869L43.8071 50.7058ZM47.788 42.3819C47.7008 41.5156 46.6838 41.6003 46.0445 41.6662C45.7636 41.6945 45.5021 41.7321 45.2309 41.7792C45.4149 42.8244 45.628 43.8602 45.7636 44.896C46.645 44.4628 47.8945 43.4459 47.7783 42.3819H47.788Z" fill="#E42A1D"/>
<path d="M56.5622 40.0381C55.5549 39.8404 54.5379 39.6332 53.5209 39.7368C53.24 39.765 53.0172 39.831 52.8526 40.0475C53.2012 40.895 57.0368 40.7632 57.3371 43.6351C57.492 45.104 55.9423 46.0833 54.596 46.2151C53.6952 46.2999 52.7944 46.2528 51.8937 46.1963L51.9808 43.7763C52.746 43.8328 53.5306 43.8988 54.3151 43.814C54.4701 43.7952 54.6347 43.7575 54.7703 43.6822C54.0633 42.7782 51.6321 43.1455 50.6151 41.1116C50.4892 40.8573 50.402 40.5748 50.373 40.2924C50.1986 38.6351 51.729 37.4863 53.2787 37.3357C54.5572 37.2133 55.8261 37.4298 57.0756 37.6747L56.5719 40.0381H56.5622Z" fill="#E42A1D"/>
<path fill-rule="evenodd" clip-rule="evenodd" d="M65.2531 40.3955C65.0109 40.3861 64.7882 40.5273 64.7204 40.7533C64.6526 40.9793 64.7494 41.2241 64.9528 41.3371C66.58 42.2787 68.8272 43.5782 69.757 44.1243C69.9991 44.2655 70.3091 44.1902 70.4641 43.9642C70.8612 43.3804 71.607 42.2787 72.101 41.5443C72.2075 41.3936 72.2172 41.1959 72.13 41.0358C72.0428 40.8757 71.8782 40.7627 71.6942 40.7533C70.2219 40.6685 67.2774 40.4991 65.2531 40.3861V40.3955ZM59.6838 42.0057C59.5772 41.7985 59.6353 41.5443 59.8194 41.3936C60.0034 41.2429 60.2649 41.2335 60.4586 41.3748C61.5822 42.1657 62.9769 43.145 63.6162 43.6064C63.8196 43.7476 63.8874 44.0207 63.7808 44.2467C63.529 44.7458 63.0835 45.6215 62.7445 46.29C62.6573 46.4689 62.4733 46.5725 62.2699 46.5725C62.0665 46.5725 61.8921 46.4595 61.8049 46.2806C61.2625 45.1883 60.3618 43.371 59.6838 42.0057ZM63.868 37.1281C63.6162 37.1751 63.3644 37.0339 63.2772 36.7985C63.19 36.5631 63.2966 36.2994 63.5193 36.177C65.7664 34.9906 68.6625 33.4652 69.7957 32.8625C69.9216 32.7966 70.0766 32.7778 70.2122 32.8249C70.3478 32.8719 70.4641 32.9661 70.5222 33.0979C70.774 33.6347 71.1808 34.4821 71.4617 35.0565C71.5295 35.1977 71.5295 35.3672 71.4617 35.4991C71.3842 35.6403 71.2486 35.7345 71.0936 35.7721C69.7086 36.0358 66.4251 36.6573 63.8874 37.1375L63.868 37.1281ZM19.0228 42.9849C19.168 42.8343 19.4102 42.806 19.5942 42.9284C19.7686 43.0508 19.8364 43.2768 19.7395 43.4652C18.8097 45.339 17.6086 47.7495 17.134 48.7006C17.0856 48.8041 16.9887 48.8889 16.8725 48.9171C16.7563 48.9548 16.6304 48.936 16.5238 48.8795C16.0783 48.6346 15.3809 48.2486 14.9063 47.9944C14.7901 47.9284 14.7126 47.8154 14.6835 47.6836C14.6641 47.5518 14.7029 47.42 14.7997 47.3258C15.6133 46.4878 17.5311 44.5104 19.0228 42.9755V42.9849ZM16.766 41.516C16.9694 41.4972 17.1243 41.3465 17.1534 41.1488C17.1824 40.951 17.0662 40.7627 16.8822 40.6968C14.9741 39.9718 12.1265 38.8889 12.1265 38.8889L10.6445 42.1469C10.6445 42.1469 14.4317 41.7514 16.766 41.5066V41.516ZM18.7031 37.7495C18.8194 37.9096 18.8097 38.1262 18.6741 38.2768C18.5385 38.4275 18.3254 38.4652 18.1413 38.3804C17.0953 37.8719 15.8168 37.2505 15.2162 36.968C15.0225 36.8738 14.9257 36.6573 14.9935 36.4595C15.1291 36.017 15.3712 35.2354 15.5649 34.6328C15.6133 34.4727 15.749 34.3597 15.9136 34.3315C16.0783 34.3032 16.2429 34.3691 16.3398 34.5104C16.9403 35.339 17.9379 36.7137 18.6934 37.7495H18.7031Z" fill="#E42A1D"/>
<path d="M87.8607 6.62903C88.5 11.2335 89.0036 15.9511 89.023 20.7627C89.0424 26.6384 87.9673 38.1545 78.6205 37.3917C74.1069 37.0245 71.2593 33.6158 69.632 30.2543C67.5205 32.5236 64.392 33.5782 61.2151 33.3522C59.9656 33.2675 58.7355 33.0226 57.5635 32.5142C53.6892 30.7627 51.6746 25.8663 51.8198 22.1658C51.9942 17.6836 52.895 13.2957 53.941 8.98308L60.5274 9.99061C59.5201 14.0396 58.6677 18.1356 58.5321 22.3447C58.4837 23.7853 59.2101 26.6384 61.186 26.7326C62.1449 26.7797 62.6486 26.6855 63.4622 26.2241C66.2129 24.7835 66.1258 15.6968 66.0967 13.0697H73.7582C73.7001 17.1469 74.6396 27.4671 78.5817 30.3296C80.5286 28.7477 80.7998 22.9191 80.8095 20.565C80.8385 16.2053 80.4414 11.8833 79.8796 7.66481L87.8607 6.63844V6.62903Z" fill="#E42A1D"/>
<path d="M50.7747 19.6517C51.1525 26.6573 47.8787 33.71 40.0913 33.823C38.5803 33.8419 37.079 33.6159 35.6842 33.0415C31.529 31.2712 29.5628 25.6215 29.4369 21.469C29.2819 16.1582 31.6162 9.64224 37.7376 8.97369C44.4111 8.23923 50.397 12.5518 50.7747 19.6611V19.6517ZM38.0282 14.7364C35.3937 14.9718 34.9384 19.0679 35.0062 21.0923C35.074 23.1168 35.384 24.0773 36.0813 25.4332C36.9337 27.1469 37.8538 27.8155 39.8007 27.7402C43.7912 27.5895 44.6436 23.3805 44.4886 20.1319C44.324 16.5161 41.4473 14.4445 38.0185 14.7364H38.0282Z" fill="#E42A1D"/>
<path d="M26.0542 9.23732C26.8775 12.8531 27.6136 16.5537 28.0495 20.3767C28.5822 25.0377 28.9309 34.2562 22.9838 34.8023C20.0878 35.0659 17.9472 32.7025 16.5912 30.2072C15.4483 32.2788 13.5208 33.5123 11.448 33.7194C10.6247 33.8042 9.80145 33.7571 8.99753 33.4934C6.29519 32.5612 4.50332 28.8418 4.2418 25.8192C3.92217 22.1563 4.08683 18.4746 4.35803 14.84L8.78444 14.9247C8.51324 18.324 8.34858 21.742 8.65853 25.1695C8.76507 26.3371 9.51088 28.5594 10.8088 28.3899C11.4384 28.3145 11.758 28.1733 12.2326 27.7025C13.8792 26.2147 12.9687 18.9078 12.7072 16.7891L17.6566 15.9322C17.9956 19.2091 19.5454 27.3729 22.3155 29.1808C23.4003 27.6836 23.0516 23.0226 22.8482 21.13C22.4705 17.6366 21.8215 14.2279 21.0757 10.904L26.0542 9.22791V9.23732Z" fill="#E42A1D"/>
<path fill-rule="evenodd" clip-rule="evenodd" d="M47.9997 8.45527C47.8351 8.65301 47.8351 8.9355 47.99 9.13324C48.145 9.34039 48.4162 9.41572 48.6584 9.32156C51.0217 8.42702 54.8767 6.9581 56.6588 6.28013C56.8526 6.2048 56.9882 6.03531 57.0172 5.83757C57.0463 5.63983 56.9591 5.43267 56.7944 5.31026C55.7871 4.5758 54.1115 3.35169 53.3076 2.76789C53.0557 2.58898 52.707 2.62665 52.5133 2.87147C51.661 3.92608 49.4332 6.67561 47.99 8.46469L47.9997 8.45527Z" fill="#E42A1D"/>
<path fill-rule="evenodd" clip-rule="evenodd" d="M40.7667 6.44963C40.9216 6.62854 41.1735 6.68504 41.3962 6.60971C41.619 6.52496 41.774 6.31781 41.774 6.09182C41.774 5.11253 41.7837 3.8696 41.7934 3.0598C41.7934 2.87148 41.6965 2.69257 41.5318 2.58899C41.3672 2.48542 41.1638 2.46658 40.9894 2.54191C40.3889 2.79615 39.585 3.13513 39.0039 3.37995C38.8392 3.45528 38.7133 3.59653 38.6745 3.76602C38.6358 3.93551 38.6745 4.12383 38.8005 4.25566C39.3138 4.83005 40.1274 5.734 40.7667 6.44963Z" fill="#E42A1D"/>
</svg>
