<svg width="130" height="119" viewBox="0 0 130 119" fill="none" xmlns="http://www.w3.org/2000/svg">
<g id="Group 39471">
<path id="Vector" d="M47.0332 66.5102C21.6122 65.0719 1.27262 44.6313 0 19.168C25.4211 20.6062 45.7606 41.0468 47.0332 66.5102Z" fill="#00A34B"/>
<path id="Vector_2" d="M129.763 0C127.217 40.7467 94.1157 73.2088 53.1006 74.7501C53.2753 71.9318 53.598 69.1538 54.064 66.4207C58.4823 40.2046 75.6807 18.3302 99.027 7.4199C108.419 3.0289 118.811 0.412217 129.763 0Z" fill="#2B3A89"/>
<g id="Group">
<path id="Vector_3" d="M11.7093 94.4996V100.849H7.60912V94.4548L0.820312 83.9746H5.63297L9.74658 91.3094L13.6227 83.9746H18.2875L11.7138 94.5041L11.7093 94.4996Z" fill="#DA251D"/>
<path id="Vector_4" d="M23.9068 94.7421V100.849H19.8066V83.9707H28.7867C30.7001 83.9707 32.2013 84.4501 33.2812 85.4135C34.3611 86.3768 34.9033 87.6941 34.9033 89.3788C34.9033 90.5662 34.5224 91.646 33.7562 92.6183C32.6494 94.0342 30.9376 94.7421 28.6119 94.7421H23.9068ZM23.9068 91.8252H27.7426C29.0511 91.8252 29.9473 91.4757 30.4268 90.7812C30.6777 90.4049 30.7987 89.8762 30.7987 89.1861C30.7987 88.3751 30.5164 87.7882 29.9518 87.4253C29.3871 87.0623 28.4685 86.8786 27.1914 86.8786H23.9023V91.8252H23.9068Z" fill="#DA251D"/>
<path id="Vector_5" d="M48.8122 93.2814H41.1451V100.849H37.0449V83.9707H41.1451V90.3645H48.8122V83.9707H52.9124V100.849H48.8122V93.2814Z" fill="#DA251D"/>
<path id="Vector_6" d="M59.7017 97.3722L58.3394 100.849H54.0107L61.0102 83.9707H65.778L72.6699 100.849H68.2336L66.9789 97.3722H59.6972H59.7017ZM60.7995 94.4553H65.8363L63.3627 87.7747L60.7995 94.4553Z" fill="#DA251D"/>
<path id="Vector_7" d="M73.6998 100.849V83.9707H83.6522C85.9331 83.9707 87.609 84.5711 88.6889 85.7719C89.4552 86.6367 89.8361 87.6179 89.8361 88.7112C89.8361 89.67 89.5672 90.5124 89.0295 91.2427C88.4918 91.9731 87.739 92.4749 86.78 92.7527C87.7076 93.1067 88.326 93.501 88.6352 93.9356C89.0698 94.5494 89.2894 95.58 89.2894 97.0362C89.2894 98.2011 89.3118 99.0077 89.3611 99.4647C89.4104 99.9217 89.6793 100.226 90.1677 100.379V100.849H85.6239C85.4805 100.415 85.373 99.9531 85.2968 99.4647C85.2206 98.9808 85.1847 98.2952 85.1847 97.417C85.1847 96.149 85.0279 95.3246 84.7187 94.9482C84.3199 94.4598 83.3968 94.2134 81.9539 94.2134H77.7462V100.849H73.6953H73.6998ZM77.7507 91.3996H82.5723C83.6567 91.3996 84.4588 91.2159 84.9697 90.8529C85.4805 90.49 85.7359 89.903 85.7359 89.092C85.7359 88.5096 85.5522 88.0301 85.1892 87.6582C84.7008 87.1385 83.9166 86.8786 82.8367 86.8786H77.7462V91.3996H77.7507Z" fill="#DA251D"/>
<path id="Vector_8" d="M109.226 89.4725H105.126C104.848 88.6525 104.512 88.0477 104.109 87.6578C103.36 86.923 102.258 86.5556 100.797 86.5556C99.5245 86.5556 98.4625 86.9365 97.6156 87.7026C96.4864 88.7197 95.9173 90.3148 95.9173 92.479C95.9173 94.1234 96.2892 95.4541 97.0375 96.4757C97.9024 97.6407 99.1526 98.2231 100.793 98.2231C101.922 98.2231 102.867 97.9498 103.625 97.4077C104.382 96.8655 104.879 96.0814 105.121 95.0643H109.222C108.787 96.9775 107.882 98.474 106.511 99.5539C105.014 100.732 103.074 101.324 100.685 101.324C98.0055 101.324 95.859 100.571 94.2458 99.061C92.552 97.4838 91.7051 95.2749 91.7051 92.4387C91.7051 89.6024 92.5834 87.3576 94.3355 85.7581C95.9755 84.257 98.1085 83.5088 100.734 83.5088C103.36 83.5088 105.583 84.1898 107.187 85.5519C108.54 86.7079 109.217 88.0163 109.217 89.477L109.226 89.4725Z" fill="#DA251D"/>
<path id="Vector_9" d="M110.534 92.3899C110.534 89.9883 111.153 88.0482 112.389 86.5831C113.362 85.4181 114.684 84.5802 116.36 84.0694C117.56 83.6931 118.779 83.5049 120.007 83.5049C121.235 83.5049 122.44 83.6841 123.588 84.0426C125.263 84.5713 126.585 85.4091 127.558 86.5562C128.795 88.0258 129.413 89.9704 129.413 92.3899C129.413 94.8095 128.795 96.7317 127.558 98.2237C126.585 99.3797 125.263 100.227 123.588 100.76C122.405 101.136 121.208 101.324 120.007 101.324C118.743 101.324 117.534 101.145 116.386 100.787C114.711 100.249 113.389 99.4111 112.416 98.273C111.162 96.763 110.534 94.805 110.534 92.3944V92.3899ZM114.634 92.3899C114.634 94.5182 115.244 96.0999 116.463 97.1304C117.399 97.919 118.578 98.3133 120.003 98.3133C121.428 98.3133 122.543 97.919 123.475 97.1304C124.694 96.0954 125.304 94.5182 125.304 92.3899C125.304 90.2617 124.694 88.7024 123.475 87.6808C122.539 86.9012 121.383 86.5114 120.003 86.5114C118.622 86.5114 117.444 86.9012 116.49 87.6808C115.253 88.7158 114.634 90.2841 114.634 92.3899Z" fill="#DA251D"/>
</g>
<g id="Group_2">
<path id="Vector_10" d="M14.4647 106.386V118.887H13.1293V113.12H5.13062V118.887H3.77734V106.386H5.13062V111.955H13.1293V106.386H14.4647Z" fill="#DA251D"/>
<path id="Vector_11" d="M27.6746 117.744V118.887H18.6318V106.386H27.4013V107.528H19.9851V111.973H26.5992V113.098H19.9851V117.74H27.6746V117.744Z" fill="#DA251D"/>
<path id="Vector_12" d="M38.8731 115.549H31.7482L30.2156 118.887H28.8086L34.6564 106.386H35.9917L41.8395 118.887H40.4145L38.882 115.549H38.8731ZM38.3801 114.478L35.3106 107.761L32.2411 114.478H38.3801Z" fill="#DA251D"/>
<path id="Vector_13" d="M43.9502 106.386H45.3035V117.744H52.4642V118.887H43.9502V106.386Z" fill="#DA251D"/>
<path id="Vector_14" d="M56.0082 107.528H51.5137V106.386H61.856V107.528H57.3615V118.887H56.0082V107.528Z" fill="#DA251D"/>
<path id="Vector_15" d="M74.6947 106.386V118.887H73.3594V113.12H65.3562V118.887H64.0029V106.386H65.3562V111.955H73.3594V106.386H74.6947Z" fill="#DA251D"/>
<path id="Vector_16" d="M80.9907 118.175C79.9735 117.629 79.1759 116.867 78.5978 115.899C78.0198 114.927 77.7285 113.842 77.7285 112.642C77.7285 111.441 78.0198 110.352 78.5978 109.384C79.1759 108.412 79.978 107.655 80.9997 107.108C82.0214 106.561 83.1685 106.288 84.4367 106.288C85.3866 106.288 86.2649 106.445 87.067 106.754C87.8692 107.063 88.5548 107.516 89.1149 108.112L88.2545 108.95C87.2552 107.959 85.9961 107.466 84.4725 107.466C83.4598 107.466 82.5412 107.695 81.7122 108.143C80.8832 108.596 80.2334 109.214 79.7674 110.003C79.2969 110.787 79.0639 111.669 79.0639 112.646C79.0639 113.623 79.2969 114.501 79.7674 115.29C80.2379 116.074 80.8832 116.697 81.7122 117.145C82.5412 117.597 83.4598 117.821 84.4725 117.821C86.005 117.821 87.2687 117.319 88.2545 116.32L89.1149 117.158C88.5548 117.754 87.8692 118.211 87.0581 118.525C86.247 118.843 85.3687 119 84.4187 119C83.1506 119 82.0079 118.726 80.9952 118.18L80.9907 118.175Z" fill="#DA251D"/>
<path id="Vector_17" d="M99.6856 115.549H92.5607L91.0281 118.887H89.6211L95.4689 106.386H96.8042L102.652 118.887H101.227L99.6945 115.549H99.6856ZM99.1926 114.478L96.1231 107.761L93.0536 114.478H99.1926Z" fill="#DA251D"/>
<path id="Vector_18" d="M113.496 118.887L110.575 114.868C110.248 114.903 109.902 114.921 109.553 114.921H106.116V118.887H104.763V106.386H109.548C111.18 106.386 112.461 106.767 113.384 107.528C114.307 108.29 114.773 109.338 114.773 110.669C114.773 111.646 114.522 112.47 114.016 113.143C113.51 113.815 112.788 114.299 111.852 114.599L114.975 118.887H113.496ZM112.416 112.977C113.084 112.43 113.42 111.659 113.42 110.674C113.42 109.688 113.084 108.886 112.416 108.344C111.744 107.802 110.776 107.533 109.513 107.533H106.116V113.801H109.513C110.781 113.801 111.749 113.528 112.416 112.981V112.977Z" fill="#DA251D"/>
<path id="Vector_19" d="M127.015 117.744V118.887H117.973V106.386H126.742V107.528H119.326V111.973H125.94V113.098H119.326V117.74H127.015V117.744Z" fill="#DA251D"/>
</g>
</g>
</svg>
